<svg width="592" height="592" viewBox="0 0 592 592" fill="none" xmlns="http://www.w3.org/2000/svg">
<path d="M183.315 111.251C186.114 105.676 190.711 101.682 196.615 99.7053L196.694 99.6806C199.381 98.8056 202.236 98.3722 205.113 98.4029L205.429 98.406C218.896 98.71 232.551 108.672 239.403 123.197C244.428 133.82 244.907 145.196 240.682 153.631C237.889 159.21 233.281 163.204 227.353 165.181L227.289 165.201C224.602 166.075 221.746 166.509 218.87 166.479C205.273 166.348 191.474 156.384 184.496 141.667C179.535 131.058 179.085 119.69 183.315 111.251ZM351.592 115.464C345.647 121.747 338.147 125.165 330.473 125.091C329.426 125.081 328.38 125.004 327.345 124.861C311.36 122.686 301.549 105.817 305.01 86.4275C306.458 78.2756 310.19 70.7062 315.485 65.118C321.42 58.848 328.93 55.4341 336.599 55.508C337.646 55.5182 338.692 55.595 339.726 55.7378C355.712 57.9133 365.523 74.7814 362.062 94.1713C360.619 102.311 356.887 109.871 351.592 115.464ZM270.826 124.316C269.789 124.439 268.742 124.495 267.695 124.485C260.016 124.411 252.589 120.849 246.766 114.453C241.585 108.759 238.019 101.128 236.713 92.9538C233.627 73.5092 243.762 56.8335 259.786 54.9583C260.823 54.8354 261.87 54.7788 262.918 54.7889C270.586 54.8713 278.029 58.4295 283.842 64.8127C289.028 70.5021 292.614 78.142 293.899 86.3289C296.985 105.773 286.851 122.449 270.826 124.316ZM370.092 166.579L370.023 166.557C364.144 164.466 359.619 160.388 356.939 154.761C352.877 146.229 353.57 134.877 358.789 124.353C366.016 109.79 379.999 100.09 393.582 100.221C396.458 100.245 399.305 100.733 401.974 101.661L402.043 101.682C407.907 103.756 412.432 107.851 415.112 113.478C419.173 122.01 418.481 133.362 413.261 143.886C406.035 158.449 392.051 168.149 378.469 168.018C375.598 167.993 372.756 167.504 370.092 166.579Z" fill="#008037"/>
<path d="M365.027 298.599C351.427 298.599 341.027 296.999 333.827 293.799C326.627 290.199 321.427 286.199 318.227 281.799C315.427 277.399 313.827 273.399 313.427 269.799C313.027 265.799 312.827 263.399 312.827 262.599C312.827 260.599 312.027 257.399 310.427 252.999C309.227 248.199 305.227 245.799 298.427 245.799C287.227 245.799 277.227 249.199 268.427 255.999C260.027 262.799 255.427 272.799 254.627 285.999C253.827 299.199 257.227 310.599 264.827 320.199C272.427 329.799 287.427 334.799 309.827 335.199C321.027 335.199 332.827 336.799 345.227 339.999C357.627 343.199 369.227 348.399 380.027 355.599C391.227 362.399 400.027 371.799 406.427 383.799C413.227 395.399 416.627 409.999 416.627 427.599C416.227 462.799 406.827 489.999 388.427 509.199C370.027 528.399 339.427 537.999 296.627 537.999C268.227 537.999 245.427 534.599 228.227 527.799C211.027 520.599 198.427 512.199 190.427 502.599C182.827 492.999 178.827 484.399 178.427 476.799C178.027 469.199 178.427 461.799 179.627 454.599C181.227 447.399 185.427 441.199 192.227 435.999C199.427 430.799 210.827 427.599 226.427 426.399C242.427 425.199 253.827 426.599 260.627 430.599C267.427 434.199 271.627 438.399 273.227 443.199C275.227 447.999 276.227 450.999 276.227 452.199C276.227 453.399 276.627 456.399 277.427 461.199C278.627 465.599 280.627 469.999 283.427 474.399C286.627 478.399 291.027 480.399 296.627 480.399C305.027 480.399 312.227 476.999 318.227 470.199C324.227 463.399 328.027 452.399 329.627 437.199C332.427 407.199 317.427 392.199 284.627 392.199C276.627 392.199 266.227 390.999 253.427 388.599C241.027 385.799 228.627 380.999 216.227 374.199C203.827 366.999 193.427 356.999 185.027 344.199C176.627 331.399 172.627 314.599 173.027 293.799C173.427 272.999 177.227 255.999 184.427 242.799C191.627 229.199 201.027 218.799 212.627 211.599C224.627 203.999 237.627 198.599 251.627 195.399C266.027 192.199 280.227 190.399 294.227 189.999C313.027 189.599 331.027 191.799 348.227 196.599C365.827 201.399 380.427 208.799 392.027 218.799C404.027 228.399 410.827 240.999 412.427 256.599C413.627 268.199 411.827 276.999 407.027 282.999C402.627 288.599 397.027 292.599 390.227 294.999C383.827 296.999 378.027 298.199 372.827 298.599C367.627 298.599 365.027 298.599 365.027 298.599Z" fill="#008037"/>
</svg>
