<svg width="400" height="389" viewBox="0 0 400 389" fill="none" xmlns="http://www.w3.org/2000/svg">
    <path
        d="M143.649 33.8658L172.312 39.2522L166.926 121.78L183.662 193.342L154.037 179.684L136.531 130.821V76.7647L143.649 33.8658Z"
        fill="#E86B42" />
    <path
        d="M212.71 232.009L211.556 256.632L175.005 274.331C175.005 274.331 155.383 266.059 154.806 265.482C154.229 264.712 149.42 252.977 149.42 252.977L127.682 216.811L114.023 189.11L127.105 170.065L147.688 160.639L172.312 173.72L195.204 212.195L212.71 232.009Z"
        fill="#C7B299" />
    <g style="mix-blend-mode:multiply" opacity="0.3">
        <path
            d="M211.556 256.632L175.005 274.331C175.005 274.331 155.383 266.059 154.806 265.482C154.229 264.712 149.42 252.977 149.42 252.977L127.682 216.811L114.023 189.11L127.105 170.065L147.688 160.639L139.994 180.453L147.688 203.153L145.957 214.888L149.42 230.662C149.42 230.662 161.155 254.901 163.463 254.901C165.579 254.901 176.929 265.097 176.929 265.097L211.556 256.632Z"
            fill="#534741" />
    </g>
    <path
        d="M253.302 346.662C269.846 356.281 270.039 371.863 253.495 381.482C236.951 391.1 210.019 391.1 193.282 381.482C176.738 371.863 176.546 356.281 193.09 346.662C209.634 337.044 236.566 337.044 253.302 346.662Z"
        fill="#B3B3B3" />
    <path d="M182.701 356.666L189.434 343.969L257.149 344.162L263.882 356.858L182.701 356.666Z" fill="#B3B3B3" />
    <path
        d="M248.3 335.505C262.151 343.584 262.151 356.473 248.3 364.553C234.642 372.632 212.135 372.632 198.284 364.553C184.433 356.473 184.433 343.584 198.091 335.505C211.942 327.617 234.257 327.617 248.3 335.505Z"
        fill="#E6E6E6" />
    <path
        d="M248.878 358.974C247.724 360.128 246.249 361.218 244.453 362.244C243.427 362.757 242.465 363.27 241.568 363.783C230.795 368.593 215.79 368.593 205.017 363.783C204.119 363.27 203.222 362.757 202.324 362.244C200.144 361.09 198.348 359.744 196.937 358.205C190.974 351.664 192.705 343.392 202.132 337.813C213.674 331.08 232.526 331.08 244.261 337.813C254.264 343.584 255.803 352.241 248.878 358.974Z"
        fill="#B3B3B3" />
    <path
        d="M248.878 358.974C247.724 360.128 246.249 361.218 244.453 362.244C243.427 362.757 242.465 363.27 241.568 363.783C230.795 368.593 215.79 368.593 205.017 363.783C204.119 363.27 203.222 362.757 202.324 362.244C200.144 361.09 198.348 359.744 196.937 358.205C190.974 351.664 192.705 343.392 202.132 337.813C213.674 331.08 232.526 331.08 244.261 337.813C254.264 343.584 255.803 352.241 248.878 358.974Z"
        fill="#B3B3B3" />
    <path
        d="M241.567 363.783C230.794 368.593 215.789 368.593 205.017 363.783C199.63 358.782 200.592 352.241 207.902 348.009C216.367 343.007 230.025 343.007 238.489 348.009C245.992 352.241 246.954 358.974 241.567 363.783Z"
        fill="#CCCCCC" />
    <path
        d="M249.454 354.742C249.262 355.319 249.07 355.704 249.262 357.05C249.262 357.435 249.07 358.205 248.877 358.974C247.723 360.128 246.248 361.218 244.453 362.244C243.427 362.757 242.465 363.27 241.567 363.783C230.794 368.593 215.789 368.593 205.017 363.783C204.119 363.27 203.221 362.757 202.323 362.244C200.143 361.09 198.348 359.744 196.937 358.205L196.552 357.05V353.395H198.668L200.592 351.472L201.746 348.009L203.862 349.74L204.632 345.316L208.287 345.7L211.172 342.815L214.058 340.506L216.367 343.392L219.445 340.506L221.368 342.43L225.408 340.506L228.101 343.007L232.911 342.43H234.834L237.912 343.777L239.836 342.43H241.76C241.76 342.43 244.26 345.7 244.453 346.085C244.645 346.662 246.569 348.778 246.569 348.778L249.454 349.74C249.454 349.74 249.454 354.357 249.454 354.742Z"
        fill="#603813" />
    <path
        d="M364.493 236.626C363.339 239.896 361.8 243.936 360.069 248.553C359.491 250.092 359.491 250.861 360.453 251.631C364.301 254.709 369.879 252.208 369.302 260.287C369.11 264.135 366.417 272.214 364.685 274.138C362.569 276.831 356.991 279.909 354.105 279.909C351.027 280.102 348.911 277.793 350.835 275.292C353.143 272.214 357.952 270.868 357.952 270.868C360.069 269.136 361.03 262.596 358.337 262.788C356.798 262.788 346.603 266.251 344.102 264.904C342.755 264.135 343.14 264.519 338.908 238.934C338.715 237.972 338.715 237.395 339.1 236.433L364.493 236.626Z"
        fill="#706354" />
    <path
        d="M297.355 284.334C297.932 284.142 304.088 283.372 304.088 283.757C306.589 309.535 307.358 309.15 303.896 315.306C301.78 318.576 299.856 320.115 295.624 318.768C293.7 318.191 293.123 316.845 293.892 315.113C295.047 312.42 297.74 311.843 296.393 301.263C294.469 287.027 293.315 285.296 297.355 284.334Z"
        fill="#706354" />
    <path
        d="M255.61 279.909C256.572 277.601 257.534 275.1 258.688 272.792C260.997 268.175 281.196 238.742 303.703 229.123C322.171 221.044 345.64 216.427 366.224 210.078C371.995 208.347 377.382 202.383 380.267 197.574C392.387 177.568 380.652 158.138 383.922 156.792C403.352 187.186 378.921 210.078 377.959 217.389C377.766 219.505 378.536 221.813 379.113 224.122C381.422 233.74 376.42 244.705 367.571 249.322C368.469 248.681 369.366 248.04 370.264 247.398L366.416 250.092C366.16 250.22 365.904 250.348 365.647 250.476C364.108 250.989 362.633 251.567 361.222 252.208C324.287 267.79 329.289 277.216 320.055 284.334C319.414 284.847 318.708 285.296 317.939 285.681C314.091 287.797 309.474 288.181 304.858 288.374C299.086 288.758 293.315 288.566 288.314 290.682C284.274 292.413 280.811 294.53 277.541 297.03C275.425 298.569 273.309 300.301 271 302.032C270.359 302.545 269.718 303.058 269.076 303.571C262.343 298.185 255.995 295.491 248.877 290.49C252.34 287.989 254.071 284.142 255.61 279.909Z"
        fill="#A8A199" />
    <path
        d="M277.733 290.49C283.696 288.566 289.467 285.296 295.046 282.218C296.585 281.448 301.779 277.408 303.318 277.793C304.857 278.37 304.665 285.488 304.857 287.027C304.857 287.604 305.05 287.989 304.857 288.374C299.086 288.758 293.315 288.566 288.313 290.682C284.273 292.413 280.811 294.53 277.54 297.03C275.424 298.569 273.308 300.301 271 302.032C269.846 300.301 268.499 298.762 266.768 297.607C269.076 293.952 273.501 292.221 277.733 290.49Z"
        fill="#706354" />
    <path
        d="M255.61 279.909C258.304 280.486 263.305 282.795 264.075 283.18C267.345 284.911 270.231 287.027 272.539 289.72C274.078 291.452 276.579 294.337 277.541 297.03C274.848 298.954 271.962 301.263 269.076 303.571C262.343 298.185 255.995 295.491 248.877 290.49C252.34 287.989 254.071 284.141 255.61 279.909Z"
        fill="#261B0D" />
    <path
        d="M231.757 314.921C234.835 305.302 224.447 300.685 245.03 284.911C246.185 283.949 247.531 283.18 249.07 282.795C255.226 281.641 263.498 287.796 265.807 289.528C267.538 290.874 269.462 292.413 270.616 294.337C271.257 295.363 271.642 296.517 271.77 297.8C272.732 303.379 270.039 310.304 268.884 312.612C267.73 314.729 261.19 322.808 255.803 328.002C247.916 334.158 250.032 338.198 244.453 340.506C241.952 341.468 238.874 342.622 235.219 341.276C231.757 340.122 229.063 337.428 227.524 335.697C225.024 332.811 228.871 323.578 231.757 314.921Z"
        fill="#A8A199" />
    <path
        d="M341.985 256.055C350.642 251.823 361.607 245.09 361.607 245.09L365.647 250.476L366.224 251.438L362.761 254.901C362.248 254.003 361.735 253.105 361.222 252.208C324.287 267.79 329.288 277.216 320.055 284.334C319.413 284.847 318.708 285.296 317.938 285.68L316.784 265.289C316.784 265.289 333.136 260.287 341.985 256.055Z"
        fill="#706354" />
    <path
        d="M362.377 232.394L377.575 212.195C377.767 213.926 377.767 215.657 377.959 217.389C378.088 218.415 378.344 219.441 378.729 220.467C382.576 230.47 384.308 222.005 384.885 259.518C384.885 261.057 385.077 261.826 386.424 262.596C391.425 265.674 396.042 262.981 398.735 271.06C400.082 274.908 400.274 282.987 399.505 284.911C398.351 287.604 393.926 290.682 391.041 290.682C387.963 290.875 385.077 288.566 386.039 286.065C387.001 282.987 391.425 281.641 391.425 281.641C392.772 279.909 391.233 273.561 388.732 273.561C387.001 273.561 378.152 277.216 375.266 275.87C373.15 274.908 347.372 249.707 362.377 232.394Z"
        fill="#A8A199" />
    <path
        d="M284.081 339.16C287.736 335.889 289.275 337.428 292.93 330.695C296.008 325.309 299.022 319.923 301.972 314.536C304.857 309.342 304.28 310.496 301.01 284.719C300.818 283.949 298.509 264.519 298.509 263.942C298.894 261.826 311.975 258.171 319.285 255.093C323.902 253.17 326.788 261.441 324.095 270.675C320.824 286.835 318.901 305.302 316.592 311.458C315.246 314.728 314.668 315.306 298.702 337.621C295.816 341.853 293.7 344.354 288.891 346.085C286.967 346.855 284.274 347.239 282.735 345.7C281.196 343.969 282.158 340.891 284.081 339.16Z"
        fill="#A8A199" />
    <path
        d="M231.757 339.352C230.859 338.711 230.153 337.941 229.641 337.044C229.448 336.659 229.063 336.274 228.871 335.697C228.679 335.12 228.871 335.12 229.448 335.12C230.602 335.12 231.949 335.697 233.103 335.889C234.386 336.274 235.604 336.723 236.758 337.236C237.143 337.428 237.72 337.813 237.912 338.198C238.105 338.967 237.528 339.544 236.951 339.929C236.566 340.314 236.117 340.699 235.604 341.083C235.476 341.212 235.347 341.276 235.219 341.276C235.091 341.276 234.899 341.276 234.642 341.276C233.616 340.763 232.654 340.122 231.757 339.352Z"
        fill="#261B0D" />
    <path
        d="M94.5937 274.33C94.5937 274.33 97.0946 289.72 98.8259 296.453C100.557 302.994 112.869 311.843 112.869 311.843C112.869 311.843 133.453 325.116 130.567 333.196C126.72 344.546 110.176 342.238 99.7878 336.274C94.0167 332.811 88.0531 324.155 85.5523 321.654C81.1277 316.844 72.471 315.883 72.0862 307.803C71.8939 300.301 74.3947 290.682 74.3947 290.682L73.6252 274.33H94.5937Z"
        fill="#1A1A1A" />
    <path
        d="M108.83 154.291C109.023 156.984 99.2115 213.926 98.6343 225.276C98.2496 236.818 101.328 292.029 101.328 292.029C95.7488 306.841 68.8167 287.989 68.8167 287.989C68.8167 287.989 66.7007 277.986 64.0075 265.097C60.7371 248.168 56.505 226.622 55.7355 216.234C55.3508 209.501 63.0456 176.029 63.0456 176.029C63.0456 176.029 59.583 158.715 53.2347 132.745C50.5415 121.587 47.4635 109.083 43.8084 95.6172C31.4966 50.0251 106.906 101.581 106.906 101.581C106.906 101.581 108.638 151.597 108.83 154.291Z"
        fill="#785238" />
    <g style="mix-blend-mode:multiply" opacity="0.5">
        <path
            d="M70.356 145.826C70.356 145.826 78.6279 185.07 67.6627 203.153C57.0823 221.044 63.8153 264.135 64.0076 265.097C60.7373 248.168 56.5052 226.622 55.7357 216.234C55.3509 209.501 63.0458 176.029 63.0458 176.029C63.0458 176.029 59.5831 158.715 53.2349 132.745L75.7424 121.78L70.356 145.826Z"
            fill="#4F3685" />
    </g>
    <path
        d="M38.229 307.803C38.229 307.803 40.5375 323.193 42.4612 329.734C44.1925 336.467 56.5043 345.316 56.5043 345.316C56.5043 345.316 77.0881 358.589 74.2025 366.669C70.1627 378.019 53.8111 375.71 43.4231 369.555C37.4595 366.284 31.6883 357.435 29.1875 355.127C24.763 350.317 16.1062 349.356 15.7215 341.084C15.5291 333.773 18.03 324.155 18.03 324.155L17.2604 307.803H38.229Z"
        fill="#1A1A1A" />
    <path
        d="M91.5161 108.314L62.6604 122.934C62.6604 122.934 57.851 173.528 58.0434 176.413C58.2358 179.299 46.3088 240.858 45.3469 253.17C44.5774 265.674 45.7316 325.309 45.7316 325.309C39.5757 341.468 13.4132 320.884 13.4132 320.884C13.4132 320.884 3.6022 262.981 2.83272 243.359C2.44797 236.049 11.4894 200.075 11.4894 200.075C11.4894 200.075 12.4513 159.292 1.67853 110.045C-8.90191 60.7979 33.9969 46.7549 33.9969 46.7549L91.5161 108.314Z"
        fill="#785238" />
    <path
        d="M166.348 54.4499C166.092 56.6301 165.643 58.6821 165.002 60.6058C158.846 80.2277 134.799 90.231 131.144 91.5776C127.105 93.1165 115.178 107.352 94.9785 111.777C74.7795 116.009 51.8872 102.35 43.8076 95.6173C40.922 93.1165 38.806 90.6157 36.8822 87.9225C24.9552 69.8395 33.9967 46.755 33.9967 46.755L43.6153 40.022C51.1178 36.5593 62.8525 34.0585 80.9354 21.7467C104.405 5.58747 124.604 -1.33796 144.803 2.70185C160.385 5.77979 169.042 30.9805 166.348 54.4499Z"
        fill="#E86B42" />
    <path
        d="M165.003 60.6055C158.847 80.2274 134.8 90.2307 131.145 91.5773C127.106 93.1163 115.179 107.352 94.9796 111.776C74.7805 116.009 51.8882 102.35 43.8086 95.6171C40.9231 93.1163 38.807 90.6154 36.8833 87.9222C51.6959 89.2688 119.988 93.8858 130.761 57.9123L165.003 60.6055Z"
        fill="#BA451E" />
    <path
        d="M136.531 27.3251C136.531 27.3251 139.994 1.93205 162.309 1.73968C177.891 1.54731 185.201 11.7431 190.011 21.1693C196.359 33.2887 198.09 47.7165 188.087 54.0648C182.508 58.6817 166.541 76.7646 158.846 76.7646C143.264 76.7646 144.034 54.0648 142.11 49.8326C140.186 45.7928 136.531 27.3251 136.531 27.3251Z"
        fill="#F79974" />
    <path
        d="M166.348 32.5192C166.348 32.5192 162.308 57.9123 149.419 63.6834C136.338 69.647 129.99 57.72 125.758 49.0632C119.794 37.1362 135.184 26.9405 135.184 26.9405L141.34 24.2473L166.348 32.5192Z"
        fill="#F79974" />
    <path
        d="M131.914 39.2523C131.914 39.2523 134.222 23.2855 136.338 19.6304C138.454 16.1677 143.071 -2.10755 165.001 0.200912C186.932 2.50937 195.011 25.2092 195.204 28.2871C195.204 28.2871 200.975 50.0251 195.204 54.2573C189.433 58.4895 169.811 60.0285 160.962 50.2175C154.036 42.3303 151.343 45.793 148.457 46.3701C144.033 47.5243 145.187 43.4845 142.302 40.2142L141.147 44.6387L131.914 39.2523Z"
        fill="black" />
    <path
        d="M135.762 35.4049C136.339 33.8659 137.493 32.5193 138.839 32.1345C140.378 31.7498 142.302 32.3269 143.649 33.8659C145.188 35.982 145.188 38.6752 144.803 40.9837C144.418 42.5227 144.034 44.0617 143.072 45.2159C141.917 46.3701 140.378 46.7549 138.839 46.1777C134.607 44.254 134.607 38.4828 135.762 35.4049Z"
        fill="#F79974" />
    <path
        d="M111.908 89.6536L118.449 141.786L141.341 199.305C150.19 215.465 127.683 216.811 127.683 216.811C108.446 209.309 91.7094 158.523 84.7841 141.786C81.5137 133.322 73.8188 106.967 73.8188 79.2655C73.8188 51.564 90.9399 45.0234 90.9399 45.0234C126.721 41.5607 111.908 89.6536 111.908 89.6536Z"
        fill="#E86B42" />
    <path
        d="M141.919 209.501L145.958 214.887L153.653 225.276L160.963 230.854C162.695 232.393 161.541 234.509 159.04 233.74L156.731 233.355L149.421 230.662L145.381 231.239C143.073 235.856 143.458 241.05 146.151 246.821L149.421 252.977L145.189 252.208L143.073 250.092L140.764 249.322L138.456 247.398L134.993 245.09L132.685 242.012L130.953 240.088L128.26 233.932V226.815C128.26 226.815 127.298 219.504 128.068 214.31C128.837 209.501 142.111 204.307 141.919 209.501Z"
        fill="#F79974" />
    <path d="M175.005 240.858L193.473 236.433L209.248 233.932V254.901L173.082 269.906L158.269 262.019L175.005 240.858Z"
        fill="#1A1A1A" />
    <path
        d="M185.394 183.916C188.664 186.224 191.357 189.302 193.666 192.38C194.628 193.727 195.589 195.266 196.167 196.805C196.551 198.344 196.359 200.075 196.359 201.614C196.102 205.333 195.846 209.052 195.589 212.771C195.205 212.002 188.856 201.422 186.74 197.766C184.24 198.344 184.239 204.307 184.239 206.616C184.047 207.962 183.855 209.309 183.085 210.463C182.316 211.425 180.584 212.002 179.623 211.232C178.276 210.271 178.468 208.347 178.661 206.808C179.046 201.999 177.891 197.189 177.506 192.572C177.314 190.841 176.929 183.916 177.506 182.377C178.468 178.722 182.123 181.222 185.394 183.916Z"
        fill="#F79974" />
    <path
        d="M175.005 240.858C175.005 240.858 191.165 244.128 193.473 245.09C195.782 246.052 197.705 249.13 197.705 249.13L203.861 258.556L204.246 265.289L209.248 274.331L204.054 282.603L206.554 297.8L201.553 310.112L197.705 303.571L193.473 301.455L189.818 293.183L183.662 289.913V282.603H180.777L173.082 269.906L158.269 262.019L175.005 240.858Z"
        fill="#603813" />
    <path
        d="M210.018 304.533C210.21 304.533 210.018 306.841 210.018 306.841L208.286 310.112L205.593 307.996C205.593 307.996 206.555 304.725 206.555 304.533C206.555 304.533 209.825 304.533 210.018 304.533Z"
        fill="#603813" />
    <path
        d="M207.901 313.767C207.901 313.767 208.286 316.267 208.478 316.46C208.478 316.845 207.131 318.191 206.554 318.384C205.977 318.576 205.015 317.229 204.631 317.037C204.438 316.652 205.592 313.767 205.592 313.767H207.901Z"
        fill="#603813" />
    <path
        d="M201.552 310.689C201.552 310.689 201.744 311.843 201.552 312.228C201.359 312.613 200.398 312.997 200.205 313.767C200.013 314.344 198.666 312.613 198.474 312.228C198.089 311.843 198.859 310.304 198.859 310.112L201.552 310.689Z"
        fill="#603813" />
    <path
        d="M204.631 322.808C204.631 322.808 204.054 324.347 204.054 324.924C204.247 325.501 201.553 326.271 201.553 326.271C201.553 326.271 199.63 324.155 200.014 323.962C200.207 323.578 201.553 320.307 201.553 320.307L204.631 322.808Z"
        fill="#603813" />
    <path
        d="M207.901 318.384L209.247 319.73C209.247 319.73 209.44 321.077 209.247 321.462C209.055 322.039 208.478 322.808 208.478 322.808C208.478 322.808 206.939 321.846 206.554 321.654C206.362 321.462 207.324 320.308 207.324 320.308L207.901 318.384Z"
        fill="#603813" />
    <path
        d="M203.668 317.229C203.668 317.229 203.091 318.576 203.091 318.961C203.091 319.346 201.552 318.384 201.552 318.384C201.552 318.384 199.629 317.807 199.436 317.614C199.051 317.614 201.552 316.075 201.552 316.075L203.668 317.229Z"
        fill="#603813" />
    <path
        d="M213.864 327.233L214.634 326.271L215.98 327.617L215.403 329.541L213.672 331.465L211.748 330.118C211.748 330.118 211.748 326.848 211.748 326.271L213.864 327.233Z"
        fill="#603813" />
    <path
        d="M207.902 324.924C207.902 324.924 208.671 324.539 209.248 324.347C209.825 324.347 208.479 326.271 208.479 326.271L207.902 327.232L206.555 326.271V325.309L207.902 324.924Z"
        fill="#603813" />
    <path
        d="M213.865 317.614L215.981 318.384C215.981 318.384 215.981 319.73 215.981 320.307C215.981 320.884 214.443 321.654 214.443 321.654C214.443 321.654 213.096 321.269 213.288 321.269V318.961L213.865 317.614Z"
        fill="#603813" />
    <path
        d="M206.94 332.812H209.248C209.248 332.812 209.056 334.928 209.44 335.697C209.633 336.467 208.479 336.851 208.479 337.044C208.479 337.428 206.555 338.198 206.555 338.198C206.555 338.198 205.208 336.274 204.631 336.467C204.246 336.659 205.593 334.158 205.593 334.158L206.94 332.812Z"
        fill="#603813" />
    <path d="M204.632 328.194L206.555 328.964L205.594 330.503L204.632 331.465H203.67V329.541L204.632 328.194Z"
        fill="#603813" />
    <path
        d="M212.326 336.274H214.634L215.981 339.545C215.981 339.545 214.249 341.661 213.865 341.853C213.48 342.238 212.133 340.699 211.748 340.506C211.364 340.314 211.556 338.39 211.748 338.198L212.326 336.274Z"
        fill="#603813" />
    <path
        d="M245.606 297.607C245.606 297.607 249.262 283.564 249.839 284.141C250.031 284.526 259.457 293.76 261.766 298.569C262.728 300.685 258.495 303.763 258.495 303.763L245.606 297.607Z"
        fill="#A8A199" />
    <path
        d="M232.139 299.916C232.139 299.916 224.252 282.218 224.829 282.602C225.214 282.795 237.526 285.68 241.373 289.336C242.912 291.067 240.604 298.185 240.604 298.185L232.139 299.916Z"
        fill="#A8A199" />
    <path
        d="M249.646 286.642C249.646 286.642 258.303 293.183 258.303 301.455C258.303 301.455 252.147 295.491 247.53 294.722L249.646 286.642Z"
        fill="#706354" />
    <path
        d="M232.909 297.607L226.561 284.526C232.525 287.027 237.334 290.105 240.412 294.145C235.987 294.722 232.909 297.607 232.909 297.607Z"
        fill="#706354" />
</svg>