<svg width="264" height="142" viewBox="0 0 264 142" fill="none" xmlns="http://www.w3.org/2000/svg">
    <circle cx="50.9998" cy="50.7552" r="50.3851" fill="#008000" />
    <g clip-path="url(#clip0_173_2071)">
        <path d="M88.5617 80.1094H18.2041V80.2768H88.5617V80.1094Z" fill="#3F3D56" />
        <path
            d="M85.0075 40.1549V56.3258H42.9536V40.1549C42.9461 35.604 44.4222 31.1747 47.1584 27.5382C48.9939 25.0905 51.3415 23.0728 54.0374 21.6261C56.7332 20.1795 59.7123 19.3386 62.7668 19.1623C63.1677 19.1388 63.5723 19.1274 63.9805 19.1279C64.2124 19.1279 64.4443 19.1313 64.6737 19.1397C70.0089 19.3086 75.0785 21.5071 78.8481 25.2864C78.962 25.4003 79.0733 25.515 79.1855 25.6305C79.7617 26.234 80.3017 26.871 80.8027 27.5382C83.5385 31.1749 85.0146 35.6041 85.0075 40.1549Z"
            fill="#E6E6E6" />
        <path
            d="M64.6732 19.1401V56.3259H62.7656V19.1626C63.1671 19.1392 63.5717 19.1276 63.9795 19.1279C64.2119 19.1279 64.4434 19.1314 64.6732 19.1401Z"
            fill="white" />
        <path
            d="M80.8028 27.5375H47.1582C47.659 26.8702 48.199 26.2332 48.7753 25.6299H79.1857C79.762 26.2332 80.302 26.8702 80.8028 27.5375Z"
            fill="white" />
        <path d="M81.8063 33.001H66.9019V56.3257H81.8063V33.001Z" fill="white" />
        <path d="M71.7554 37.2637H69.501V39.5181H71.7554V37.2637Z" fill="#E6E6E6" />
        <path d="M75.3878 37.2637H73.1333V39.5181H75.3878V37.2637Z" fill="#E6E6E6" />
        <path d="M79.0196 37.2637H76.7651V39.5181H79.0196V37.2637Z" fill="#E6E6E6" />
        <path d="M71.8179 42.3994H69.5635V44.6539H71.8179V42.3994Z" fill="#E6E6E6" />
        <path d="M75.4498 42.3994H73.1953V44.6539H75.4498V42.3994Z" fill="#E6E6E6" />
        <path d="M79.0821 42.3994H76.8276V44.6539H79.0821V42.3994Z" fill="#E6E6E6" />
        <path d="M71.8809 47.5342H69.6265V49.7886H71.8809V47.5342Z" fill="#E6E6E6" />
        <path d="M75.5123 47.5342H73.2578V49.7886H75.5123V47.5342Z" fill="#E6E6E6" />
        <path d="M79.1446 47.5342H76.8901V49.7886H79.1446V47.5342Z" fill="#E6E6E6" />
        <path d="M71.9425 52.6689H69.688V54.9234H71.9425V52.6689Z" fill="#E6E6E6" />
        <path d="M75.5753 52.6689H73.3208V54.9234H75.5753V52.6689Z" fill="#E6E6E6" />
        <path d="M79.2076 52.6689H76.9531V54.9234H79.2076V52.6689Z" fill="#E6E6E6" />
        <path d="M71.9425 52.6689H69.688V54.9234H71.9425V52.6689Z" fill="#E6E6E6" />
        <path d="M75.5753 52.6689H73.3208V54.9234H75.5753V52.6689Z" fill="#E6E6E6" />
        <path d="M79.2076 52.6689H76.9531V54.9234H79.2076V52.6689Z" fill="#E6E6E6" />
        <path
            d="M47.9524 51.1949C49.6685 51.1949 51.0597 49.8038 51.0597 48.0877C51.0597 46.3716 49.6685 44.9805 47.9524 44.9805C46.2364 44.9805 44.8452 46.3716 44.8452 48.0877C44.8452 49.8038 46.2364 51.1949 47.9524 51.1949Z"
            fill="#008000" />
        <path
            d="M48.1126 56.3247H47.8096L47.9042 51.1934L47.9611 48.0869H47.9695L48.0239 51.1934L48.054 52.9605L48.0574 53.1321L48.1126 56.3247Z"
            fill="white" />
        <path d="M48.5262 52.886L48.4546 52.75L47.941 53.0204L48.0125 53.1564L48.5262 52.886Z" fill="white" />
        <path
            d="M57.0874 48.2255C59.697 48.2255 61.8125 46.1101 61.8125 43.5005C61.8125 40.8909 59.697 38.7754 57.0874 38.7754C54.4778 38.7754 52.3623 40.8909 52.3623 43.5005C52.3623 46.1101 54.4778 48.2255 57.0874 48.2255Z"
            fill="#008000" />
        <path
            d="M57.3377 56.3261H56.8647L56.9627 51.0013L57.0137 48.2255L57.1008 43.501H57.1142L57.1962 48.2247L57.2431 50.9126L57.2481 51.1738L57.3377 56.3261Z"
            fill="white" />
        <path d="M57.9604 50.7976L57.8516 50.5908L57.0705 51.002L57.1793 51.2088L57.9604 50.7976Z" fill="white" />
        <path
            d="M47.3417 38.9882L48.1399 38.3498C47.5198 38.2813 47.265 38.6195 47.1607 38.8872C46.6763 38.6861 46.1489 38.9497 46.1489 38.9497L47.746 39.5295C47.6654 39.3143 47.5252 39.1265 47.3417 38.9882Z"
            fill="#008000" />
        <path
            d="M55.7523 33.787L56.5505 33.1486C55.9304 33.0802 55.6757 33.4184 55.5714 33.686C55.0869 33.4849 54.5596 33.7485 54.5596 33.7485L56.1566 34.3283C56.0761 34.1131 55.9358 33.9253 55.7523 33.787Z"
            fill="#008000" />
        <path
            d="M52.5443 38.7294L53.3425 38.091C52.7224 38.0226 52.4677 38.3607 52.3634 38.6284C51.8789 38.4273 51.3516 38.6909 51.3516 38.6909L52.9486 39.2707C52.8681 39.0555 52.7278 38.8677 52.5443 38.7294Z"
            fill="#008000" />
        <path
            d="M30.4092 43.2768C30.4092 43.2768 32.3313 43.6884 32.6183 43.4971C32.7043 43.4432 32.8038 43.4145 32.9053 43.4145C33.0068 43.4145 33.1062 43.4432 33.1922 43.4971C34.8184 42.8754 33.1774 40.9792 33.1295 40.2139C33.0817 39.4487 32.1252 38.3965 32.1252 38.3965L30.4092 43.2768Z"
            fill="#383838" />
        <path
            d="M28.6659 41.4893C28.6659 42.538 26.5684 44.8452 26.5684 44.8452L30.5536 51.0328C30.5536 51.0328 32.1267 44.7404 31.1828 44.4257C30.239 44.1111 31.2877 42.6429 31.2877 42.6429L28.6659 41.4893Z"
            fill="#A0616A" />
        <path
            d="M24.0511 51.8708L26.8827 53.6536L26.1486 54.8073C26.1486 54.8073 25.5194 54.2829 25.5194 54.178C25.5194 54.0731 21.3244 52.0805 20.9049 51.7659C20.4854 51.4513 21.8487 50.0879 21.8487 50.0879L24.0511 51.8708Z"
            fill="#A0616A" />
        <path
            d="M35.3402 51.7318C35.3402 51.7318 32.546 53.5495 32.4411 53.7592C32.3362 53.969 33.1752 56.3811 33.7116 56.2889C34.2479 56.1967 33.6996 54.4934 33.6996 54.4934C33.6996 54.4934 36.2166 52.5007 37.0556 51.7666C37.8946 51.0325 36.8458 49.3545 36.8458 49.3545L35.3402 51.7318Z"
            fill="#A0616A" />
        <path d="M36.4473 75.6135L37.0802 77.9098L38.585 77.8471L37.8106 74.9844L36.4473 75.6135Z" fill="#A0616A" />
        <path d="M27.0928 75.1533L27.6171 77.4605H28.6659V75.1533H27.0928Z" fill="#A0616A" />
        <path
            d="M30.5533 43.2717C31.8276 43.2717 32.8606 42.2387 32.8606 40.9645C32.8606 39.6902 31.8276 38.6572 30.5533 38.6572C29.2791 38.6572 28.2461 39.6902 28.2461 40.9645C28.2461 42.2387 29.2791 43.2717 30.5533 43.2717Z"
            fill="#A0616A" />
        <path
            d="M27.191 44.1113C27.191 44.1113 26.8834 44.5308 25.7297 44.8454C24.5761 45.16 21.325 48.2014 21.2201 50.4037C21.1153 52.6061 23.9469 51.9769 23.9469 51.9769C23.9469 51.9769 26.5687 52.3963 26.5687 52.5012C26.5687 52.6061 26.4639 53.2353 26.4639 53.2353C24.7859 55.3328 24.5761 58.8986 24.5761 58.8986C24.5761 58.8986 23.5274 74.5249 23.7371 75.7834C23.9469 77.0419 28.9809 76.3078 28.9809 76.3078L29.1906 62.2546C29.1906 62.2546 31.2881 74.8395 31.7076 75.8883C32.1271 76.937 38.1049 75.5736 38.1049 75.5736C38.1049 75.5736 33.1758 54.7036 33.1758 53.3402C33.1758 51.9769 34.749 51.6622 34.749 51.6622C34.749 51.6622 36.4269 51.9768 36.5318 51.3476C36.6367 50.7184 37.2659 49.7745 37.2659 49.7745C37.2659 49.7745 36.0074 47.0477 34.8538 45.5795C33.7002 44.1113 31.1832 44.4259 31.1832 44.4259L29.8198 49.1452L27.191 44.1113Z"
            fill="#CB8034" />
        <path
            d="M36.8451 77.2061C36.8451 77.2061 36.6288 79.5396 36.6354 79.8712C36.6413 80.1671 38.734 80.2485 38.9438 79.9339C39.1535 79.6193 39.8876 79.9339 39.8876 80.1437C39.8876 80.3534 41.9851 80.2052 41.9851 80.2052C44.7119 78.9468 41.5948 78.5995 41.5948 78.5995C41.5948 78.5995 39.7376 77.7228 38.8986 77.4082C38.0596 77.0936 38.397 77.2828 38.397 77.2828C38.1872 78.0169 36.8451 77.2061 36.8451 77.2061Z"
            fill="#383838" />
        <path
            d="M26.7787 79.4527C26.6738 79.5576 26.9884 80.9209 28.4567 80.7112C29.9249 80.5014 29.5054 78.9283 29.5054 78.7186C29.5054 78.5088 29.2957 76.9357 29.1908 76.5162C29.0859 76.0967 27.3031 76.8308 27.3031 76.8308C27.3031 76.8308 26.8836 79.3478 26.7787 79.4527Z"
            fill="#383838" />
        <path
            d="M32.409 38.8275C32.3072 39.1566 32.2273 39.4921 32.1699 39.8319C32.1221 40.2145 31.2133 40.3101 31.2133 40.3101C31.309 40.3101 31.309 39.7362 31.309 39.7362C31.309 40.071 30.7829 40.4058 30.7829 40.4058C30.3028 40.6908 29.8676 41.0454 29.4915 41.458C28.8219 42.1754 29.6828 42.2711 29.6828 42.2711C29.6183 43.424 27.2579 43.8914 27.2579 43.8914C24.5318 42.9348 26.6086 39.6619 26.6086 39.6619C28.6652 35.8356 30.3285 37.5122 30.3285 37.5122C32.1221 37.2492 32.409 38.8275 32.409 38.8275Z"
            fill="#383838" />
    </g>
    <path
        d="M3.99591 123.141V122.097L9.41991 115.473L9.59991 116.061H4.07991V114.741H11.0039V115.785L5.57991 122.409L5.38791 121.821H11.1599V123.141H3.99591ZM16.4047 123.141V121.845L16.3207 121.569V119.301C16.3207 118.861 16.1887 118.521 15.9247 118.281C15.6607 118.033 15.2607 117.909 14.7247 117.909C14.3647 117.909 14.0087 117.965 13.6567 118.077C13.3127 118.189 13.0207 118.345 12.7807 118.545L12.1927 117.453C12.5367 117.189 12.9447 116.993 13.4167 116.865C13.8967 116.729 14.3927 116.661 14.9047 116.661C15.8327 116.661 16.5487 116.885 17.0527 117.333C17.5647 117.773 17.8207 118.457 17.8207 119.385V123.141H16.4047ZM14.3887 123.225C13.9087 123.225 13.4887 123.145 13.1287 122.985C12.7687 122.817 12.4887 122.589 12.2887 122.301C12.0967 122.005 12.0007 121.673 12.0007 121.305C12.0007 120.945 12.0847 120.621 12.2527 120.333C12.4287 120.045 12.7127 119.817 13.1047 119.649C13.4967 119.481 14.0167 119.397 14.6647 119.397H16.5247V120.393H14.7727C14.2607 120.393 13.9167 120.477 13.7407 120.645C13.5647 120.805 13.4767 121.005 13.4767 121.245C13.4767 121.517 13.5847 121.733 13.8007 121.893C14.0167 122.053 14.3167 122.133 14.7007 122.133C15.0687 122.133 15.3967 122.049 15.6847 121.881C15.9807 121.713 16.1927 121.465 16.3207 121.137L16.5727 122.037C16.4287 122.413 16.1687 122.705 15.7927 122.913C15.4247 123.121 14.9567 123.225 14.3887 123.225ZM22.4577 123.225C21.9137 123.225 21.4337 123.125 21.0177 122.925C20.6017 122.717 20.2777 122.405 20.0457 121.989C19.8137 121.565 19.6977 121.033 19.6977 120.393V116.733H21.1977V120.189C21.1977 120.765 21.3257 121.197 21.5817 121.485C21.8457 121.765 22.2177 121.905 22.6977 121.905C23.0497 121.905 23.3537 121.833 23.6097 121.689C23.8737 121.545 24.0777 121.329 24.2217 121.041C24.3737 120.753 24.4497 120.397 24.4497 119.973V116.733H25.9497V123.141H24.5217V121.413L24.7737 121.941C24.5577 122.357 24.2417 122.677 23.8257 122.901C23.4097 123.117 22.9537 123.225 22.4577 123.225ZM27.3857 123.141V122.193L31.3337 117.417L31.6097 117.933H27.4577V116.733H32.8097V117.681L28.8617 122.457L28.5617 121.941H32.9177V123.141H27.3857ZM37.2187 123.225C36.5067 123.225 35.8827 123.085 35.3467 122.805C34.8187 122.517 34.4067 122.125 34.1107 121.629C33.8227 121.133 33.6787 120.569 33.6787 119.937C33.6787 119.297 33.8187 118.733 34.0987 118.245C34.3867 117.749 34.7787 117.361 35.2747 117.081C35.7787 116.801 36.3507 116.661 36.9907 116.661C37.6147 116.661 38.1707 116.797 38.6587 117.069C39.1467 117.341 39.5307 117.725 39.8107 118.221C40.0907 118.717 40.2307 119.301 40.2307 119.973C40.2307 120.037 40.2267 120.109 40.2187 120.189C40.2187 120.269 40.2147 120.345 40.2067 120.417H34.8667V119.421H39.4147L38.8267 119.733C38.8347 119.365 38.7587 119.041 38.5987 118.761C38.4387 118.481 38.2187 118.261 37.9387 118.101C37.6667 117.941 37.3507 117.861 36.9907 117.861C36.6227 117.861 36.2987 117.941 36.0187 118.101C35.7467 118.261 35.5307 118.485 35.3707 118.773C35.2187 119.053 35.1427 119.385 35.1427 119.769V120.009C35.1427 120.393 35.2307 120.733 35.4067 121.029C35.5827 121.325 35.8307 121.553 36.1507 121.713C36.4707 121.873 36.8387 121.953 37.2547 121.953C37.6147 121.953 37.9387 121.897 38.2267 121.785C38.5147 121.673 38.7707 121.497 38.9947 121.257L39.7987 122.181C39.5107 122.517 39.1467 122.777 38.7067 122.961C38.2747 123.137 37.7787 123.225 37.2187 123.225ZM44.0835 123.225C43.3795 123.225 42.8355 123.045 42.4515 122.685C42.0675 122.317 41.8755 121.777 41.8755 121.065V115.317H43.3755V121.029C43.3755 121.333 43.4515 121.569 43.6035 121.737C43.7635 121.905 43.9835 121.989 44.2635 121.989C44.5995 121.989 44.8795 121.901 45.1035 121.725L45.5235 122.793C45.3475 122.937 45.1315 123.045 44.8755 123.117C44.6195 123.189 44.3555 123.225 44.0835 123.225ZM40.8195 117.981V116.781H45.0915V117.981H40.8195ZM46.7574 123.141V116.733H48.2574V123.141H46.7574ZM47.5134 115.677C47.2334 115.677 47.0014 115.589 46.8174 115.413C46.6414 115.237 46.5534 115.025 46.5534 114.777C46.5534 114.521 46.6414 114.309 46.8174 114.141C47.0014 113.965 47.2334 113.877 47.5134 113.877C47.7934 113.877 48.0214 113.961 48.1974 114.129C48.3814 114.289 48.4734 114.493 48.4734 114.741C48.4734 115.005 48.3854 115.229 48.2094 115.413C48.0334 115.589 47.8014 115.677 47.5134 115.677ZM55.2466 123.141L52.4986 116.733H54.0586L56.4226 122.385H55.6546L58.1026 116.733H59.5426L56.7946 123.141H55.2466ZM60.4801 123.141V114.237H61.9801V123.141H60.4801ZM67.8968 123.141V121.845L67.8128 121.569V119.301C67.8128 118.861 67.6808 118.521 67.4168 118.281C67.1528 118.033 66.7528 117.909 66.2168 117.909C65.8568 117.909 65.5008 117.965 65.1488 118.077C64.8048 118.189 64.5128 118.345 64.2728 118.545L63.6848 117.453C64.0288 117.189 64.4368 116.993 64.9088 116.865C65.3888 116.729 65.8848 116.661 66.3968 116.661C67.3248 116.661 68.0408 116.885 68.5448 117.333C69.0568 117.773 69.3128 118.457 69.3128 119.385V123.141H67.8968ZM65.8808 123.225C65.4008 123.225 64.9808 123.145 64.6208 122.985C64.2608 122.817 63.9808 122.589 63.7808 122.301C63.5888 122.005 63.4928 121.673 63.4928 121.305C63.4928 120.945 63.5768 120.621 63.7448 120.333C63.9208 120.045 64.2048 119.817 64.5968 119.649C64.9888 119.481 65.5088 119.397 66.1568 119.397H68.0168V120.393H66.2648C65.7528 120.393 65.4088 120.477 65.2328 120.645C65.0568 120.805 64.9688 121.005 64.9688 121.245C64.9688 121.517 65.0768 121.733 65.2928 121.893C65.5088 122.053 65.8088 122.133 66.1928 122.133C66.5608 122.133 66.8888 122.049 67.1768 121.881C67.4728 121.713 67.6848 121.465 67.8128 121.137L68.0648 122.037C67.9208 122.413 67.6608 122.705 67.2848 122.913C66.9168 123.121 66.4488 123.225 65.8808 123.225ZM73.2179 123.225C72.6819 123.225 72.1659 123.157 71.6699 123.021C71.1819 122.877 70.7939 122.705 70.5059 122.505L71.0819 121.365C71.3699 121.549 71.7139 121.701 72.1139 121.821C72.5139 121.941 72.9139 122.001 73.3139 122.001C73.7859 122.001 74.1259 121.937 74.3339 121.809C74.5499 121.681 74.6579 121.509 74.6579 121.293C74.6579 121.117 74.5859 120.985 74.4419 120.897C74.2979 120.801 74.1099 120.729 73.8779 120.681C73.6459 120.633 73.3859 120.589 73.0979 120.549C72.8179 120.509 72.5339 120.457 72.2459 120.393C71.9659 120.321 71.7099 120.221 71.4779 120.093C71.2459 119.957 71.0579 119.777 70.9139 119.553C70.7699 119.329 70.6979 119.033 70.6979 118.665C70.6979 118.257 70.8139 117.905 71.0459 117.609C71.2779 117.305 71.6019 117.073 72.0179 116.913C72.4419 116.745 72.9419 116.661 73.5179 116.661C73.9499 116.661 74.3859 116.709 74.8259 116.805C75.2659 116.901 75.6299 117.037 75.9179 117.213L75.3419 118.353C75.0379 118.169 74.7299 118.045 74.4179 117.981C74.1139 117.909 73.8099 117.873 73.5059 117.873C73.0499 117.873 72.7099 117.941 72.4859 118.077C72.2699 118.213 72.1619 118.385 72.1619 118.593C72.1619 118.785 72.2339 118.929 72.3779 119.025C72.5219 119.121 72.7099 119.197 72.9419 119.253C73.1739 119.309 73.4299 119.357 73.7099 119.397C73.9979 119.429 74.2819 119.481 74.5619 119.553C74.8419 119.625 75.0979 119.725 75.3299 119.853C75.5699 119.973 75.7619 120.145 75.9059 120.369C76.0499 120.593 76.1219 120.885 76.1219 121.245C76.1219 121.645 76.0019 121.993 75.7619 122.289C75.5299 122.585 75.1979 122.817 74.7659 122.985C74.3339 123.145 73.8179 123.225 73.2179 123.225ZM81.0497 116.661C81.5617 116.661 82.0177 116.761 82.4177 116.961C82.8257 117.161 83.1457 117.469 83.3777 117.885C83.6097 118.293 83.7257 118.821 83.7257 119.469V123.141H82.2257V119.661C82.2257 119.093 82.0897 118.669 81.8177 118.389C81.5537 118.109 81.1817 117.969 80.7017 117.969C80.3497 117.969 80.0377 118.041 79.7657 118.185C79.4937 118.329 79.2817 118.545 79.1297 118.833C78.9857 119.113 78.9137 119.469 78.9137 119.901V123.141H77.4137V116.733H78.8417V118.461L78.5897 117.933C78.8137 117.525 79.1377 117.213 79.5617 116.997C79.9937 116.773 80.4897 116.661 81.0497 116.661ZM85.6285 123.141V116.733H87.1285V123.141H85.6285ZM86.3845 115.677C86.1045 115.677 85.8725 115.589 85.6885 115.413C85.5125 115.237 85.4245 115.025 85.4245 114.777C85.4245 114.521 85.5125 114.309 85.6885 114.141C85.8725 113.965 86.1045 113.877 86.3845 113.877C86.6645 113.877 86.8925 113.961 87.0685 114.129C87.2525 114.289 87.3445 114.493 87.3445 114.741C87.3445 115.005 87.2565 115.229 87.0805 115.413C86.9045 115.589 86.6725 115.677 86.3845 115.677ZM92.0373 123.225C91.3653 123.225 90.7653 123.085 90.2373 122.805C89.7173 122.517 89.3093 122.125 89.0133 121.629C88.7173 121.133 88.5693 120.569 88.5693 119.937C88.5693 119.297 88.7173 118.733 89.0133 118.245C89.3093 117.749 89.7173 117.361 90.2373 117.081C90.7653 116.801 91.3653 116.661 92.0373 116.661C92.6613 116.661 93.2093 116.789 93.6813 117.045C94.1613 117.293 94.5253 117.661 94.7733 118.149L93.6213 118.821C93.4293 118.517 93.1933 118.293 92.9133 118.149C92.6413 118.005 92.3453 117.933 92.0253 117.933C91.6573 117.933 91.3253 118.013 91.0293 118.173C90.7333 118.333 90.5013 118.565 90.3333 118.869C90.1653 119.165 90.0813 119.521 90.0813 119.937C90.0813 120.353 90.1653 120.713 90.3333 121.017C90.5013 121.313 90.7333 121.541 91.0293 121.701C91.3253 121.861 91.6573 121.941 92.0253 121.941C92.3453 121.941 92.6413 121.869 92.9133 121.725C93.1933 121.581 93.4293 121.357 93.6213 121.053L94.7733 121.725C94.5253 122.205 94.1613 122.577 93.6813 122.841C93.2093 123.097 92.6613 123.225 92.0373 123.225ZM96.0113 123.141V116.733H97.5113V123.141H96.0113ZM96.7673 115.677C96.4873 115.677 96.2553 115.589 96.0713 115.413C95.8953 115.237 95.8073 115.025 95.8073 114.777C95.8073 114.521 95.8953 114.309 96.0713 114.141C96.2553 113.965 96.4873 113.877 96.7673 113.877C97.0473 113.877 97.2753 113.961 97.4513 114.129C97.6353 114.289 97.7273 114.493 97.7273 114.741C97.7273 115.005 97.6393 115.229 97.4633 115.413C97.2873 115.589 97.0553 115.677 96.7673 115.677ZM41.0868 138.225C40.5668 138.225 40.0908 138.105 39.6588 137.865C39.2348 137.625 38.8948 137.265 38.6388 136.785C38.3908 136.297 38.2668 135.681 38.2668 134.937C38.2668 134.185 38.3868 133.569 38.6268 133.089C38.8748 132.609 39.2108 132.253 39.6348 132.021C40.0588 131.781 40.5428 131.661 41.0868 131.661C41.7188 131.661 42.2748 131.797 42.7548 132.069C43.2428 132.341 43.6268 132.721 43.9068 133.209C44.1948 133.697 44.3388 134.273 44.3388 134.937C44.3388 135.601 44.1948 136.181 43.9068 136.677C43.6268 137.165 43.2428 137.545 42.7548 137.817C42.2748 138.089 41.7188 138.225 41.0868 138.225ZM37.5348 140.469V131.733H38.9628V133.245L38.9148 134.949L39.0348 136.653V140.469H37.5348ZM40.9188 136.941C41.2788 136.941 41.5988 136.861 41.8788 136.701C42.1668 136.541 42.3948 136.309 42.5628 136.005C42.7308 135.701 42.8148 135.345 42.8148 134.937C42.8148 134.521 42.7308 134.165 42.5628 133.869C42.3948 133.565 42.1668 133.333 41.8788 133.173C41.5988 133.013 41.2788 132.933 40.9188 132.933C40.5588 132.933 40.2348 133.013 39.9468 133.173C39.6588 133.333 39.4308 133.565 39.2628 133.869C39.0948 134.165 39.0108 134.521 39.0108 134.937C39.0108 135.345 39.0948 135.701 39.2628 136.005C39.4308 136.309 39.6588 136.541 39.9468 136.701C40.2348 136.861 40.5588 136.941 40.9188 136.941ZM49.6273 138.141V136.845L49.5433 136.569V134.301C49.5433 133.861 49.4113 133.521 49.1473 133.281C48.8833 133.033 48.4833 132.909 47.9473 132.909C47.5873 132.909 47.2313 132.965 46.8793 133.077C46.5353 133.189 46.2433 133.345 46.0033 133.545L45.4153 132.453C45.7593 132.189 46.1673 131.993 46.6393 131.865C47.1193 131.729 47.6153 131.661 48.1273 131.661C49.0553 131.661 49.7713 131.885 50.2753 132.333C50.7873 132.773 51.0433 133.457 51.0433 134.385V138.141H49.6273ZM47.6113 138.225C47.1313 138.225 46.7113 138.145 46.3513 137.985C45.9913 137.817 45.7113 137.589 45.5113 137.301C45.3193 137.005 45.2233 136.673 45.2233 136.305C45.2233 135.945 45.3073 135.621 45.4753 135.333C45.6513 135.045 45.9353 134.817 46.3273 134.649C46.7193 134.481 47.2393 134.397 47.8873 134.397H49.7473V135.393H47.9953C47.4833 135.393 47.1393 135.477 46.9633 135.645C46.7873 135.805 46.6993 136.005 46.6993 136.245C46.6993 136.517 46.8073 136.733 47.0233 136.893C47.2393 137.053 47.5393 137.133 47.9233 137.133C48.2913 137.133 48.6193 137.049 48.9073 136.881C49.2033 136.713 49.4153 136.465 49.5433 136.137L49.7953 137.037C49.6513 137.413 49.3913 137.705 49.0153 137.913C48.6473 138.121 48.1793 138.225 47.6113 138.225ZM54.9484 138.225C54.4124 138.225 53.8964 138.157 53.4004 138.021C52.9124 137.877 52.5244 137.705 52.2364 137.505L52.8124 136.365C53.1004 136.549 53.4444 136.701 53.8444 136.821C54.2444 136.941 54.6444 137.001 55.0444 137.001C55.5164 137.001 55.8564 136.937 56.0644 136.809C56.2804 136.681 56.3884 136.509 56.3884 136.293C56.3884 136.117 56.3164 135.985 56.1724 135.897C56.0284 135.801 55.8404 135.729 55.6084 135.681C55.3764 135.633 55.1164 135.589 54.8284 135.549C54.5484 135.509 54.2644 135.457 53.9764 135.393C53.6964 135.321 53.4404 135.221 53.2084 135.093C52.9764 134.957 52.7884 134.777 52.6444 134.553C52.5004 134.329 52.4284 134.033 52.4284 133.665C52.4284 133.257 52.5444 132.905 52.7764 132.609C53.0084 132.305 53.3324 132.073 53.7484 131.913C54.1724 131.745 54.6724 131.661 55.2484 131.661C55.6804 131.661 56.1164 131.709 56.5564 131.805C56.9964 131.901 57.3604 132.037 57.6484 132.213L57.0724 133.353C56.7684 133.169 56.4604 133.045 56.1484 132.981C55.8444 132.909 55.5404 132.873 55.2364 132.873C54.7804 132.873 54.4404 132.941 54.2164 133.077C54.0004 133.213 53.8924 133.385 53.8924 133.593C53.8924 133.785 53.9644 133.929 54.1084 134.025C54.2524 134.121 54.4404 134.197 54.6724 134.253C54.9044 134.309 55.1604 134.357 55.4404 134.397C55.7284 134.429 56.0124 134.481 56.2924 134.553C56.5724 134.625 56.8284 134.725 57.0604 134.853C57.3004 134.973 57.4924 135.145 57.6364 135.369C57.7804 135.593 57.8524 135.885 57.8524 136.245C57.8524 136.645 57.7324 136.993 57.4924 137.289C57.2604 137.585 56.9284 137.817 56.4964 137.985C56.0644 138.145 55.5484 138.225 54.9484 138.225ZM63.0922 138.141V136.845L63.0082 136.569V134.301C63.0082 133.861 62.8762 133.521 62.6122 133.281C62.3482 133.033 61.9482 132.909 61.4122 132.909C61.0522 132.909 60.6962 132.965 60.3442 133.077C60.0002 133.189 59.7082 133.345 59.4682 133.545L58.8802 132.453C59.2242 132.189 59.6322 131.993 60.1042 131.865C60.5842 131.729 61.0802 131.661 61.5922 131.661C62.5202 131.661 63.2362 131.885 63.7402 132.333C64.2522 132.773 64.5082 133.457 64.5082 134.385V138.141H63.0922ZM61.0762 138.225C60.5962 138.225 60.1762 138.145 59.8162 137.985C59.4562 137.817 59.1762 137.589 58.9762 137.301C58.7842 137.005 58.6882 136.673 58.6882 136.305C58.6882 135.945 58.7722 135.621 58.9402 135.333C59.1162 135.045 59.4002 134.817 59.7922 134.649C60.1842 134.481 60.7042 134.397 61.3522 134.397H63.2122V135.393H61.4602C60.9482 135.393 60.6042 135.477 60.4282 135.645C60.2522 135.805 60.1642 136.005 60.1642 136.245C60.1642 136.517 60.2722 136.733 60.4882 136.893C60.7042 137.053 61.0042 137.133 61.3882 137.133C61.7562 137.133 62.0842 137.049 62.3722 136.881C62.6682 136.713 62.8802 136.465 63.0082 136.137L63.2602 137.037C63.1162 137.413 62.8562 137.705 62.4802 137.913C62.1122 138.121 61.6442 138.225 61.0762 138.225Z"
        fill="#132A13" />
    <circle cx="213" cy="50.3851" r="50.3851" fill="#008000" />
    <g clip-path="url(#clip1_173_2071)">
        <g style="mix-blend-mode:luminosity">
            <path
                d="M256.235 72.9151C256.235 72.9932 256.173 73.0558 256.095 73.0558H170.131C170.053 73.0558 169.991 72.9932 169.991 72.9151C169.991 72.8775 170.005 72.8443 170.028 72.8194H180.619C180.844 72.8194 181.065 72.8041 181.282 72.7744H256.095C256.173 72.7744 256.235 72.8371 256.235 72.9151Z"
                fill="#EFB376" />
            <path d="M187.528 49.5361H178.838V70.9968H187.528V49.5361Z" fill="#E6E6E6" />
            <path
                d="M183.434 55.7371C183.434 57.91 181.675 59.6717 179.505 59.6717C177.335 59.6717 175.577 57.91 175.577 55.7371C175.577 53.5642 177.335 51.8027 179.505 51.8027C181.675 51.8027 183.434 53.5642 183.434 55.7371Z"
                fill="#E6E6E6" />
            <path
                d="M175.874 56.8569C176.479 56.8569 176.969 56.3657 176.969 55.76C176.969 55.1542 176.479 54.6631 175.874 54.6631C175.269 54.6631 174.779 55.1542 174.779 55.76C174.779 56.3657 175.269 56.8569 175.874 56.8569Z"
                fill="#E6E6E6" />
            <path
                d="M190.338 55.712C190.338 56.9764 189.315 58.0011 188.052 58.0011C186.79 58.0011 185.767 56.9764 185.767 55.712C185.767 54.4478 186.79 53.4229 188.052 53.4229C189.315 53.4229 190.338 54.4478 190.338 55.712Z"
                fill="#E6E6E6" />
            <path
                d="M190.337 56.809C190.942 56.809 191.433 56.3179 191.433 55.7121C191.433 55.1064 190.942 54.6152 190.337 54.6152C189.733 54.6152 189.242 55.1064 189.242 55.7121C189.242 56.3179 189.733 56.809 190.337 56.809Z"
                fill="#E6E6E6" />
            <path
                d="M183.291 42.8832C183.895 42.8832 184.386 42.3921 184.386 41.7864C184.386 41.1806 183.895 40.6895 183.291 40.6895C182.686 40.6895 182.195 41.1806 182.195 41.7864C182.195 42.3921 182.686 42.8832 183.291 42.8832Z"
                fill="#E6E6E6" />
            <path
                d="M178.004 47.8916H188.766C189.318 47.8916 189.766 48.3401 189.766 48.8932C189.766 49.4463 189.318 49.8945 188.766 49.8945H178.004C177.452 49.8945 177.004 49.4463 177.004 48.8932C177.004 48.3401 177.452 47.8916 178.004 47.8916Z"
                fill="#E6E6E6" />
            <path
                d="M183.386 42.8828H183.386C185.672 42.8828 187.529 44.7418 187.529 47.0319V48.5103H179.243V47.0319C179.243 44.7418 181.099 42.8828 183.386 42.8828Z"
                fill="#E6E6E6" />
            <path d="M189.873 70.6396H176.493V72.7858H189.873V70.6396Z" fill="#E6E6E6" />
            <path
                d="M194.568 59.7342C195.626 60.3735 195.731 60.6751 196.372 60.9386C196.697 61.0721 197.304 61.2557 198.477 61.0893C200.092 60.8601 201.089 60.2065 203.889 58.6802C205.886 57.5917 206.863 57.1155 208.249 56.8733C209.287 56.692 209.891 56.758 210.353 56.8733C211.967 57.2757 212.848 58.5226 213.059 58.8309C213.789 59.896 213.881 60.9361 213.961 61.8422C214.063 62.9831 214.209 64.632 213.36 65.9075C212.296 67.5057 210.815 66.7974 208.249 68.3164C205.412 69.9957 205.887 71.6514 203.588 72.5324C200.647 73.6595 197.445 71.8779 197.274 71.7796C194.229 70.0304 193.606 66.8566 192.012 67.1119C191.06 67.2645 190.965 68.4483 189.457 68.7683C189.174 68.828 188.012 69.0745 187.201 68.3164C186.703 67.8509 186.719 68.8933 186.976 68.2413C187.306 67.404 187.973 65.7699 188.404 64.8535C188.635 64.3639 188.375 64.2128 188.555 62.8962C188.642 62.253 188.687 61.9284 188.855 61.541C189.273 60.5812 190.084 60.0853 190.659 59.7342C191.359 59.3068 192.046 58.8869 192.914 58.9813C193.411 59.0353 193.797 59.2684 194.568 59.7342Z"
                fill="#EFB376" />
            <path
                d="M212.909 63.3478C213.176 63.5666 213.239 64.01 213.36 64.8534C213.472 65.6337 213.404 66.1121 213.36 66.9614C213.295 68.2358 213.398 68.1173 213.36 69.822C213.329 71.2249 213.313 71.9262 213.21 72.5324C213.024 73.622 212.924 73.2033 212.007 75.9953C211.821 76.5618 211.673 77.0425 211.256 77.1998C210.733 77.3968 210.13 76.9567 210.053 76.8986C209.926 76.8035 209.479 76.4683 209.451 75.9953C209.416 75.3948 210.095 75.2427 210.654 74.3392C211.004 73.775 211.088 73.2101 211.256 72.0805C211.415 71.0063 211.495 70.4693 211.256 69.9727C210.818 69.0665 209.818 68.7855 209.752 68.768C209.153 68.6096 208.96 68.8341 208.249 68.768C207.583 68.7065 206.487 68.3929 206.294 67.8647C205.765 66.417 211.635 62.3024 212.909 63.3478Z"
                fill="#EFB376" />
            <path
                d="M210.504 61.2393C210.771 61.4581 210.834 61.9016 210.955 62.745C211.067 63.5253 210.999 64.0037 210.955 64.853C210.889 66.1276 210.993 66.0089 210.955 67.7138C210.924 69.1164 210.908 69.8179 210.805 70.4239C210.618 71.5138 210.519 71.095 209.602 73.8869C209.416 74.4534 209.268 74.9343 208.85 75.0916C208.327 75.2886 207.725 74.8483 207.648 74.7904C207.521 74.6953 207.074 74.3601 207.046 73.8869C207.011 73.2866 207.689 73.1343 208.249 72.2308C208.598 71.6665 208.682 71.1016 208.85 69.9723C209.01 68.8981 209.09 68.3609 208.85 67.8643C208.413 66.958 207.413 66.677 207.347 66.6598C206.748 66.5014 206.555 66.7256 205.843 66.6598C205.178 66.5981 204.082 66.2844 203.889 65.7563C203.36 64.3087 209.23 60.1942 210.504 61.2393Z"
                fill="#EFB376" />
            <path
                d="M205.994 68.6167C206.163 68.8752 206.357 69.5418 206.746 70.8752C206.919 71.4698 208.04 75.3819 208.4 76.5969C208.503 76.9459 208.637 77.3819 209.001 77.8013C209.307 78.1543 209.471 78.1434 209.602 78.4037C209.943 79.0812 209.278 80.0369 209.151 80.2105C209.004 80.4125 208.32 81.351 207.347 81.2643C207.245 81.2554 206.588 81.1969 206.445 80.8126C206.226 80.2239 207.514 79.6713 207.497 78.7046C207.488 78.1338 207.031 77.8973 206.445 77.199C205.188 75.7011 205.724 74.9226 204.791 73.736C203.396 71.9612 200.802 71.9288 200.432 71.9292C199.471 71.9306 198.135 71.9326 197.275 72.8327C196.075 74.0874 196.571 76.2825 196.072 79.6082C196.072 79.6082 195.991 80.1474 195.771 80.9633C195.409 82.3097 195.119 82.6574 195.02 82.7699C194.884 82.9231 194.488 83.3589 193.817 83.523C193.724 83.5455 193.297 83.6435 192.765 83.523C192.411 83.4429 192.089 83.3698 191.862 83.0711C191.645 82.7847 191.563 82.353 191.712 82.0171C191.893 81.6106 192.266 81.6767 192.765 81.2643C193.116 80.9733 193.3 80.5684 193.666 79.7586C193.829 79.4003 194.072 78.8567 194.268 78.1025C194.494 77.2296 194.522 76.5551 194.569 75.2417C194.608 74.1353 194.589 73.2154 194.569 72.2304C194.545 71.0833 194.513 70.7088 194.569 69.9719C194.627 69.1986 194.684 68.4458 194.869 68.0144C195.868 65.6939 203.79 65.2505 205.994 68.6167Z"
                fill="#EFB376" />
            <path
                d="M212.307 58.3786C212.95 58.0227 213.042 57.1898 213.21 55.6685C213.332 54.5602 213.404 53.9002 213.059 53.1088C212.593 52.0408 211.719 51.5421 211.556 51.4525C211.378 51.3547 210.21 50.7344 209 51.1515C208.831 51.2096 208.384 51.5424 207.497 52.2053C206.438 52.9967 206.282 53.1476 206.144 53.41C205.773 54.112 205.812 55.0609 206.144 55.2168C206.396 55.3351 206.831 55.003 207.046 54.765C207.302 54.4806 207.264 54.3085 207.497 54.0121C207.681 53.7775 207.855 53.6955 208.399 53.41C209.745 52.7026 209.813 52.6086 210.052 52.6572C210.649 52.7779 210.933 53.5042 210.954 53.5605C211.136 54.0446 211.012 54.4847 210.804 55.2168C210.694 55.604 210.57 55.9029 210.353 56.4213C209.961 57.36 209.858 57.4304 209.902 57.6258C210.047 58.2669 211.459 58.8486 212.307 58.3786Z"
                fill="#EFB376" />
            <path
                d="M196.898 61.0136C197.147 61.0547 197.267 62.4779 196.898 63.7237C196.646 64.5757 196.137 65.4382 196.046 65.5902C195.974 65.7101 195.905 65.8192 195.696 66.1329C194.67 67.6662 194.152 68.4322 193.892 68.3914C193.544 68.3369 194.495 67.514 194.568 66.7271C194.704 65.2639 195.36 65.083 196.522 62.9627C197.152 61.8154 196.704 60.9814 196.898 61.0136Z"
                fill="#F7F3E0" />
            <path
                d="M191.637 60.5615C191.511 59.9208 192.225 59.0311 192.99 58.9052C194.104 58.7218 195.071 60.2043 195.395 61.1637C195.84 62.4834 195.34 63.6178 195.094 64.1752C194.786 64.8742 194.555 64.9201 194.493 64.928C194.038 64.985 193.499 64.1504 193.29 63.4224C193.107 62.7814 193.314 62.6938 193.14 62.2177C192.782 61.2376 191.771 61.2451 191.637 60.5615Z"
                fill="#CB8034" />
            <path d="M196.677 63.7732L226.508 44.2747L226.068 44.1748L196.237 63.6732L196.677 63.7732Z"
                fill="#F7F3E0" />
            <path d="M233.706 26.485L233.053 24.0857L235.993 22.9951L236.32 25.1763L233.706 26.485Z" fill="#A0616A" />
            <path opacity="0.1" d="M233.706 26.4853L233.053 24.0859L234.784 23.3545L234.246 26.183L233.706 26.4853Z"
                fill="#0F2E1C" />
            <path
                d="M225.099 47.0491C224.538 46.7144 224.508 45.7266 225.033 44.8428C225.263 44.4559 225.561 44.1531 225.87 43.9629L226.179 43.4584L230.079 36.4552C230.079 36.4552 231.787 29.8502 232.482 29.0516C233.177 28.253 234.182 28.4412 234.182 28.4412L235.073 29.2342L231.892 38.5892L227.965 44.127L227.439 44.8978C227.42 45.2609 227.296 45.6678 227.067 46.0546C226.541 46.9386 225.661 47.3837 225.099 47.0491Z"
                fill="#A0616A" />
            <path
                d="M233.545 25.8012C233.545 25.8012 234.786 25.7531 235.569 26.7183C236.352 27.6835 232.251 38.5623 232.251 38.5623L228.911 38.4439L233.545 25.8012Z"
                fill="#F7F3E0" />
            <path
                d="M233.869 24.4687C235.553 24.4687 236.918 23.1015 236.918 21.415C236.918 19.7285 235.553 18.3613 233.869 18.3613C232.185 18.3613 230.82 19.7285 230.82 21.415C230.82 23.1015 232.185 24.4687 233.869 24.4687Z"
                fill="#A0616A" />
            <path d="M226.737 65.7475L224.668 70.8734L223.47 69.6737L223.034 67.3835L224.777 65.2021L226.737 65.7475Z"
                fill="#A0616A" />
            <path d="M246.12 63.8945L248.189 66.2939L247.209 68.2569L245.031 67.9299L243.942 64.8761L246.12 63.8945Z"
                fill="#A0616A" />
            <path d="M232.345 35.2656L232.072 39.6826L238.824 38.4829L238.388 35.7564L232.345 35.2656Z"
                fill="#A0616A" />
            <path
                d="M232.017 39.7368L238.823 37.501C238.823 37.501 241.328 42.5177 238.605 45.6804C235.883 48.8433 226.845 66.8381 226.845 66.8381L224.123 65.5294L228.043 54.0782L232.398 43.4993L232.017 39.7368Z"
                fill="#383838" />
            <path
                d="M238.606 43.8262L241.219 55.2777L246.664 64.1114L243.833 65.7473L236.21 55.2777L233.706 47.2072L238.606 43.8262Z"
                fill="#383838" />
            <path
                d="M222.055 66.9483H220.169C220.169 66.9483 217.968 66.0759 217.452 66.9483C216.937 67.8207 219.753 70.2953 219.753 70.2953C219.753 70.2953 223.688 72.5104 224.232 72.4012C224.777 72.2923 224.995 70.9834 224.995 70.9834L225.648 69.4567L224.668 69.7839C224.668 69.7839 223.361 69.0204 223.688 67.7118L222.055 66.9483Z"
                fill="#383838" />
            <path
                d="M247.754 66.6198V65.5293L249.019 66.6198C249.019 66.6198 251.129 67.3833 249.496 69.0193C247.862 70.6552 245.793 72.4001 245.793 72.4001C245.793 72.4001 242.527 73.2725 242.309 72.2911C242.091 71.3095 242.309 70.9123 242.309 70.9123L243.507 70.3279L244.596 67.4925L246.338 67.7106L247.753 66.6198H247.754Z"
                fill="#383838" />
            <path
                d="M234.795 22.0147L233.815 21.9056L232.018 20.1061C232.018 20.1061 230.384 20.9786 230.384 20.3242C230.384 17.2705 232.236 17.3796 233.76 17.1615C235.285 16.9434 235.121 16.8888 235.611 17.7068C235.835 18.0809 236.646 18.3066 236.646 18.3066C236.646 18.3066 238.17 16.2345 238.932 18.7429C239.695 21.2512 238.715 28.9945 239.477 29.6489C240.239 30.3032 236.347 30.9566 236.769 28.3942C237.19 25.8318 237.952 21.9056 237.517 21.0331C237.081 20.1606 236.972 20.3788 236.972 20.3788C237.512 20.158 237.865 24.046 235.829 24.2364L235.775 22.3418C235.775 22.3418 235.448 21.3603 234.795 22.0147Z"
                fill="#383838" />
            <path
                d="M233.434 25.7765L236.7 24.4678L241.056 37.555L232.094 37.228L231.287 33.3219C231.287 33.3219 230.499 31.289 231.153 30.0893C231.806 28.8896 233.434 25.7765 233.434 25.7765V25.7765Z"
                fill="#F7F3E0" />
            <path
                d="M241.934 47.6992C241.283 47.7553 240.684 46.97 240.596 45.9455C240.558 45.4968 240.624 45.0769 240.765 44.7417L240.722 44.1516L239.814 36.1841C239.814 36.1841 238.125 29.6668 238.225 28.6121C238.325 27.5574 238.483 27.2773 238.483 27.2773L239.669 27.4012L242.529 36.8597L242.562 43.6518L242.583 44.5851C242.779 44.8915 242.916 45.2941 242.954 45.7426C243.042 46.7673 242.586 47.6434 241.934 47.6992Z"
                fill="#A0616A" />
            <path
                d="M236.428 25.5051C236.428 25.5051 237.408 24.7416 238.606 25.0688C239.804 25.396 242.804 36.6292 242.804 36.6292L240.021 38.4832L236.428 25.5051Z"
                fill="#F7F3E0" />
        </g>
    </g>
    <path
        d="M164.792 122.771V114.371H166.076L171.344 120.839H170.708V114.371H172.256V122.771H170.972L165.704 116.303H166.34V122.771H164.792ZM177.375 122.855C176.663 122.855 176.039 122.715 175.503 122.435C174.975 122.147 174.563 121.755 174.267 121.259C173.979 120.763 173.835 120.199 173.835 119.567C173.835 118.927 173.975 118.363 174.255 117.875C174.543 117.379 174.935 116.991 175.431 116.711C175.935 116.431 176.507 116.291 177.147 116.291C177.771 116.291 178.327 116.427 178.815 116.699C179.303 116.971 179.687 117.355 179.967 117.851C180.247 118.347 180.387 118.931 180.387 119.603C180.387 119.667 180.383 119.739 180.375 119.819C180.375 119.899 180.371 119.975 180.363 120.047H175.023V119.051H179.571L178.983 119.363C178.991 118.995 178.915 118.671 178.755 118.391C178.595 118.111 178.375 117.891 178.095 117.731C177.823 117.571 177.507 117.491 177.147 117.491C176.779 117.491 176.455 117.571 176.175 117.731C175.903 117.891 175.687 118.115 175.527 118.403C175.375 118.683 175.299 119.015 175.299 119.399V119.639C175.299 120.023 175.387 120.363 175.563 120.659C175.739 120.955 175.987 121.183 176.307 121.343C176.627 121.503 176.995 121.583 177.411 121.583C177.771 121.583 178.095 121.527 178.383 121.415C178.671 121.303 178.927 121.127 179.151 120.887L179.955 121.811C179.667 122.147 179.303 122.407 178.863 122.591C178.431 122.767 177.935 122.855 177.375 122.855ZM181.241 122.771V121.823L185.189 117.047L185.465 117.563H181.313V116.363H186.665V117.311L182.717 122.087L182.417 121.571H186.773V122.771H181.241ZM192.104 122.771V121.475L192.02 121.199V118.931C192.02 118.491 191.888 118.151 191.624 117.911C191.36 117.663 190.96 117.539 190.424 117.539C190.064 117.539 189.708 117.595 189.356 117.707C189.012 117.819 188.72 117.975 188.48 118.175L187.892 117.083C188.236 116.819 188.644 116.623 189.116 116.495C189.596 116.359 190.092 116.291 190.604 116.291C191.532 116.291 192.248 116.515 192.752 116.963C193.264 117.403 193.52 118.087 193.52 119.015V122.771H192.104ZM190.088 122.855C189.608 122.855 189.188 122.775 188.828 122.615C188.468 122.447 188.188 122.219 187.988 121.931C187.796 121.635 187.7 121.303 187.7 120.935C187.7 120.575 187.784 120.251 187.952 119.963C188.128 119.675 188.412 119.447 188.804 119.279C189.196 119.111 189.716 119.027 190.364 119.027H192.224V120.023H190.472C189.96 120.023 189.616 120.107 189.44 120.275C189.264 120.435 189.176 120.635 189.176 120.875C189.176 121.147 189.284 121.363 189.5 121.523C189.716 121.683 190.016 121.763 190.4 121.763C190.768 121.763 191.096 121.679 191.384 121.511C191.68 121.343 191.892 121.095 192.02 120.767L192.272 121.667C192.128 122.043 191.868 122.335 191.492 122.543C191.124 122.751 190.656 122.855 190.088 122.855ZM197.032 122.771L194.284 116.363H195.844L198.208 122.015H197.44L199.888 116.363H201.328L198.58 122.771H197.032ZM202.265 122.771V116.363H203.765V122.771H202.265ZM203.021 115.307C202.741 115.307 202.509 115.219 202.325 115.043C202.149 114.867 202.061 114.655 202.061 114.407C202.061 114.151 202.149 113.939 202.325 113.771C202.509 113.595 202.741 113.507 203.021 113.507C203.301 113.507 203.529 113.591 203.705 113.759C203.889 113.919 203.981 114.123 203.981 114.371C203.981 114.635 203.893 114.859 203.717 115.043C203.541 115.219 203.309 115.307 203.021 115.307ZM207.714 122.855C207.178 122.855 206.662 122.787 206.166 122.651C205.678 122.507 205.29 122.335 205.002 122.135L205.578 120.995C205.866 121.179 206.21 121.331 206.61 121.451C207.01 121.571 207.41 121.631 207.81 121.631C208.282 121.631 208.622 121.567 208.83 121.439C209.046 121.311 209.154 121.139 209.154 120.923C209.154 120.747 209.082 120.615 208.938 120.527C208.794 120.431 208.606 120.359 208.374 120.311C208.142 120.263 207.882 120.219 207.594 120.179C207.314 120.139 207.03 120.087 206.742 120.023C206.462 119.951 206.206 119.851 205.974 119.723C205.742 119.587 205.554 119.407 205.41 119.183C205.266 118.959 205.194 118.663 205.194 118.295C205.194 117.887 205.31 117.535 205.542 117.239C205.774 116.935 206.098 116.703 206.514 116.543C206.938 116.375 207.438 116.291 208.014 116.291C208.446 116.291 208.882 116.339 209.322 116.435C209.762 116.531 210.126 116.667 210.414 116.843L209.838 117.983C209.534 117.799 209.226 117.675 208.914 117.611C208.61 117.539 208.306 117.503 208.002 117.503C207.546 117.503 207.206 117.571 206.982 117.707C206.766 117.843 206.658 118.015 206.658 118.223C206.658 118.415 206.73 118.559 206.874 118.655C207.018 118.751 207.206 118.827 207.438 118.883C207.67 118.939 207.926 118.987 208.206 119.027C208.494 119.059 208.778 119.111 209.058 119.183C209.338 119.255 209.594 119.355 209.826 119.483C210.066 119.603 210.258 119.775 210.402 119.999C210.546 120.223 210.618 120.515 210.618 120.875C210.618 121.275 210.498 121.623 210.258 121.919C210.026 122.215 209.694 122.447 209.262 122.615C208.83 122.775 208.314 122.855 207.714 122.855ZM215.546 116.291C216.058 116.291 216.514 116.391 216.914 116.591C217.322 116.791 217.642 117.099 217.874 117.515C218.106 117.923 218.222 118.451 218.222 119.099V122.771H216.722V119.291C216.722 118.723 216.586 118.299 216.314 118.019C216.05 117.739 215.678 117.599 215.198 117.599C214.846 117.599 214.534 117.671 214.262 117.815C213.99 117.959 213.778 118.175 213.626 118.463C213.482 118.743 213.41 119.099 213.41 119.531V122.771H211.91V116.363H213.338V118.091L213.086 117.563C213.31 117.155 213.634 116.843 214.058 116.627C214.49 116.403 214.986 116.291 215.546 116.291ZM220.125 122.771V116.363H221.625V122.771H220.125ZM220.881 115.307C220.601 115.307 220.369 115.219 220.185 115.043C220.009 114.867 219.921 114.655 219.921 114.407C219.921 114.151 220.009 113.939 220.185 113.771C220.369 113.595 220.601 113.507 220.881 113.507C221.161 113.507 221.389 113.591 221.565 113.759C221.749 113.919 221.841 114.123 221.841 114.371C221.841 114.635 221.753 114.859 221.577 115.043C221.401 115.219 221.169 115.307 220.881 115.307ZM228.89 122.855C228.354 122.855 227.838 122.787 227.342 122.651C226.854 122.507 226.466 122.335 226.178 122.135L226.754 120.995C227.042 121.179 227.386 121.331 227.786 121.451C228.186 121.571 228.586 121.631 228.986 121.631C229.458 121.631 229.798 121.567 230.006 121.439C230.222 121.311 230.33 121.139 230.33 120.923C230.33 120.747 230.258 120.615 230.114 120.527C229.97 120.431 229.782 120.359 229.55 120.311C229.318 120.263 229.058 120.219 228.77 120.179C228.49 120.139 228.206 120.087 227.918 120.023C227.638 119.951 227.382 119.851 227.15 119.723C226.918 119.587 226.73 119.407 226.586 119.183C226.442 118.959 226.37 118.663 226.37 118.295C226.37 117.887 226.486 117.535 226.718 117.239C226.95 116.935 227.274 116.703 227.69 116.543C228.114 116.375 228.614 116.291 229.19 116.291C229.622 116.291 230.058 116.339 230.498 116.435C230.938 116.531 231.302 116.667 231.59 116.843L231.014 117.983C230.71 117.799 230.402 117.675 230.09 117.611C229.786 117.539 229.482 117.503 229.178 117.503C228.722 117.503 228.382 117.571 228.158 117.707C227.942 117.843 227.834 118.015 227.834 118.223C227.834 118.415 227.906 118.559 228.05 118.655C228.194 118.751 228.382 118.827 228.614 118.883C228.846 118.939 229.102 118.987 229.382 119.027C229.67 119.059 229.954 119.111 230.234 119.183C230.514 119.255 230.77 119.355 231.002 119.483C231.242 119.603 231.434 119.775 231.578 119.999C231.722 120.223 231.794 120.515 231.794 120.875C231.794 121.275 231.674 121.623 231.434 121.919C231.202 122.215 230.87 122.447 230.438 122.615C230.006 122.775 229.49 122.855 228.89 122.855ZM228.29 115.487L226.682 113.843H227.918L229.55 115.211H228.398L230.03 113.843H231.266L229.658 115.487H228.29ZM236.098 122.855C235.386 122.855 234.762 122.715 234.226 122.435C233.698 122.147 233.286 121.755 232.99 121.259C232.702 120.763 232.558 120.199 232.558 119.567C232.558 118.927 232.698 118.363 232.978 117.875C233.266 117.379 233.658 116.991 234.154 116.711C234.658 116.431 235.23 116.291 235.87 116.291C236.494 116.291 237.05 116.427 237.538 116.699C238.026 116.971 238.41 117.355 238.69 117.851C238.97 118.347 239.11 118.931 239.11 119.603C239.11 119.667 239.106 119.739 239.098 119.819C239.098 119.899 239.094 119.975 239.086 120.047H233.746V119.051H238.294L237.706 119.363C237.714 118.995 237.638 118.671 237.478 118.391C237.318 118.111 237.098 117.891 236.818 117.731C236.546 117.571 236.23 117.491 235.87 117.491C235.502 117.491 235.178 117.571 234.898 117.731C234.626 117.891 234.41 118.115 234.25 118.403C234.098 118.683 234.022 119.015 234.022 119.399V119.639C234.022 120.023 234.11 120.363 234.286 120.659C234.462 120.955 234.71 121.183 235.03 121.343C235.35 121.503 235.718 121.583 236.134 121.583C236.494 121.583 236.818 121.527 237.106 121.415C237.394 121.303 237.65 121.127 237.874 120.887L238.678 121.811C238.39 122.147 238.026 122.407 237.586 122.591C237.154 122.767 236.658 122.855 236.098 122.855ZM242.962 122.855C242.258 122.855 241.714 122.675 241.33 122.315C240.946 121.947 240.754 121.407 240.754 120.695V114.947H242.254V120.659C242.254 120.963 242.33 121.199 242.482 121.367C242.642 121.535 242.862 121.619 243.142 121.619C243.478 121.619 243.758 121.531 243.982 121.355L244.402 122.423C244.226 122.567 244.01 122.675 243.754 122.747C243.498 122.819 243.234 122.855 242.962 122.855ZM239.698 117.611V116.411H243.97V117.611H239.698ZM249.584 122.771V121.475L249.5 121.199V118.931C249.5 118.491 249.368 118.151 249.104 117.911C248.84 117.663 248.44 117.539 247.904 117.539C247.544 117.539 247.188 117.595 246.836 117.707C246.492 117.819 246.2 117.975 245.96 118.175L245.372 117.083C245.716 116.819 246.124 116.623 246.596 116.495C247.076 116.359 247.572 116.291 248.084 116.291C249.012 116.291 249.728 116.515 250.232 116.963C250.744 117.403 251 118.087 251 119.015V122.771H249.584ZM247.568 122.855C247.088 122.855 246.668 122.775 246.308 122.615C245.948 122.447 245.668 122.219 245.468 121.931C245.276 121.635 245.18 121.303 245.18 120.935C245.18 120.575 245.264 120.251 245.432 119.963C245.608 119.675 245.892 119.447 246.284 119.279C246.676 119.111 247.196 119.027 247.844 119.027H249.704V120.023H247.952C247.44 120.023 247.096 120.107 246.92 120.275C246.744 120.435 246.656 120.635 246.656 120.875C246.656 121.147 246.764 121.363 246.98 121.523C247.196 121.683 247.496 121.763 247.88 121.763C248.248 121.763 248.576 121.679 248.864 121.511C249.16 121.343 249.372 121.095 249.5 120.767L249.752 121.667C249.608 122.043 249.348 122.335 248.972 122.543C248.604 122.751 248.136 122.855 247.568 122.855ZM255.877 122.855C255.205 122.855 254.605 122.715 254.077 122.435C253.557 122.147 253.149 121.755 252.853 121.259C252.557 120.763 252.409 120.199 252.409 119.567C252.409 118.927 252.557 118.363 252.853 117.875C253.149 117.379 253.557 116.991 254.077 116.711C254.605 116.431 255.205 116.291 255.877 116.291C256.501 116.291 257.049 116.419 257.521 116.675C258.001 116.923 258.365 117.291 258.613 117.779L257.461 118.451C257.269 118.147 257.033 117.923 256.753 117.779C256.481 117.635 256.185 117.563 255.865 117.563C255.497 117.563 255.165 117.643 254.869 117.803C254.573 117.963 254.341 118.195 254.173 118.499C254.005 118.795 253.921 119.151 253.921 119.567C253.921 119.983 254.005 120.343 254.173 120.647C254.341 120.943 254.573 121.171 254.869 121.331C255.165 121.491 255.497 121.571 255.865 121.571C256.185 121.571 256.481 121.499 256.753 121.355C257.033 121.211 257.269 120.987 257.461 120.683L258.613 121.355C258.365 121.835 258.001 122.207 257.521 122.471C257.049 122.727 256.501 122.855 255.877 122.855ZM254.953 115.487L253.345 113.843H254.581L256.213 115.211H255.061L256.693 113.843H257.929L256.321 115.487H254.953ZM259.851 122.771V116.363H261.351V122.771H259.851ZM260.607 115.307C260.327 115.307 260.095 115.219 259.911 115.043C259.735 114.867 259.647 114.655 259.647 114.407C259.647 114.151 259.735 113.939 259.911 113.771C260.095 113.595 260.327 113.507 260.607 113.507C260.887 113.507 261.115 113.591 261.291 113.759C261.475 113.919 261.567 114.123 261.567 114.371C261.567 114.635 261.479 114.859 261.303 115.043C261.127 115.219 260.895 115.307 260.607 115.307ZM191.783 137.771V131.363H193.283V137.771H191.783ZM192.539 130.307C192.259 130.307 192.027 130.219 191.843 130.043C191.667 129.867 191.579 129.655 191.579 129.407C191.579 129.151 191.667 128.939 191.843 128.771C192.027 128.595 192.259 128.507 192.539 128.507C192.819 128.507 193.047 128.591 193.223 128.759C193.407 128.919 193.499 129.123 193.499 129.371C193.499 129.635 193.411 129.859 193.235 130.043C193.059 130.219 192.827 130.307 192.539 130.307ZM201.508 137.855C200.836 137.855 200.236 137.715 199.708 137.435C199.188 137.147 198.78 136.755 198.484 136.259C198.188 135.763 198.04 135.199 198.04 134.567C198.04 133.927 198.188 133.363 198.484 132.875C198.78 132.379 199.188 131.991 199.708 131.711C200.236 131.431 200.836 131.291 201.508 131.291C202.132 131.291 202.68 131.419 203.152 131.675C203.632 131.923 203.996 132.291 204.244 132.779L203.092 133.451C202.9 133.147 202.664 132.923 202.384 132.779C202.112 132.635 201.816 132.563 201.496 132.563C201.128 132.563 200.796 132.643 200.5 132.803C200.204 132.963 199.972 133.195 199.804 133.499C199.636 133.795 199.552 134.151 199.552 134.567C199.552 134.983 199.636 135.343 199.804 135.647C199.972 135.943 200.204 136.171 200.5 136.331C200.796 136.491 201.128 136.571 201.496 136.571C201.816 136.571 202.112 136.499 202.384 136.355C202.664 136.211 202.9 135.987 203.092 135.683L204.244 136.355C203.996 136.835 203.632 137.207 203.152 137.471C202.68 137.727 202.132 137.855 201.508 137.855ZM200.584 130.487L198.976 128.843H200.212L201.844 130.211H200.692L202.324 128.843H203.56L201.952 130.487H200.584ZM208.253 137.855C207.709 137.855 207.229 137.755 206.813 137.555C206.397 137.347 206.073 137.035 205.841 136.619C205.609 136.195 205.493 135.663 205.493 135.023V131.363H206.993V134.819C206.993 135.395 207.121 135.827 207.377 136.115C207.641 136.395 208.013 136.535 208.493 136.535C208.845 136.535 209.149 136.463 209.405 136.319C209.669 136.175 209.873 135.959 210.017 135.671C210.169 135.383 210.245 135.027 210.245 134.603V131.363H211.745V137.771H210.317V136.043L210.569 136.571C210.353 136.987 210.037 137.307 209.621 137.531C209.205 137.747 208.749 137.855 208.253 137.855ZM215.413 137.771L212.665 131.363H214.225L216.589 137.015H215.821L218.269 131.363H219.709L216.961 137.771H215.413ZM224.395 137.771V136.475L224.311 136.199V133.931C224.311 133.491 224.179 133.151 223.915 132.911C223.651 132.663 223.251 132.539 222.715 132.539C222.355 132.539 221.999 132.595 221.647 132.707C221.303 132.819 221.011 132.975 220.771 133.175L220.183 132.083C220.527 131.819 220.935 131.623 221.407 131.495C221.887 131.359 222.383 131.291 222.895 131.291C223.823 131.291 224.539 131.515 225.043 131.963C225.555 132.403 225.811 133.087 225.811 134.015V137.771H224.395ZM222.379 137.855C221.899 137.855 221.479 137.775 221.119 137.615C220.759 137.447 220.479 137.219 220.279 136.931C220.087 136.635 219.991 136.303 219.991 135.935C219.991 135.575 220.075 135.251 220.243 134.963C220.419 134.675 220.703 134.447 221.095 134.279C221.487 134.111 222.007 134.027 222.655 134.027H224.515V135.023H222.763C222.251 135.023 221.907 135.107 221.731 135.275C221.555 135.435 221.467 135.635 221.467 135.875C221.467 136.147 221.575 136.363 221.791 136.523C222.007 136.683 222.307 136.763 222.691 136.763C223.059 136.763 223.387 136.679 223.675 136.511C223.971 136.343 224.183 136.095 224.311 135.767L224.563 136.667C224.419 137.043 224.159 137.335 223.783 137.543C223.415 137.751 222.947 137.855 222.379 137.855ZM227.736 137.771V131.363H229.164V133.127L228.996 132.611C229.188 132.179 229.488 131.851 229.896 131.627C230.312 131.403 230.828 131.291 231.444 131.291V132.719C231.38 132.703 231.32 132.695 231.264 132.695C231.208 132.687 231.152 132.683 231.096 132.683C230.528 132.683 230.076 132.851 229.74 133.187C229.404 133.515 229.236 134.007 229.236 134.663V137.771H227.736ZM232.716 137.771V131.363H234.216V137.771H232.716ZM233.472 130.307C233.192 130.307 232.96 130.219 232.776 130.043C232.6 129.867 232.512 129.655 232.512 129.407C232.512 129.151 232.6 128.939 232.776 128.771C232.96 128.595 233.192 128.507 233.472 128.507C233.752 128.507 233.98 128.591 234.156 128.759C234.34 128.919 234.432 129.123 234.432 129.371C234.432 129.635 234.344 129.859 234.168 130.043C233.992 130.219 233.76 130.307 233.472 130.307Z"
        fill="#132A13" />
    <path
        d="M140.896 31.673L151.043 21.526C151.196 21.3723 151.305 21.2057 151.37 21.0264C151.434 20.847 151.465 20.6548 151.465 20.4498C151.465 20.2448 151.434 20.0527 151.37 19.8733C151.305 19.6939 151.196 19.5274 151.043 19.3736L140.896 9.22669C140.614 8.94483 140.262 8.79724 139.839 8.78391C139.416 8.77161 139.051 8.9192 138.743 9.22669C138.436 9.50855 138.275 9.86062 138.262 10.2829C138.25 10.7062 138.397 11.0716 138.705 11.3791L146.238 18.9124H113.244C112.808 18.9124 112.443 19.0595 112.148 19.3537C111.854 19.6488 111.707 20.0142 111.707 20.4498C111.707 20.8854 111.854 21.2503 112.148 21.5445C112.443 21.8397 112.808 21.9872 113.244 21.9872H146.238L138.705 29.5206C138.423 29.8024 138.275 30.1612 138.262 30.5968C138.25 31.0324 138.397 31.3911 138.705 31.673C138.987 31.9805 139.345 32.1342 139.781 32.1342C140.217 32.1342 140.588 31.9805 140.896 31.673Z"
        fill="#096832" />
    <circle cx="130.812" cy="44.0625" r="0.8125" fill="#096832" />
    <path
        d="M126.42 56.3324C126.534 56.1053 126.722 55.9425 126.962 55.862L126.966 55.861C127.075 55.8253 127.191 55.8076 127.309 55.8089L127.321 55.809C127.87 55.8214 128.427 56.2274 128.706 56.8193C128.911 57.2521 128.93 57.7157 128.758 58.0594C128.644 58.2867 128.456 58.4495 128.215 58.53L128.212 58.5309C128.103 58.5665 127.986 58.5841 127.869 58.5829C127.315 58.5776 126.753 58.1716 126.468 57.5718C126.266 57.1395 126.248 56.6763 126.42 56.3324ZM133.277 56.5041C133.035 56.7601 132.73 56.8994 132.417 56.8964C132.374 56.896 132.332 56.8929 132.289 56.887C131.638 56.7984 131.238 56.111 131.379 55.3209C131.438 54.9887 131.59 54.6803 131.806 54.4526C132.048 54.1971 132.354 54.058 132.666 54.061C132.709 54.0614 132.752 54.0645 132.794 54.0703C133.445 54.159 133.845 54.8463 133.704 55.6365C133.645 55.9681 133.493 56.2762 133.277 56.5041ZM129.986 56.8648C129.944 56.8698 129.901 56.8721 129.859 56.8717C129.546 56.8687 129.243 56.7236 129.006 56.4629C128.795 56.2309 128.649 55.9199 128.596 55.5868C128.47 54.7945 128.883 54.115 129.536 54.0386C129.579 54.0336 129.621 54.0313 129.664 54.0317C129.977 54.035 130.28 54.18 130.517 54.4401C130.728 54.672 130.874 54.9833 130.927 55.3169C131.052 56.1092 130.639 56.7888 129.986 56.8648ZM134.031 58.587L134.028 58.5861C133.789 58.5009 133.605 58.3347 133.495 58.1054C133.33 57.7578 133.358 57.2952 133.571 56.8663C133.865 56.2729 134.435 55.8776 134.988 55.883C135.106 55.884 135.222 55.9039 135.33 55.9416L135.333 55.9425C135.572 56.027 135.757 56.1939 135.866 56.4232C136.031 56.7709 136.003 57.2335 135.79 57.6623C135.496 58.2557 134.926 58.651 134.373 58.6457C134.256 58.6446 134.14 58.6247 134.031 58.587Z"
        fill="#008037" />
    <path
        d="M133.825 63.9673C133.271 63.9673 132.847 63.9021 132.554 63.7717C132.26 63.625 132.048 63.462 131.918 63.2827C131.804 63.1034 131.739 62.9404 131.722 62.7937C131.706 62.6307 131.698 62.5329 131.698 62.5003C131.698 62.4188 131.665 62.2884 131.6 62.1091C131.551 61.9135 131.388 61.8157 131.111 61.8157C130.655 61.8157 130.247 61.9543 129.889 62.2314C129.546 62.5085 129.359 62.9159 129.326 63.4538C129.294 63.9917 129.432 64.4563 129.742 64.8475C130.052 65.2386 130.663 65.4424 131.576 65.4587C132.032 65.4587 132.513 65.5239 133.018 65.6543C133.523 65.7847 133.996 65.9966 134.436 66.29C134.893 66.5671 135.251 66.9501 135.512 67.4391C135.789 67.9118 135.928 68.5067 135.928 69.2239C135.911 70.6583 135.528 71.7666 134.778 72.549C134.029 73.3314 132.782 73.7226 131.038 73.7226C129.88 73.7226 128.951 73.5841 128.25 73.307C127.55 73.0136 127.036 72.6713 126.71 72.2801C126.4 71.8889 126.237 71.5385 126.221 71.2288C126.205 70.9191 126.221 70.6175 126.27 70.3241C126.335 70.0307 126.506 69.7781 126.783 69.5662C127.077 69.3543 127.541 69.2239 128.177 69.175C128.829 69.1261 129.294 69.1832 129.571 69.3462C129.848 69.4928 130.019 69.664 130.084 69.8596C130.166 70.0552 130.206 70.1774 130.206 70.2263C130.206 70.2752 130.223 70.3975 130.255 70.5931C130.304 70.7724 130.386 70.9517 130.5 71.131C130.63 71.294 130.81 71.3755 131.038 71.3755C131.38 71.3755 131.673 71.2369 131.918 70.9598C132.162 70.6827 132.317 70.2345 132.382 69.6151C132.497 68.3926 131.885 67.7814 130.549 67.7814C130.223 67.7814 129.799 67.7325 129.277 67.6347C128.772 67.5206 128.267 67.325 127.761 67.0479C127.256 66.7545 126.832 66.347 126.49 65.8254C126.148 65.3038 125.985 64.6193 126.001 63.7717C126.017 62.9241 126.172 62.2314 126.466 61.6935C126.759 61.1393 127.142 60.7155 127.615 60.4221C128.104 60.1124 128.634 59.8924 129.204 59.762C129.791 59.6316 130.369 59.5582 130.94 59.5419C131.706 59.5256 132.439 59.6153 133.14 59.8109C133.858 60.0065 134.452 60.308 134.925 60.7155C135.414 61.1067 135.691 61.6201 135.756 62.2558C135.805 62.7285 135.732 63.0871 135.536 63.3316C135.357 63.5598 135.129 63.7228 134.852 63.8206C134.591 63.9021 134.355 63.951 134.143 63.9673C133.931 63.9673 133.825 63.9673 133.825 63.9673Z"
        fill="#008037" />
    <rect x="119.031" y="41.2188" width="23.5625" height="45.5625" rx="1.21875" stroke="#096832"
        stroke-width="2.4375" />
    <path
        d="M122.678 117.005L112.531 106.858C112.377 106.704 112.268 106.538 112.204 106.358C112.14 106.179 112.108 105.987 112.108 105.782C112.108 105.577 112.14 105.385 112.204 105.205C112.268 105.026 112.377 104.859 112.531 104.706L122.678 94.5587C122.96 94.2769 123.312 94.1293 123.734 94.1159C124.158 94.1036 124.523 94.2512 124.831 94.5587C125.138 94.8406 125.298 95.1926 125.312 95.6149C125.324 96.0382 125.176 96.4036 124.869 96.7111L117.336 104.244H150.33C150.765 104.244 151.131 104.392 151.426 104.686C151.72 104.981 151.867 105.346 151.867 105.782C151.867 106.217 151.72 106.582 151.426 106.877C151.131 107.172 150.765 107.319 150.33 107.319H117.336L124.869 114.853C125.151 115.134 125.298 115.493 125.312 115.929C125.324 116.364 125.176 116.723 124.869 117.005C124.587 117.312 124.228 117.466 123.793 117.466C123.357 117.466 122.986 117.312 122.678 117.005Z"
        fill="#096832" />
    <defs>
        <clipPath id="clip0_173_2071">
            <rect width="70.3576" height="61.606" fill="white" transform="translate(18.2041 19.1279)" />
        </clipPath>
        <clipPath id="clip1_173_2071">
            <rect width="86.2448" height="66.7262" fill="white" transform="translate(169.991 17.0225)" />
        </clipPath>
    </defs>
</svg>