<svg width="806" height="432" viewBox="0 0 806 432" fill="none" xmlns="http://www.w3.org/2000/svg">
<circle cx="155.039" cy="155.351" r="154.218" fill="#008000"/>
<g clip-path="url(#clip0_189_1572)">
<path d="M270.008 245.197H54.6582V245.71H270.008V245.197Z" fill="#3F3D56"/>
<path d="M259.129 122.905V172.401H130.411V122.905C130.388 108.976 134.906 95.4186 143.281 84.2881C148.899 76.7961 156.085 70.6205 164.336 66.1926C172.588 61.7646 181.706 59.1909 191.055 58.6512C192.282 58.5794 193.521 58.5444 194.77 58.5461C195.48 58.5461 196.189 58.5564 196.891 58.582C213.221 59.0992 228.739 65.8282 240.276 77.3959C240.625 77.7444 240.966 78.0954 241.309 78.4489C243.073 80.2961 244.726 82.2459 246.259 84.2881C254.633 95.4191 259.151 108.976 259.129 122.905Z" fill="#E6E6E6"/>
<path d="M196.89 58.5832V172.401H191.052V58.6522C192.28 58.5806 193.519 58.5452 194.767 58.5461C195.478 58.5461 196.187 58.5567 196.89 58.5832Z" fill="white"/>
<path d="M246.259 84.2859H143.281C144.813 82.2434 146.466 80.2938 148.23 78.4471H241.31C243.074 80.2938 244.726 82.2434 246.259 84.2859Z" fill="white"/>
<path d="M249.331 101.008H203.711V172.4H249.331V101.008Z" fill="white"/>
<path d="M218.567 114.056H211.667V120.956H218.567V114.056Z" fill="#E6E6E6"/>
<path d="M229.685 114.056H222.785V120.956H229.685V114.056Z" fill="#E6E6E6"/>
<path d="M240.801 114.056H233.901V120.956H240.801V114.056Z" fill="#E6E6E6"/>
<path d="M218.759 129.775H211.858V136.675H218.759V129.775Z" fill="#E6E6E6"/>
<path d="M229.875 129.775H222.974V136.675H229.875V129.775Z" fill="#E6E6E6"/>
<path d="M240.993 129.775H234.092V136.675H240.993V129.775Z" fill="#E6E6E6"/>
<path d="M218.951 145.491H212.051V152.392H218.951V145.491Z" fill="#E6E6E6"/>
<path d="M230.066 145.491H223.166V152.392H230.066V145.491Z" fill="#E6E6E6"/>
<path d="M241.184 145.491H234.283V152.392H241.184V145.491Z" fill="#E6E6E6"/>
<path d="M219.14 161.208H212.239V168.108H219.14V161.208Z" fill="#E6E6E6"/>
<path d="M230.259 161.208H223.358V168.108H230.259V161.208Z" fill="#E6E6E6"/>
<path d="M241.377 161.208H234.476V168.108H241.377V161.208Z" fill="#E6E6E6"/>
<path d="M219.14 161.208H212.239V168.108H219.14V161.208Z" fill="#E6E6E6"/>
<path d="M230.259 161.208H223.358V168.108H230.259V161.208Z" fill="#E6E6E6"/>
<path d="M241.377 161.208H234.476V168.108H241.377V161.208Z" fill="#E6E6E6"/>
<path d="M145.711 156.696C150.964 156.696 155.222 152.438 155.222 147.186C155.222 141.933 150.964 137.675 145.711 137.675C140.459 137.675 136.201 141.933 136.201 147.186C136.201 152.438 140.459 156.696 145.711 156.696Z" fill="#008000"/>
<path d="M146.202 172.397H145.274L145.564 156.691L145.738 147.183H145.764L145.93 156.691L146.022 162.1L146.033 162.625L146.202 172.397Z" fill="white"/>
<path d="M147.468 161.872L147.249 161.456L145.676 162.284L145.896 162.7L147.468 161.872Z" fill="white"/>
<path d="M173.671 147.608C181.659 147.608 188.134 141.133 188.134 133.145C188.134 125.158 181.659 118.683 173.671 118.683C165.684 118.683 159.209 125.158 159.209 133.145C159.209 141.133 165.684 147.608 173.671 147.608Z" fill="#008000"/>
<path d="M174.438 172.401H172.99L173.29 156.104L173.446 147.607L173.713 133.147H173.754L174.005 147.605L174.148 155.832L174.163 156.631L174.438 172.401Z" fill="white"/>
<path d="M176.344 155.48L176.01 154.847L173.62 156.106L173.953 156.739L176.344 155.48Z" fill="white"/>
<path d="M143.842 119.334L146.285 117.38C144.387 117.171 143.608 118.206 143.288 119.025C141.806 118.409 140.191 119.216 140.191 119.216L145.08 120.991C144.833 120.332 144.404 119.757 143.842 119.334Z" fill="#008000"/>
<path d="M169.585 103.414L172.028 101.46C170.131 101.251 169.351 102.286 169.032 103.105C167.549 102.49 165.935 103.296 165.935 103.296L170.823 105.071C170.576 104.412 170.147 103.838 169.585 103.414Z" fill="#008000"/>
<path d="M159.766 118.542L162.209 116.588C160.311 116.378 159.532 117.414 159.212 118.233C157.73 117.617 156.115 118.424 156.115 118.424L161.004 120.199C160.757 119.54 160.328 118.965 159.766 118.542Z" fill="#008000"/>
<path d="M92.0154 132.461C92.0154 132.461 97.8987 133.72 98.777 133.135C99.0402 132.97 99.3447 132.882 99.6554 132.882C99.9661 132.882 100.271 132.97 100.534 133.135C105.511 131.232 100.488 125.428 100.342 123.086C100.195 120.744 97.2676 117.523 97.2676 117.523L92.0154 132.461Z" fill="#383838"/>
<path d="M86.6795 126.989C86.6795 130.199 80.2595 137.261 80.2595 137.261L92.4575 156.2C92.4575 156.2 97.2724 136.94 94.3835 135.977C91.4945 135.014 94.7045 130.52 94.7045 130.52L86.6795 126.989Z" fill="#A0616A"/>
<path d="M72.5548 158.765L81.2217 164.222L78.9748 167.753C78.9748 167.753 77.0488 166.148 77.0488 165.827C77.0488 165.506 64.2088 159.407 62.9248 158.444C61.6408 157.481 65.8138 153.308 65.8138 153.308L72.5548 158.765Z" fill="#A0616A"/>
<path d="M107.108 158.339C107.108 158.339 98.5555 163.903 98.2345 164.545C97.9135 165.187 100.481 172.57 102.123 172.288C103.765 172.006 102.086 166.792 102.086 166.792C102.086 166.792 109.79 160.693 112.358 158.446C114.926 156.199 111.716 151.063 111.716 151.063L107.108 158.339Z" fill="#A0616A"/>
<path d="M110.497 231.436L112.434 238.465L117.04 238.273L114.669 229.511L110.497 231.436Z" fill="#A0616A"/>
<path d="M81.8645 230.028L83.4694 237.089H86.6796V230.028H81.8645Z" fill="#A0616A"/>
<path d="M92.4565 132.445C96.3567 132.445 99.5185 129.283 99.5185 125.383C99.5185 121.483 96.3567 118.321 92.4565 118.321C88.5563 118.321 85.3945 121.483 85.3945 125.383C85.3945 129.283 88.5563 132.445 92.4565 132.445Z" fill="#A0616A"/>
<path d="M82.1653 135.015C82.1653 135.015 81.2235 136.299 77.6925 137.262C74.1615 138.225 64.2106 147.534 63.8896 154.275C63.5686 161.016 72.2355 159.089 72.2355 159.089C72.2355 159.089 80.2605 160.373 80.2605 160.694C80.2605 161.015 79.9395 162.941 79.9395 162.941C74.8035 169.361 74.1615 180.275 74.1615 180.275C74.1615 180.275 70.9515 228.104 71.5935 231.956C72.2355 235.808 87.6435 233.561 87.6435 233.561L88.2855 190.547C88.2855 190.547 94.7054 229.067 95.9894 232.277C97.2734 235.487 115.57 231.314 115.57 231.314C115.57 231.314 100.483 167.435 100.483 163.262C100.483 159.089 105.298 158.126 105.298 158.126C105.298 158.126 110.434 159.089 110.755 157.164C111.076 155.238 113.002 152.349 113.002 152.349C113.002 152.349 109.15 144.003 105.619 139.509C102.088 135.015 94.3844 135.978 94.3844 135.978L90.2114 150.423L82.1653 135.015Z" fill="#CB8034"/>
<path d="M111.714 236.311C111.714 236.311 111.052 243.453 111.072 244.468C111.091 245.374 117.496 245.623 118.138 244.66C118.78 243.697 121.027 244.66 121.027 245.302C121.027 245.944 127.447 245.491 127.447 245.491C135.793 241.639 126.252 240.576 126.252 240.576C126.252 240.576 120.568 237.892 118 236.929C115.432 235.966 116.464 236.545 116.464 236.545C115.822 238.792 111.714 236.311 111.714 236.311Z" fill="#383838"/>
<path d="M80.9031 243.187C80.5821 243.508 81.5451 247.681 86.039 247.039C90.533 246.397 89.249 241.582 89.249 240.94C89.249 240.298 88.607 235.483 88.286 234.199C87.965 232.915 82.5081 235.162 82.5081 235.162C82.5081 235.162 81.2241 242.866 80.9031 243.187Z" fill="#383838"/>
<path d="M98.1364 118.842C97.8248 119.85 97.5802 120.877 97.4045 121.916C97.2581 123.087 94.4766 123.38 94.4766 123.38C94.7694 123.38 94.7694 121.624 94.7694 121.624C94.7694 122.648 93.1591 123.673 93.1591 123.673C91.6897 124.545 90.3577 125.631 89.2066 126.894C87.1571 129.089 89.7922 129.382 89.7922 129.382C89.5946 132.911 82.37 134.342 82.37 134.342C74.0258 131.414 80.3825 121.396 80.3825 121.396C86.6773 109.685 91.7684 114.816 91.7684 114.816C97.2581 114.011 98.1364 118.842 98.1364 118.842Z" fill="#383838"/>
</g>
<path d="M39.3347 361.177V359.263L49.2787 347.119L49.6087 348.197H39.4887V345.777H52.1827V347.691L42.2387 359.835L41.8867 358.757H52.4687V361.177H39.3347ZM62.0841 361.177V358.801L61.9301 358.295V354.137C61.9301 353.33 61.6881 352.707 61.2041 352.267C60.7201 351.812 59.9868 351.585 59.0041 351.585C58.3441 351.585 57.6914 351.687 57.0461 351.893C56.4154 352.098 55.8801 352.384 55.4401 352.751L54.3621 350.749C54.9928 350.265 55.7408 349.905 56.6061 349.671C57.4861 349.421 58.3954 349.297 59.3341 349.297C61.0354 349.297 62.3481 349.707 63.2721 350.529C64.2108 351.335 64.6801 352.589 64.6801 354.291V361.177H62.0841ZM58.3881 361.331C57.5081 361.331 56.7381 361.184 56.0781 360.891C55.4181 360.583 54.9048 360.165 54.5381 359.637C54.1861 359.094 54.0101 358.485 54.0101 357.811C54.0101 357.151 54.1641 356.557 54.4721 356.029C54.7948 355.501 55.3154 355.083 56.0341 354.775C56.7528 354.467 57.7061 354.313 58.8941 354.313H62.3041V356.139H59.0921C58.1534 356.139 57.5228 356.293 57.2001 356.601C56.8774 356.894 56.7161 357.261 56.7161 357.701C56.7161 358.199 56.9141 358.595 57.3101 358.889C57.7061 359.182 58.2561 359.329 58.9601 359.329C59.6348 359.329 60.2361 359.175 60.7641 358.867C61.3068 358.559 61.6954 358.104 61.9301 357.503L62.3921 359.153C62.1281 359.842 61.6514 360.377 60.9621 360.759C60.2874 361.14 59.4294 361.331 58.3881 361.331ZM73.1814 361.331C72.1841 361.331 71.3041 361.147 70.5414 360.781C69.7787 360.399 69.1847 359.827 68.7594 359.065C68.3341 358.287 68.1214 357.312 68.1214 356.139V349.429H70.8714V355.765C70.8714 356.821 71.1061 357.613 71.5754 358.141C72.0594 358.654 72.7414 358.911 73.6214 358.911C74.2667 358.911 74.8241 358.779 75.2934 358.515C75.7774 358.251 76.1514 357.855 76.4154 357.327C76.6941 356.799 76.8334 356.146 76.8334 355.369V349.429H79.5834V361.177H76.9654V358.009L77.4274 358.977C77.0314 359.739 76.4521 360.326 75.6894 360.737C74.9267 361.133 74.0907 361.331 73.1814 361.331ZM82.216 361.177V359.439L89.454 350.683L89.96 351.629H82.348V349.429H92.16V351.167L84.922 359.923L84.372 358.977H92.358V361.177H82.216ZM100.243 361.331C98.9378 361.331 97.7938 361.074 96.8111 360.561C95.8431 360.033 95.0878 359.314 94.5451 358.405C94.0171 357.495 93.7531 356.461 93.7531 355.303C93.7531 354.129 94.0098 353.095 94.5231 352.201C95.0511 351.291 95.7698 350.58 96.6791 350.067C97.6031 349.553 98.6518 349.297 99.8251 349.297C100.969 349.297 101.988 349.546 102.883 350.045C103.778 350.543 104.482 351.247 104.995 352.157C105.508 353.066 105.765 354.137 105.765 355.369C105.765 355.486 105.758 355.618 105.743 355.765C105.743 355.911 105.736 356.051 105.721 356.183H95.9311V354.357H104.269L103.191 354.929C103.206 354.254 103.066 353.66 102.773 353.147C102.48 352.633 102.076 352.23 101.563 351.937C101.064 351.643 100.485 351.497 99.8251 351.497C99.1504 351.497 98.5564 351.643 98.0431 351.937C97.5444 352.23 97.1484 352.641 96.8551 353.169C96.5764 353.682 96.4371 354.291 96.4371 354.995V355.435C96.4371 356.139 96.5984 356.762 96.9211 357.305C97.2438 357.847 97.6984 358.265 98.2851 358.559C98.8718 358.852 99.5464 358.999 100.309 358.999C100.969 358.999 101.563 358.896 102.091 358.691C102.619 358.485 103.088 358.163 103.499 357.723L104.973 359.417C104.445 360.033 103.778 360.509 102.971 360.847C102.179 361.169 101.27 361.331 100.243 361.331ZM112.829 361.331C111.538 361.331 110.541 361.001 109.837 360.341C109.133 359.666 108.781 358.676 108.781 357.371V346.833H111.531V357.305C111.531 357.862 111.67 358.295 111.949 358.603C112.242 358.911 112.645 359.065 113.159 359.065C113.775 359.065 114.288 358.903 114.699 358.581L115.469 360.539C115.146 360.803 114.75 361.001 114.281 361.133C113.811 361.265 113.327 361.331 112.829 361.331ZM106.845 351.717V349.517H114.677V351.717H106.845ZM117.731 361.177V349.429H120.481V361.177H117.731ZM119.117 347.493C118.604 347.493 118.178 347.331 117.841 347.009C117.518 346.686 117.357 346.297 117.357 345.843C117.357 345.373 117.518 344.985 117.841 344.677C118.178 344.354 118.604 344.193 119.117 344.193C119.63 344.193 120.048 344.347 120.371 344.655C120.708 344.948 120.877 345.322 120.877 345.777C120.877 346.261 120.716 346.671 120.393 347.009C120.07 347.331 119.645 347.493 119.117 347.493ZM133.294 361.177L128.256 349.429H131.116L135.45 359.791H134.042L138.53 349.429H141.17L136.132 361.177H133.294ZM142.889 361.177V344.853H145.639V361.177H142.889ZM156.486 361.177V358.801L156.332 358.295V354.137C156.332 353.33 156.09 352.707 155.606 352.267C155.122 351.812 154.389 351.585 153.406 351.585C152.746 351.585 152.094 351.687 151.448 351.893C150.818 352.098 150.282 352.384 149.842 352.751L148.764 350.749C149.395 350.265 150.143 349.905 151.008 349.671C151.888 349.421 152.798 349.297 153.736 349.297C155.438 349.297 156.75 349.707 157.674 350.529C158.613 351.335 159.082 352.589 159.082 354.291V361.177H156.486ZM152.79 361.331C151.91 361.331 151.14 361.184 150.48 360.891C149.82 360.583 149.307 360.165 148.94 359.637C148.588 359.094 148.412 358.485 148.412 357.811C148.412 357.151 148.566 356.557 148.874 356.029C149.197 355.501 149.718 355.083 150.436 354.775C151.155 354.467 152.108 354.313 153.296 354.313H156.706V356.139H153.494C152.556 356.139 151.925 356.293 151.602 356.601C151.28 356.894 151.118 357.261 151.118 357.701C151.118 358.199 151.316 358.595 151.712 358.889C152.108 359.182 152.658 359.329 153.362 359.329C154.037 359.329 154.638 359.175 155.166 358.867C155.709 358.559 156.098 358.104 156.332 357.503L156.794 359.153C156.53 359.842 156.054 360.377 155.364 360.759C154.69 361.14 153.832 361.331 152.79 361.331ZM166.242 361.331C165.259 361.331 164.313 361.206 163.404 360.957C162.509 360.693 161.798 360.377 161.27 360.011L162.326 357.921C162.854 358.258 163.484 358.537 164.218 358.757C164.951 358.977 165.684 359.087 166.418 359.087C167.283 359.087 167.906 358.969 168.288 358.735C168.684 358.5 168.882 358.185 168.882 357.789C168.882 357.466 168.75 357.224 168.486 357.063C168.222 356.887 167.877 356.755 167.452 356.667C167.026 356.579 166.55 356.498 166.022 356.425C165.508 356.351 164.988 356.256 164.46 356.139C163.946 356.007 163.477 355.823 163.052 355.589C162.626 355.339 162.282 355.009 162.018 354.599C161.754 354.188 161.622 353.645 161.622 352.971C161.622 352.223 161.834 351.577 162.26 351.035C162.685 350.477 163.279 350.052 164.042 349.759C164.819 349.451 165.736 349.297 166.792 349.297C167.584 349.297 168.383 349.385 169.19 349.561C169.996 349.737 170.664 349.986 171.192 350.309L170.136 352.399C169.578 352.061 169.014 351.834 168.442 351.717C167.884 351.585 167.327 351.519 166.77 351.519C165.934 351.519 165.31 351.643 164.9 351.893C164.504 352.142 164.306 352.457 164.306 352.839C164.306 353.191 164.438 353.455 164.702 353.631C164.966 353.807 165.31 353.946 165.736 354.049C166.161 354.151 166.63 354.239 167.144 354.313C167.672 354.371 168.192 354.467 168.706 354.599C169.219 354.731 169.688 354.914 170.114 355.149C170.554 355.369 170.906 355.684 171.17 356.095C171.434 356.505 171.566 357.041 171.566 357.701C171.566 358.434 171.346 359.072 170.906 359.615C170.48 360.157 169.872 360.583 169.08 360.891C168.288 361.184 167.342 361.331 166.242 361.331ZM180.6 349.297C181.539 349.297 182.375 349.48 183.108 349.847C183.856 350.213 184.443 350.778 184.868 351.541C185.293 352.289 185.506 353.257 185.506 354.445V361.177H182.756V354.797C182.756 353.755 182.507 352.978 182.008 352.465C181.524 351.951 180.842 351.695 179.962 351.695C179.317 351.695 178.745 351.827 178.246 352.091C177.747 352.355 177.359 352.751 177.08 353.279C176.816 353.792 176.684 354.445 176.684 355.237V361.177H173.934V349.429H176.552V352.597L176.09 351.629C176.501 350.881 177.095 350.309 177.872 349.913C178.664 349.502 179.573 349.297 180.6 349.297ZM188.995 361.177V349.429H191.745V361.177H188.995ZM190.381 347.493C189.867 347.493 189.442 347.331 189.105 347.009C188.782 346.686 188.621 346.297 188.621 345.843C188.621 345.373 188.782 344.985 189.105 344.677C189.442 344.354 189.867 344.193 190.381 344.193C190.894 344.193 191.312 344.347 191.635 344.655C191.972 344.948 192.141 345.322 192.141 345.777C192.141 346.261 191.979 346.671 191.657 347.009C191.334 347.331 190.909 347.493 190.381 347.493ZM200.744 361.331C199.512 361.331 198.412 361.074 197.444 360.561C196.491 360.033 195.743 359.314 195.2 358.405C194.657 357.495 194.386 356.461 194.386 355.303C194.386 354.129 194.657 353.095 195.2 352.201C195.743 351.291 196.491 350.58 197.444 350.067C198.412 349.553 199.512 349.297 200.744 349.297C201.888 349.297 202.893 349.531 203.758 350.001C204.638 350.455 205.305 351.13 205.76 352.025L203.648 353.257C203.296 352.699 202.863 352.289 202.35 352.025C201.851 351.761 201.309 351.629 200.722 351.629C200.047 351.629 199.439 351.775 198.896 352.069C198.353 352.362 197.928 352.787 197.62 353.345C197.312 353.887 197.158 354.54 197.158 355.303C197.158 356.065 197.312 356.725 197.62 357.283C197.928 357.825 198.353 358.243 198.896 358.537C199.439 358.83 200.047 358.977 200.722 358.977C201.309 358.977 201.851 358.845 202.35 358.581C202.863 358.317 203.296 357.906 203.648 357.349L205.76 358.581C205.305 359.461 204.638 360.143 203.758 360.627C202.893 361.096 201.888 361.331 200.744 361.331ZM208.03 361.177V349.429H210.78V361.177H208.03ZM209.416 347.493C208.902 347.493 208.477 347.331 208.14 347.009C207.817 346.686 207.656 346.297 207.656 345.843C207.656 345.373 207.817 344.985 208.14 344.677C208.477 344.354 208.902 344.193 209.416 344.193C209.929 344.193 210.347 344.347 210.67 344.655C211.007 344.948 211.176 345.322 211.176 345.777C211.176 346.261 211.014 346.671 210.692 347.009C210.369 347.331 209.944 347.493 209.416 347.493ZM226.981 361.331C226.028 361.331 225.155 361.111 224.363 360.671C223.586 360.231 222.962 359.571 222.493 358.691C222.038 357.796 221.811 356.667 221.811 355.303C221.811 353.924 222.031 352.795 222.471 351.915C222.926 351.035 223.542 350.382 224.319 349.957C225.096 349.517 225.984 349.297 226.981 349.297C228.14 349.297 229.159 349.546 230.039 350.045C230.934 350.543 231.638 351.24 232.151 352.135C232.679 353.029 232.943 354.085 232.943 355.303C232.943 356.52 232.679 357.583 232.151 358.493C231.638 359.387 230.934 360.084 230.039 360.583C229.159 361.081 228.14 361.331 226.981 361.331ZM220.469 365.445V349.429H223.087V352.201L222.999 355.325L223.219 358.449V365.445H220.469ZM226.673 358.977C227.333 358.977 227.92 358.83 228.433 358.537C228.961 358.243 229.379 357.818 229.687 357.261C229.995 356.703 230.149 356.051 230.149 355.303C230.149 354.54 229.995 353.887 229.687 353.345C229.379 352.787 228.961 352.362 228.433 352.069C227.92 351.775 227.333 351.629 226.673 351.629C226.013 351.629 225.419 351.775 224.891 352.069C224.363 352.362 223.945 352.787 223.637 353.345C223.329 353.887 223.175 354.54 223.175 355.303C223.175 356.051 223.329 356.703 223.637 357.261C223.945 357.818 224.363 358.243 224.891 358.537C225.419 358.83 226.013 358.977 226.673 358.977ZM242.639 361.177V358.801L242.485 358.295V354.137C242.485 353.33 242.243 352.707 241.759 352.267C241.275 351.812 240.541 351.585 239.559 351.585C238.899 351.585 238.246 351.687 237.601 351.893C236.97 352.098 236.435 352.384 235.995 352.751L234.917 350.749C235.547 350.265 236.295 349.905 237.161 349.671C238.041 349.421 238.95 349.297 239.889 349.297C241.59 349.297 242.903 349.707 243.827 350.529C244.765 351.335 245.235 352.589 245.235 354.291V361.177H242.639ZM238.943 361.331C238.063 361.331 237.293 361.184 236.633 360.891C235.973 360.583 235.459 360.165 235.093 359.637C234.741 359.094 234.565 358.485 234.565 357.811C234.565 357.151 234.719 356.557 235.027 356.029C235.349 355.501 235.87 355.083 236.589 354.775C237.307 354.467 238.261 354.313 239.449 354.313H242.859V356.139H239.647C238.708 356.139 238.077 356.293 237.755 356.601C237.432 356.894 237.271 357.261 237.271 357.701C237.271 358.199 237.469 358.595 237.865 358.889C238.261 359.182 238.811 359.329 239.515 359.329C240.189 359.329 240.791 359.175 241.319 358.867C241.861 358.559 242.25 358.104 242.485 357.503L242.947 359.153C242.683 359.842 242.206 360.377 241.517 360.759C240.842 361.14 239.984 361.331 238.943 361.331ZM252.394 361.331C251.411 361.331 250.465 361.206 249.556 360.957C248.661 360.693 247.95 360.377 247.422 360.011L248.478 357.921C249.006 358.258 249.637 358.537 250.37 358.757C251.103 358.977 251.837 359.087 252.57 359.087C253.435 359.087 254.059 358.969 254.44 358.735C254.836 358.5 255.034 358.185 255.034 357.789C255.034 357.466 254.902 357.224 254.638 357.063C254.374 356.887 254.029 356.755 253.604 356.667C253.179 356.579 252.702 356.498 252.174 356.425C251.661 356.351 251.14 356.256 250.612 356.139C250.099 356.007 249.629 355.823 249.204 355.589C248.779 355.339 248.434 355.009 248.17 354.599C247.906 354.188 247.774 353.645 247.774 352.971C247.774 352.223 247.987 351.577 248.412 351.035C248.837 350.477 249.431 350.052 250.194 349.759C250.971 349.451 251.888 349.297 252.944 349.297C253.736 349.297 254.535 349.385 255.342 349.561C256.149 349.737 256.816 349.986 257.344 350.309L256.288 352.399C255.731 352.061 255.166 351.834 254.594 351.717C254.037 351.585 253.479 351.519 252.922 351.519C252.086 351.519 251.463 351.643 251.052 351.893C250.656 352.142 250.458 352.457 250.458 352.839C250.458 353.191 250.59 353.455 250.854 353.631C251.118 353.807 251.463 353.946 251.888 354.049C252.313 354.151 252.783 354.239 253.296 354.313C253.824 354.371 254.345 354.467 254.858 354.599C255.371 354.731 255.841 354.914 256.266 355.149C256.706 355.369 257.058 355.684 257.322 356.095C257.586 356.505 257.718 357.041 257.718 357.701C257.718 358.434 257.498 359.072 257.058 359.615C256.633 360.157 256.024 360.583 255.232 360.891C254.44 361.184 253.494 361.331 252.394 361.331ZM267.324 361.177V358.801L267.17 358.295V354.137C267.17 353.33 266.928 352.707 266.444 352.267C265.96 351.812 265.227 351.585 264.244 351.585C263.584 351.585 262.932 351.687 262.286 351.893C261.656 352.098 261.12 352.384 260.68 352.751L259.602 350.749C260.233 350.265 260.981 349.905 261.846 349.671C262.726 349.421 263.636 349.297 264.574 349.297C266.276 349.297 267.588 349.707 268.512 350.529C269.451 351.335 269.92 352.589 269.92 354.291V361.177H267.324ZM263.628 361.331C262.748 361.331 261.978 361.184 261.318 360.891C260.658 360.583 260.145 360.165 259.778 359.637C259.426 359.094 259.25 358.485 259.25 357.811C259.25 357.151 259.404 356.557 259.712 356.029C260.035 355.501 260.556 355.083 261.274 354.775C261.993 354.467 262.946 354.313 264.134 354.313H267.544V356.139H264.332C263.394 356.139 262.763 356.293 262.44 356.601C262.118 356.894 261.956 357.261 261.956 357.701C261.956 358.199 262.154 358.595 262.55 358.889C262.946 359.182 263.496 359.329 264.2 359.329C264.875 359.329 265.476 359.175 266.004 358.867C266.547 358.559 266.936 358.104 267.17 357.503L267.632 359.153C267.368 359.842 266.892 360.377 266.202 360.759C265.528 361.14 264.67 361.331 263.628 361.331Z" fill="#132A13"/>
<circle cx="650.886" cy="154.218" r="154.218" fill="#008000"/>
<g clip-path="url(#clip1_189_1572)">
<g style="mix-blend-mode:luminosity">
<path d="M783.22 223.177C783.22 223.416 783.028 223.607 782.79 223.607H519.674C519.435 223.607 519.244 223.416 519.244 223.177C519.244 223.061 519.287 222.96 519.359 222.883H551.773C552.463 222.883 553.139 222.837 553.804 222.746H782.79C783.028 222.746 783.22 222.938 783.22 223.177Z" fill="#EFB376"/>
<path d="M572.922 151.618H546.323V217.305H572.922V151.618Z" fill="#E6E6E6"/>
<path d="M560.389 170.598C560.389 177.249 555.006 182.641 548.365 182.641C541.724 182.641 536.341 177.249 536.341 170.598C536.341 163.947 541.724 158.556 548.365 158.556C555.006 158.556 560.389 163.947 560.389 170.598Z" fill="#E6E6E6"/>
<path d="M537.251 174.026C539.102 174.026 540.603 172.522 540.603 170.668C540.603 168.814 539.102 167.311 537.251 167.311C535.4 167.311 533.899 168.814 533.899 170.668C533.899 172.522 535.4 174.026 537.251 174.026Z" fill="#E6E6E6"/>
<path d="M581.522 170.521C581.522 174.391 578.39 177.528 574.526 177.528C570.662 177.528 567.53 174.391 567.53 170.521C567.53 166.652 570.662 163.515 574.526 163.515C578.39 163.515 581.522 166.652 581.522 170.521Z" fill="#E6E6E6"/>
<path d="M581.521 173.879C583.372 173.879 584.873 172.376 584.873 170.522C584.873 168.668 583.372 167.164 581.521 167.164C579.669 167.164 578.168 168.668 578.168 170.522C578.168 172.376 579.669 173.879 581.521 173.879Z" fill="#E6E6E6"/>
<path d="M559.951 131.255C561.803 131.255 563.303 129.752 563.303 127.898C563.303 126.044 561.803 124.541 559.951 124.541C558.1 124.541 556.599 126.044 556.599 127.898C556.599 129.752 558.1 131.255 559.951 131.255Z" fill="#E6E6E6"/>
<path d="M543.772 146.585H576.71C578.401 146.585 579.771 147.958 579.771 149.651C579.771 151.343 578.401 152.715 576.71 152.715H543.772C542.081 152.715 540.711 151.343 540.711 149.651C540.711 147.958 542.081 146.585 543.772 146.585Z" fill="#E6E6E6"/>
<path d="M560.243 131.254H560.243C567.242 131.254 572.923 136.944 572.923 143.953V148.479H547.563V143.953C547.563 136.944 553.245 131.254 560.243 131.254Z" fill="#E6E6E6"/>
<path d="M580.099 216.212H539.145V222.781H580.099V216.212Z" fill="#E6E6E6"/>
<path d="M594.469 182.832C597.708 184.789 598.029 185.713 599.991 186.519C600.984 186.928 602.844 187.489 606.433 186.98C611.378 186.279 614.427 184.278 622.998 179.606C629.112 176.275 632.1 174.817 636.343 174.076C639.521 173.521 641.369 173.723 642.784 174.076C647.725 175.308 650.422 179.124 651.067 180.068C653.3 183.328 653.582 186.511 653.828 189.285C654.138 192.777 654.586 197.823 651.987 201.728C648.731 206.619 644.197 204.451 636.343 209.101C627.661 214.241 629.113 219.308 622.078 222.005C613.076 225.455 603.276 220.002 602.752 219.701C593.432 214.347 591.525 204.633 586.647 205.414C583.732 205.881 583.442 209.504 578.824 210.484C577.96 210.667 574.404 211.421 571.922 209.101C570.397 207.676 570.444 210.867 571.232 208.871C572.243 206.308 574.283 201.307 575.603 198.501C576.308 197.003 575.513 196.54 576.063 192.511C576.332 190.542 576.467 189.549 576.983 188.363C578.262 185.425 580.746 183.907 582.505 182.832C584.646 181.524 586.75 180.239 589.408 180.528C590.928 180.693 592.109 181.407 594.469 182.832Z" fill="#EFB376"/>
<path d="M650.608 193.893C651.424 194.563 651.618 195.92 651.988 198.501C652.33 200.89 652.122 202.354 651.988 204.954C651.787 208.854 652.104 208.492 651.988 213.709C651.893 218.003 651.845 220.15 651.528 222.005C650.958 225.34 650.654 224.058 647.847 232.604C647.277 234.338 646.824 235.81 645.546 236.291C643.946 236.894 642.101 235.547 641.865 235.369C641.477 235.078 640.11 234.052 640.024 232.604C639.916 230.766 641.993 230.301 643.705 227.535C644.775 225.808 645.032 224.079 645.546 220.622C646.035 217.334 646.28 215.69 645.546 214.17C644.208 211.397 641.146 210.537 640.945 210.483C639.112 209.998 638.52 210.685 636.343 210.483C634.306 210.295 630.952 209.335 630.361 207.718C628.741 203.287 646.708 190.693 650.608 193.893Z" fill="#EFB376"/>
<path d="M643.246 187.439C644.062 188.109 644.257 189.466 644.626 192.048C644.969 194.436 644.76 195.901 644.626 198.5C644.425 202.401 644.742 202.038 644.626 207.256C644.531 211.549 644.483 213.697 644.166 215.551C643.596 218.887 643.292 217.606 640.485 226.151C639.916 227.885 639.462 229.357 638.184 229.838C636.584 230.441 634.74 229.093 634.503 228.916C634.115 228.625 632.748 227.599 632.662 226.151C632.553 224.313 634.631 223.847 636.344 221.082C637.413 219.355 637.67 217.626 638.184 214.169C638.673 210.881 638.917 209.237 638.184 207.717C636.846 204.943 633.784 204.083 633.583 204.03C631.75 203.545 631.158 204.232 628.981 204.03C626.945 203.841 623.59 202.881 622.999 201.265C621.38 196.834 639.347 184.24 643.246 187.439Z" fill="#EFB376"/>
<path d="M629.442 210.02C629.96 210.811 630.554 212.852 631.743 216.933C632.273 218.753 635.705 230.727 636.805 234.446C637.121 235.514 637.531 236.848 638.645 238.132C639.584 239.212 640.085 239.179 640.486 239.976C641.53 242.049 639.493 244.975 639.106 245.506C638.655 246.124 636.562 248.997 633.584 248.732C633.273 248.704 631.26 248.525 630.823 247.349C630.152 245.547 634.095 243.856 634.044 240.897C634.014 239.15 632.616 238.426 630.823 236.288C626.976 231.704 628.617 229.321 625.761 225.689C621.49 220.257 613.551 220.157 612.417 220.159C609.478 220.163 605.387 220.169 602.754 222.924C599.083 226.764 600.6 233.483 599.073 243.662C599.073 243.662 598.825 245.313 598.153 247.81C597.043 251.931 596.157 252.995 595.852 253.34C595.437 253.809 594.225 255.143 592.171 255.645C591.887 255.714 590.579 256.014 588.95 255.645C587.868 255.4 586.882 255.176 586.189 254.262C585.523 253.385 585.271 252.064 585.728 251.036C586.282 249.792 587.424 249.994 588.95 248.732C590.026 247.841 590.588 246.602 591.71 244.123C592.208 243.026 592.952 241.362 593.551 239.054C594.244 236.382 594.329 234.318 594.472 230.298C594.591 226.911 594.533 224.096 594.472 221.081C594.399 217.57 594.301 216.424 594.472 214.168C594.65 211.801 594.824 209.497 595.391 208.176C598.448 201.074 622.697 199.717 629.442 210.02Z" fill="#EFB376"/>
<path d="M648.766 178.683C650.733 177.594 651.014 175.045 651.527 170.388C651.901 166.996 652.123 164.976 651.067 162.554C649.641 159.285 646.964 157.758 646.465 157.484C645.921 157.185 642.346 155.286 638.643 156.563C638.126 156.741 636.757 157.759 634.042 159.788C630.8 162.211 630.324 162.673 629.9 163.476C628.764 165.624 628.885 168.529 629.9 169.006C630.671 169.368 632.004 168.351 632.661 167.623C633.446 166.752 633.328 166.226 634.042 165.319C634.607 164.6 635.138 164.349 636.802 163.476C640.923 161.31 641.131 161.023 641.864 161.171C643.689 161.541 644.56 163.764 644.625 163.936C645.182 165.418 644.8 166.765 644.164 169.006C643.828 170.191 643.447 171.106 642.784 172.692C641.584 175.566 641.269 175.781 641.404 176.379C641.846 178.342 646.169 180.122 648.766 178.683Z" fill="#EFB376"/>
<path d="M601.602 186.748C602.363 186.874 602.732 191.231 601.602 195.044C600.829 197.651 599.271 200.291 598.992 200.757C598.773 201.123 598.562 201.458 597.921 202.418C594.782 207.111 593.196 209.455 592.399 209.33C591.335 209.164 594.246 206.645 594.47 204.236C594.884 199.758 596.892 199.204 600.452 192.714C602.377 189.203 601.008 186.65 601.602 186.748Z" fill="#F7F3E0"/>
<path d="M585.497 185.365C585.112 183.404 587.299 180.681 589.638 180.295C593.049 179.734 596.009 184.271 597.001 187.208C598.364 191.247 596.833 194.719 596.08 196.425C595.137 198.565 594.431 198.705 594.24 198.73C592.848 198.904 591.197 196.35 590.559 194.121C589.997 192.159 590.63 191.891 590.098 190.434C589.003 187.434 585.907 187.457 585.497 185.365Z" fill="#CB8034"/>
<path d="M600.923 195.195L692.232 135.514L690.885 135.209L599.577 194.889L600.923 195.195Z" fill="#F7F3E0"/>
<path d="M714.263 81.064L712.263 73.7202L721.262 70.3821L722.262 77.0583L714.263 81.064Z" fill="#A0616A"/>
<path opacity="0.1" d="M714.263 81.0647L712.263 73.7209L717.562 71.4821L715.916 80.1397L714.263 81.0647Z" fill="#0F2E1C"/>
<path d="M687.918 144.006C686.2 142.982 686.109 139.958 687.715 137.253C688.419 136.069 689.331 135.142 690.279 134.56L691.223 133.016L703.162 111.581C703.162 111.581 708.388 91.3641 710.515 88.9198C712.642 86.4755 715.719 87.0514 715.719 87.0514L718.448 89.4787L708.709 118.112L696.691 135.062L695.08 137.421C695.022 138.533 694.644 139.778 693.94 140.962C692.333 143.668 689.637 145.03 687.918 144.006Z" fill="#A0616A"/>
<path d="M713.771 78.9709C713.771 78.9709 717.568 78.8238 719.964 81.7781C722.36 84.7324 709.809 118.03 709.809 118.03L699.585 117.667L713.771 78.9709Z" fill="#F7F3E0"/>
<path d="M714.76 74.8925C719.914 74.8925 724.093 70.7078 724.093 65.5458C724.093 60.3838 719.914 56.1991 714.76 56.1991C709.606 56.1991 705.428 60.3838 705.428 65.5458C705.428 70.7078 709.606 74.8925 714.76 74.8925Z" fill="#A0616A"/>
<path d="M692.93 201.238L686.598 216.927L682.931 213.255L681.598 206.245L686.931 199.569L692.93 201.238Z" fill="#A0616A"/>
<path d="M752.258 195.566L758.59 202.911L755.591 208.919L748.925 207.918L745.592 198.571L752.258 195.566Z" fill="#A0616A"/>
<path d="M710.095 107.94L709.262 121.459L729.926 117.787L728.593 109.442L710.095 107.94Z" fill="#A0616A"/>
<path d="M709.094 121.625L729.925 114.781C729.925 114.781 737.591 130.137 729.258 139.817C720.926 149.498 693.262 204.576 693.262 204.576L684.93 200.57L696.929 165.521L710.26 133.141L709.094 121.625Z" fill="#383838"/>
<path d="M729.26 134.141L737.259 169.192L753.924 196.23L745.258 201.237L721.928 169.192L714.261 144.49L729.26 134.141Z" fill="#383838"/>
<path d="M678.599 204.913H672.827C672.827 204.913 666.092 202.243 664.513 204.913C662.934 207.584 671.556 215.158 671.556 215.158C671.556 215.158 683.599 221.938 685.266 221.604C686.932 221.27 687.598 217.264 687.598 217.264L689.598 212.591L686.599 213.593C686.599 213.593 682.599 211.256 683.599 207.25L678.599 204.913Z" fill="#383838"/>
<path d="M757.259 203.908V200.57L761.133 203.908C761.133 203.908 767.59 206.245 762.591 211.252C757.591 216.259 751.259 221.6 751.259 221.6C751.259 221.6 741.26 224.27 740.593 221.267C739.926 218.262 740.593 217.046 740.593 217.046L744.26 215.258L747.593 206.579L752.925 207.247L757.258 203.908H757.259Z" fill="#383838"/>
<path d="M717.594 67.3812L714.595 67.0473L709.095 61.5395C709.095 61.5395 704.095 64.21 704.095 62.2071C704.095 52.8604 709.762 53.1943 714.428 52.5266C719.094 51.859 718.594 51.6921 720.094 54.1957C720.779 55.3407 723.26 56.0316 723.26 56.0316C723.26 56.0316 727.926 49.6893 730.259 57.3669C732.592 65.0445 729.593 88.745 731.926 90.7479C734.259 92.7507 722.346 94.7506 723.636 86.9076C724.926 79.0645 727.26 67.0473 725.926 64.3769C724.593 61.7064 724.26 62.3741 724.26 62.3741C725.912 61.6984 726.992 73.5986 720.762 74.1813L720.594 68.3826C720.594 68.3826 719.593 65.3783 717.594 67.3812Z" fill="#383838"/>
<path d="M713.429 78.8954L723.427 74.8896L736.759 114.947L709.329 113.946L706.859 101.99C706.859 101.99 704.448 95.7678 706.447 92.0959C708.447 88.424 713.429 78.8953 713.429 78.8953V78.8954Z" fill="#F7F3E0"/>
<path d="M739.448 145.996C737.456 146.168 735.622 143.764 735.353 140.628C735.235 139.255 735.437 137.97 735.868 136.944L735.736 135.138L732.958 110.751C732.958 110.751 727.788 90.8027 728.094 87.5744C728.4 84.3462 728.883 83.4891 728.883 83.4891L732.513 83.8681L741.268 112.819L741.37 133.608L741.435 136.464C742.034 137.402 742.452 138.635 742.569 140.007C742.838 143.144 741.441 145.825 739.448 145.996Z" fill="#A0616A"/>
<path d="M722.593 78.0645C722.593 78.0645 725.592 75.7279 729.259 76.7293C732.925 77.7307 742.109 112.113 742.109 112.113L733.592 117.788L722.593 78.0645Z" fill="#F7F3E0"/>
</g>
</g>
<path d="M518.762 360.044V344.644H521.116L530.774 356.502H529.608V344.644H532.446V360.044H530.092L520.434 348.186H521.6V360.044H518.762ZM541.831 360.198C540.526 360.198 539.382 359.941 538.399 359.428C537.431 358.9 536.676 358.181 536.133 357.272C535.605 356.362 535.341 355.328 535.341 354.17C535.341 352.996 535.598 351.962 536.111 351.068C536.639 350.158 537.358 349.447 538.267 348.934C539.191 348.42 540.24 348.164 541.413 348.164C542.557 348.164 543.576 348.413 544.471 348.912C545.366 349.41 546.07 350.114 546.583 351.024C547.096 351.933 547.353 353.004 547.353 354.236C547.353 354.353 547.346 354.485 547.331 354.632C547.331 354.778 547.324 354.918 547.309 355.05H537.519V353.224H545.857L544.779 353.796C544.794 353.121 544.654 352.527 544.361 352.014C544.068 351.5 543.664 351.097 543.151 350.804C542.652 350.51 542.073 350.364 541.413 350.364C540.738 350.364 540.144 350.51 539.631 350.804C539.132 351.097 538.736 351.508 538.443 352.036C538.164 352.549 538.025 353.158 538.025 353.862V354.302C538.025 355.006 538.186 355.629 538.509 356.172C538.832 356.714 539.286 357.132 539.873 357.426C540.46 357.719 541.134 357.866 541.897 357.866C542.557 357.866 543.151 357.763 543.679 357.558C544.207 357.352 544.676 357.03 545.087 356.59L546.561 358.284C546.033 358.9 545.366 359.376 544.559 359.714C543.767 360.036 542.858 360.198 541.831 360.198ZM548.919 360.044V358.306L556.157 349.55L556.663 350.496H549.051V348.296H558.863V350.034L551.625 358.79L551.075 357.844H559.061V360.044H548.919ZM568.834 360.044V357.668L568.68 357.162V353.004C568.68 352.197 568.438 351.574 567.954 351.134C567.47 350.679 566.737 350.452 565.754 350.452C565.094 350.452 564.441 350.554 563.796 350.76C563.165 350.965 562.63 351.251 562.19 351.618L561.112 349.616C561.743 349.132 562.491 348.772 563.356 348.538C564.236 348.288 565.145 348.164 566.084 348.164C567.785 348.164 569.098 348.574 570.022 349.396C570.961 350.202 571.43 351.456 571.43 353.158V360.044H568.834ZM565.138 360.198C564.258 360.198 563.488 360.051 562.828 359.758C562.168 359.45 561.655 359.032 561.288 358.504C560.936 357.961 560.76 357.352 560.76 356.678C560.76 356.018 560.914 355.424 561.222 354.896C561.545 354.368 562.065 353.95 562.784 353.642C563.503 353.334 564.456 353.18 565.644 353.18H569.054V355.006H565.842C564.903 355.006 564.273 355.16 563.95 355.468C563.627 355.761 563.466 356.128 563.466 356.568C563.466 357.066 563.664 357.462 564.06 357.756C564.456 358.049 565.006 358.196 565.71 358.196C566.385 358.196 566.986 358.042 567.514 357.734C568.057 357.426 568.445 356.971 568.68 356.37L569.142 358.02C568.878 358.709 568.401 359.244 567.712 359.626C567.037 360.007 566.179 360.198 565.138 360.198ZM577.869 360.044L572.831 348.296H575.691L580.025 358.658H578.617L583.105 348.296H585.745L580.707 360.044H577.869ZM587.463 360.044V348.296H590.213V360.044H587.463ZM588.849 346.36C588.336 346.36 587.911 346.198 587.573 345.876C587.251 345.553 587.089 345.164 587.089 344.71C587.089 344.24 587.251 343.852 587.573 343.544C587.911 343.221 588.336 343.06 588.849 343.06C589.363 343.06 589.781 343.214 590.103 343.522C590.441 343.815 590.609 344.189 590.609 344.644C590.609 345.128 590.448 345.538 590.125 345.876C589.803 346.198 589.377 346.36 588.849 346.36ZM597.453 360.198C596.47 360.198 595.524 360.073 594.615 359.824C593.72 359.56 593.009 359.244 592.481 358.878L593.537 356.788C594.065 357.125 594.695 357.404 595.429 357.624C596.162 357.844 596.895 357.954 597.629 357.954C598.494 357.954 599.117 357.836 599.499 357.602C599.895 357.367 600.093 357.052 600.093 356.656C600.093 356.333 599.961 356.091 599.697 355.93C599.433 355.754 599.088 355.622 598.663 355.534C598.237 355.446 597.761 355.365 597.233 355.292C596.719 355.218 596.199 355.123 595.671 355.006C595.157 354.874 594.688 354.69 594.263 354.456C593.837 354.206 593.493 353.876 593.229 353.466C592.965 353.055 592.833 352.512 592.833 351.838C592.833 351.09 593.045 350.444 593.471 349.902C593.896 349.344 594.49 348.919 595.253 348.626C596.03 348.318 596.947 348.164 598.003 348.164C598.795 348.164 599.594 348.252 600.401 348.428C601.207 348.604 601.875 348.853 602.403 349.176L601.347 351.266C600.789 350.928 600.225 350.701 599.653 350.584C599.095 350.452 598.538 350.386 597.981 350.386C597.145 350.386 596.521 350.51 596.111 350.76C595.715 351.009 595.517 351.324 595.517 351.706C595.517 352.058 595.649 352.322 595.913 352.498C596.177 352.674 596.521 352.813 596.947 352.916C597.372 353.018 597.841 353.106 598.355 353.18C598.883 353.238 599.403 353.334 599.917 353.466C600.43 353.598 600.899 353.781 601.325 354.016C601.765 354.236 602.117 354.551 602.381 354.962C602.645 355.372 602.777 355.908 602.777 356.568C602.777 357.301 602.557 357.939 602.117 358.482C601.691 359.024 601.083 359.45 600.291 359.758C599.499 360.051 598.553 360.198 597.453 360.198ZM611.811 348.164C612.75 348.164 613.586 348.347 614.319 348.714C615.067 349.08 615.654 349.645 616.079 350.408C616.504 351.156 616.717 352.124 616.717 353.312V360.044H613.967V353.664C613.967 352.622 613.718 351.845 613.219 351.332C612.735 350.818 612.053 350.562 611.173 350.562C610.528 350.562 609.956 350.694 609.457 350.958C608.958 351.222 608.57 351.618 608.291 352.146C608.027 352.659 607.895 353.312 607.895 354.104V360.044H605.145V348.296H607.763V351.464L607.301 350.496C607.712 349.748 608.306 349.176 609.083 348.78C609.875 348.369 610.784 348.164 611.811 348.164ZM620.205 360.044V348.296H622.955V360.044H620.205ZM621.591 346.36C621.078 346.36 620.653 346.198 620.315 345.876C619.993 345.553 619.831 345.164 619.831 344.71C619.831 344.24 619.993 343.852 620.315 343.544C620.653 343.221 621.078 343.06 621.591 343.06C622.105 343.06 622.523 343.214 622.845 343.522C623.183 343.815 623.351 344.189 623.351 344.644C623.351 345.128 623.19 345.538 622.867 345.876C622.545 346.198 622.119 346.36 621.591 346.36ZM636.275 360.198C635.292 360.198 634.346 360.073 633.437 359.824C632.542 359.56 631.831 359.244 631.303 358.878L632.359 356.788C632.887 357.125 633.518 357.404 634.251 357.624C634.984 357.844 635.718 357.954 636.451 357.954C637.316 357.954 637.94 357.836 638.321 357.602C638.717 357.367 638.915 357.052 638.915 356.656C638.915 356.333 638.783 356.091 638.519 355.93C638.255 355.754 637.91 355.622 637.485 355.534C637.06 355.446 636.583 355.365 636.055 355.292C635.542 355.218 635.021 355.123 634.493 355.006C633.98 354.874 633.51 354.69 633.085 354.456C632.66 354.206 632.315 353.876 632.051 353.466C631.787 353.055 631.655 352.512 631.655 351.838C631.655 351.09 631.868 350.444 632.293 349.902C632.718 349.344 633.312 348.919 634.075 348.626C634.852 348.318 635.769 348.164 636.825 348.164C637.617 348.164 638.416 348.252 639.223 348.428C640.03 348.604 640.697 348.853 641.225 349.176L640.169 351.266C639.612 350.928 639.047 350.701 638.475 350.584C637.918 350.452 637.36 350.386 636.803 350.386C635.967 350.386 635.344 350.51 634.933 350.76C634.537 351.009 634.339 351.324 634.339 351.706C634.339 352.058 634.471 352.322 634.735 352.498C634.999 352.674 635.344 352.813 635.769 352.916C636.194 353.018 636.664 353.106 637.177 353.18C637.705 353.238 638.226 353.334 638.739 353.466C639.252 353.598 639.722 353.781 640.147 354.016C640.587 354.236 640.939 354.551 641.203 354.962C641.467 355.372 641.599 355.908 641.599 356.568C641.599 357.301 641.379 357.939 640.939 358.482C640.514 359.024 639.905 359.45 639.113 359.758C638.321 360.051 637.375 360.198 636.275 360.198ZM635.175 346.69L632.227 343.676H634.493L637.485 346.184H635.373L638.365 343.676H640.631L637.683 346.69H635.175ZM649.489 360.198C648.184 360.198 647.04 359.941 646.057 359.428C645.089 358.9 644.334 358.181 643.791 357.272C643.263 356.362 642.999 355.328 642.999 354.17C642.999 352.996 643.256 351.962 643.769 351.068C644.297 350.158 645.016 349.447 645.925 348.934C646.849 348.42 647.898 348.164 649.071 348.164C650.215 348.164 651.235 348.413 652.129 348.912C653.024 349.41 653.728 350.114 654.241 351.024C654.755 351.933 655.011 353.004 655.011 354.236C655.011 354.353 655.004 354.485 654.989 354.632C654.989 354.778 654.982 354.918 654.967 355.05H645.177V353.224H653.515L652.437 353.796C652.452 353.121 652.313 352.527 652.019 352.014C651.726 351.5 651.323 351.097 650.809 350.804C650.311 350.51 649.731 350.364 649.071 350.364C648.397 350.364 647.803 350.51 647.289 350.804C646.791 351.097 646.395 351.508 646.101 352.036C645.823 352.549 645.683 353.158 645.683 353.862V354.302C645.683 355.006 645.845 355.629 646.167 356.172C646.49 356.714 646.945 357.132 647.531 357.426C648.118 357.719 648.793 357.866 649.555 357.866C650.215 357.866 650.809 357.763 651.337 357.558C651.865 357.352 652.335 357.03 652.745 356.59L654.219 358.284C653.691 358.9 653.024 359.376 652.217 359.714C651.425 360.036 650.516 360.198 649.489 360.198ZM662.075 360.198C660.784 360.198 659.787 359.868 659.083 359.208C658.379 358.533 658.027 357.543 658.027 356.238V345.7H660.777V356.172C660.777 356.729 660.916 357.162 661.195 357.47C661.488 357.778 661.891 357.932 662.405 357.932C663.021 357.932 663.534 357.77 663.945 357.448L664.715 359.406C664.392 359.67 663.996 359.868 663.527 360C663.057 360.132 662.573 360.198 662.075 360.198ZM656.091 350.584V348.384H663.923V350.584H656.091ZM674.215 360.044V357.668L674.061 357.162V353.004C674.061 352.197 673.819 351.574 673.335 351.134C672.851 350.679 672.118 350.452 671.135 350.452C670.475 350.452 669.822 350.554 669.177 350.76C668.546 350.965 668.011 351.251 667.571 351.618L666.493 349.616C667.124 349.132 667.872 348.772 668.737 348.538C669.617 348.288 670.526 348.164 671.465 348.164C673.166 348.164 674.479 348.574 675.403 349.396C676.342 350.202 676.811 351.456 676.811 353.158V360.044H674.215ZM670.519 360.198C669.639 360.198 668.869 360.051 668.209 359.758C667.549 359.45 667.036 359.032 666.669 358.504C666.317 357.961 666.141 357.352 666.141 356.678C666.141 356.018 666.295 355.424 666.603 354.896C666.926 354.368 667.446 353.95 668.165 353.642C668.884 353.334 669.837 353.18 671.025 353.18H674.435V355.006H671.223C670.284 355.006 669.654 355.16 669.331 355.468C669.008 355.761 668.847 356.128 668.847 356.568C668.847 357.066 669.045 357.462 669.441 357.756C669.837 358.049 670.387 358.196 671.091 358.196C671.766 358.196 672.367 358.042 672.895 357.734C673.438 357.426 673.826 356.971 674.061 356.37L674.523 358.02C674.259 358.709 673.782 359.244 673.093 359.626C672.418 360.007 671.56 360.198 670.519 360.198ZM685.752 360.198C684.52 360.198 683.42 359.941 682.452 359.428C681.498 358.9 680.75 358.181 680.208 357.272C679.665 356.362 679.394 355.328 679.394 354.17C679.394 352.996 679.665 351.962 680.208 351.068C680.75 350.158 681.498 349.447 682.452 348.934C683.42 348.42 684.52 348.164 685.752 348.164C686.896 348.164 687.9 348.398 688.766 348.868C689.646 349.322 690.313 349.997 690.768 350.892L688.656 352.124C688.304 351.566 687.871 351.156 687.358 350.892C686.859 350.628 686.316 350.496 685.73 350.496C685.055 350.496 684.446 350.642 683.904 350.936C683.361 351.229 682.936 351.654 682.628 352.212C682.32 352.754 682.166 353.407 682.166 354.17C682.166 354.932 682.32 355.592 682.628 356.15C682.936 356.692 683.361 357.11 683.904 357.404C684.446 357.697 685.055 357.844 685.73 357.844C686.316 357.844 686.859 357.712 687.358 357.448C687.871 357.184 688.304 356.773 688.656 356.216L690.768 357.448C690.313 358.328 689.646 359.01 688.766 359.494C687.9 359.963 686.896 360.198 685.752 360.198ZM684.058 346.69L681.11 343.676H683.376L686.368 346.184H684.256L687.248 343.676H689.514L686.566 346.69H684.058ZM693.038 360.044V348.296H695.788V360.044H693.038ZM694.424 346.36C693.91 346.36 693.485 346.198 693.148 345.876C692.825 345.553 692.664 345.164 692.664 344.71C692.664 344.24 692.825 343.852 693.148 343.544C693.485 343.221 693.91 343.06 694.424 343.06C694.937 343.06 695.355 343.214 695.678 343.522C696.015 343.815 696.184 344.189 696.184 344.644C696.184 345.128 696.022 345.538 695.7 345.876C695.377 346.198 694.952 346.36 694.424 346.36ZM705.477 360.044V348.296H708.227V360.044H705.477ZM706.863 346.36C706.35 346.36 705.924 346.198 705.587 345.876C705.264 345.553 705.103 345.164 705.103 344.71C705.103 344.24 705.264 343.852 705.587 343.544C705.924 343.221 706.35 343.06 706.863 343.06C707.376 343.06 707.794 343.214 708.117 343.522C708.454 343.815 708.623 344.189 708.623 344.644C708.623 345.128 708.462 345.538 708.139 345.876C707.816 346.198 707.391 346.36 706.863 346.36ZM723.306 360.198C722.074 360.198 720.974 359.941 720.006 359.428C719.053 358.9 718.305 358.181 717.762 357.272C717.22 356.362 716.948 355.328 716.948 354.17C716.948 352.996 717.22 351.962 717.762 351.068C718.305 350.158 719.053 349.447 720.006 348.934C720.974 348.42 722.074 348.164 723.306 348.164C724.45 348.164 725.455 348.398 726.32 348.868C727.2 349.322 727.868 349.997 728.322 350.892L726.21 352.124C725.858 351.566 725.426 351.156 724.912 350.892C724.414 350.628 723.871 350.496 723.284 350.496C722.61 350.496 722.001 350.642 721.458 350.936C720.916 351.229 720.49 351.654 720.182 352.212C719.874 352.754 719.72 353.407 719.72 354.17C719.72 354.932 719.874 355.592 720.182 356.15C720.49 356.692 720.916 357.11 721.458 357.404C722.001 357.697 722.61 357.844 723.284 357.844C723.871 357.844 724.414 357.712 724.912 357.448C725.426 357.184 725.858 356.773 726.21 356.216L728.322 357.448C727.868 358.328 727.2 359.01 726.32 359.494C725.455 359.963 724.45 360.198 723.306 360.198ZM721.612 346.69L718.664 343.676H720.93L723.922 346.184H721.81L724.802 343.676H727.068L724.12 346.69H721.612ZM735.672 360.198C734.674 360.198 733.794 360.014 733.032 359.648C732.269 359.266 731.675 358.694 731.25 357.932C730.824 357.154 730.612 356.179 730.612 355.006V348.296H733.362V354.632C733.362 355.688 733.596 356.48 734.066 357.008C734.55 357.521 735.232 357.778 736.112 357.778C736.757 357.778 737.314 357.646 737.784 357.382C738.268 357.118 738.642 356.722 738.906 356.194C739.184 355.666 739.324 355.013 739.324 354.236V348.296H742.074V360.044H739.456V356.876L739.918 357.844C739.522 358.606 738.942 359.193 738.18 359.604C737.417 360 736.581 360.198 735.672 360.198ZM748.798 360.044L743.76 348.296H746.62L750.954 358.658H749.546L754.034 348.296H756.674L751.636 360.044H748.798ZM765.266 360.044V357.668L765.112 357.162V353.004C765.112 352.197 764.87 351.574 764.386 351.134C763.902 350.679 763.168 350.452 762.186 350.452C761.526 350.452 760.873 350.554 760.228 350.76C759.597 350.965 759.062 351.251 758.622 351.618L757.544 349.616C758.174 349.132 758.922 348.772 759.788 348.538C760.668 348.288 761.577 348.164 762.516 348.164C764.217 348.164 765.53 348.574 766.454 349.396C767.392 350.202 767.862 351.456 767.862 353.158V360.044H765.266ZM761.57 360.198C760.69 360.198 759.92 360.051 759.26 359.758C758.6 359.45 758.086 359.032 757.72 358.504C757.368 357.961 757.192 357.352 757.192 356.678C757.192 356.018 757.346 355.424 757.654 354.896C757.976 354.368 758.497 353.95 759.216 353.642C759.934 353.334 760.888 353.18 762.076 353.18H765.486V355.006H762.274C761.335 355.006 760.704 355.16 760.382 355.468C760.059 355.761 759.898 356.128 759.898 356.568C759.898 357.066 760.096 357.462 760.492 357.756C760.888 358.049 761.438 358.196 762.142 358.196C762.816 358.196 763.418 358.042 763.946 357.734C764.488 357.426 764.877 356.971 765.112 356.37L765.574 358.02C765.31 358.709 764.833 359.244 764.144 359.626C763.469 360.007 762.611 360.198 761.57 360.198ZM771.391 360.044V348.296H774.009V351.53L773.701 350.584C774.053 349.792 774.603 349.19 775.351 348.78C776.114 348.369 777.06 348.164 778.189 348.164V350.782C778.072 350.752 777.962 350.738 777.859 350.738C777.756 350.723 777.654 350.716 777.551 350.716C776.51 350.716 775.681 351.024 775.065 351.64C774.449 352.241 774.141 353.143 774.141 354.346V360.044H771.391ZM780.522 360.044V348.296H783.272V360.044H780.522ZM781.908 346.36C781.395 346.36 780.969 346.198 780.632 345.876C780.309 345.553 780.148 345.164 780.148 344.71C780.148 344.24 780.309 343.852 780.632 343.544C780.969 343.221 781.395 343.06 781.908 343.06C782.421 343.06 782.839 343.214 783.162 343.522C783.499 343.815 783.668 344.189 783.668 344.644C783.668 345.128 783.507 345.538 783.184 345.876C782.861 346.198 782.436 346.36 781.908 346.36Z" fill="#132A13"/>
<path d="M430.19 96.9446L461.248 65.887C461.718 65.4164 462.053 64.9066 462.25 64.3576C462.445 63.8086 462.542 63.2204 462.542 62.593C462.542 61.9656 462.445 61.3774 462.25 60.8284C462.053 60.2794 461.718 59.7696 461.248 59.299L430.19 28.2414C429.328 27.3787 428.25 26.9269 426.957 26.8861C425.662 26.8485 424.543 27.3002 423.602 28.2414C422.661 29.1041 422.17 30.1817 422.129 31.4742C422.092 32.7698 422.544 33.8882 423.485 34.8294L446.543 57.8873H345.555C344.222 57.8873 343.103 58.3375 342.2 59.2378C341.299 60.1413 340.849 61.2597 340.849 62.593C340.849 63.9263 341.299 65.0431 342.2 65.9434C343.103 66.8469 344.222 67.2987 345.555 67.2987H446.543L423.485 90.3566C422.622 91.2193 422.17 92.3173 422.129 93.6506C422.092 94.9839 422.544 96.0819 423.485 96.9446C424.347 97.8857 425.445 98.3563 426.779 98.3563C428.112 98.3563 429.249 97.8857 430.19 96.9446Z" fill="#096832"/>
<circle cx="399.328" cy="134.866" r="2.48689" fill="#096832"/>
<path d="M385.885 172.423C386.234 171.728 386.807 171.23 387.544 170.983L387.553 170.98C387.889 170.871 388.245 170.817 388.603 170.821L388.643 170.821C390.323 170.859 392.026 172.102 392.88 173.913C393.507 175.238 393.567 176.657 393.04 177.709C392.691 178.405 392.117 178.903 391.377 179.15L391.369 179.152C391.034 179.261 390.678 179.315 390.319 179.311C388.623 179.295 386.902 178.052 386.032 176.217C385.413 174.894 385.357 173.476 385.885 172.423ZM406.873 172.949C406.131 173.732 405.196 174.159 404.239 174.149C404.108 174.148 403.978 174.139 403.849 174.121C401.855 173.849 400.631 171.745 401.063 169.327C401.244 168.31 401.709 167.366 402.37 166.669C403.11 165.887 404.046 165.461 405.003 165.471C405.134 165.472 405.264 165.482 405.393 165.499C407.387 165.771 408.61 167.875 408.179 170.293C407.999 171.308 407.533 172.251 406.873 172.949ZM396.8 174.053C396.67 174.068 396.54 174.075 396.409 174.074C395.451 174.065 394.525 173.62 393.799 172.823C393.152 172.112 392.708 171.161 392.545 170.141C392.16 167.716 393.424 165.636 395.423 165.402C395.552 165.387 395.682 165.38 395.813 165.381C396.77 165.391 397.698 165.835 398.423 166.631C399.07 167.341 399.517 168.294 399.677 169.315C400.062 171.74 398.798 173.82 396.8 174.053ZM409.18 179.324L409.172 179.321C408.438 179.06 407.874 178.552 407.54 177.85C407.033 176.786 407.12 175.37 407.771 174.057C408.672 172.241 410.416 171.031 412.11 171.047C412.469 171.05 412.824 171.111 413.157 171.227L413.165 171.23C413.897 171.488 414.461 171.999 414.795 172.701C415.302 173.765 415.216 175.181 414.565 176.494C413.663 178.31 411.919 179.52 410.225 179.503C409.867 179.5 409.513 179.439 409.18 179.324Z" fill="#008037"/>
<path d="M408.549 195.79C406.852 195.79 405.555 195.59 404.657 195.191C403.759 194.742 403.111 194.243 402.711 193.695C402.362 193.146 402.163 192.647 402.113 192.198C402.063 191.699 402.038 191.4 402.038 191.3C402.038 191.05 401.938 190.651 401.739 190.102C401.589 189.504 401.09 189.204 400.242 189.204C398.845 189.204 397.598 189.629 396.5 190.477C395.453 191.325 394.879 192.572 394.779 194.218C394.679 195.865 395.103 197.287 396.051 198.484C396.999 199.681 398.87 200.305 401.664 200.355C403.061 200.355 404.532 200.554 406.079 200.953C407.626 201.353 409.072 202.001 410.419 202.899C411.816 203.747 412.914 204.92 413.712 206.416C414.56 207.863 414.984 209.684 414.984 211.879C414.934 216.27 413.762 219.662 411.467 222.057C409.172 224.451 405.356 225.649 400.017 225.649C396.475 225.649 393.632 225.225 391.486 224.377C389.341 223.479 387.77 222.431 386.772 221.234C385.824 220.036 385.325 218.964 385.275 218.016C385.225 217.068 385.275 216.145 385.425 215.247C385.624 214.349 386.148 213.576 386.996 212.927C387.894 212.278 389.316 211.879 391.262 211.73C393.257 211.58 394.679 211.755 395.527 212.253C396.376 212.702 396.899 213.226 397.099 213.825C397.348 214.424 397.473 214.798 397.473 214.948C397.473 215.097 397.523 215.471 397.623 216.07C397.772 216.619 398.022 217.168 398.371 217.716C398.77 218.215 399.319 218.465 400.017 218.465C401.065 218.465 401.963 218.041 402.711 217.193C403.46 216.344 403.934 214.972 404.133 213.077C404.483 209.335 402.612 207.464 398.521 207.464C397.523 207.464 396.226 207.314 394.629 207.015C393.083 206.666 391.536 206.067 389.99 205.219C388.443 204.321 387.146 203.074 386.098 201.477C385.051 199.881 384.552 197.785 384.602 195.191C384.651 192.597 385.125 190.477 386.023 188.83C386.921 187.134 388.094 185.837 389.541 184.939C391.037 183.991 392.659 183.317 394.405 182.918C396.201 182.519 397.972 182.295 399.718 182.245C402.063 182.195 404.308 182.469 406.453 183.068C408.648 183.667 410.469 184.59 411.916 185.837C413.413 187.034 414.261 188.606 414.461 190.551C414.61 191.998 414.386 193.096 413.787 193.844C413.238 194.543 412.54 195.042 411.692 195.341C410.893 195.59 410.17 195.74 409.521 195.79C408.873 195.79 408.549 195.79 408.549 195.79Z" fill="#008037"/>
<rect x="363.268" y="126.163" width="72.1197" height="139.457" rx="3.73033" stroke="#096832" stroke-width="7.46066"/>
<path d="M374.43 358.127L343.373 327.069C342.902 326.599 342.568 326.089 342.37 325.54C342.176 324.991 342.079 324.403 342.079 323.775C342.079 323.148 342.176 322.56 342.37 322.011C342.568 321.462 342.902 320.952 343.373 320.481L374.43 289.424C375.293 288.561 376.371 288.109 377.663 288.068C378.959 288.031 380.077 288.482 381.018 289.424C381.959 290.286 382.45 291.364 382.491 292.656C382.529 293.952 382.077 295.07 381.136 296.012L358.078 319.069H459.066C460.399 319.069 461.517 319.52 462.421 320.42C463.321 321.324 463.771 322.442 463.771 323.775C463.771 325.108 463.321 326.225 462.421 327.126C461.517 328.029 460.399 328.481 459.066 328.481H358.078L381.136 351.539C381.999 352.402 382.45 353.5 382.491 354.833C382.529 356.166 382.077 357.264 381.136 358.127C380.273 359.068 379.175 359.538 377.842 359.538C376.509 359.538 375.371 359.068 374.43 358.127Z" fill="#096832"/>
<defs>
<clipPath id="clip0_189_1572">
<rect width="215.349" height="188.563" fill="white" transform="translate(54.6584 58.5465)"/>
</clipPath>
<clipPath id="clip1_189_1572">
<rect width="263.977" height="204.235" fill="white" transform="translate(519.244 52.1021)"/>
</clipPath>
</defs>
</svg>
