<svg width="152" height="67" viewBox="0 0 152 67" fill="none" xmlns="http://www.w3.org/2000/svg">
<path d="M119.413 10.4753C115.262 11.5487 112.668 15.4127 113.409 18.1319C114.15 20.8511 116.967 17.7741 121.118 16.7008C125.269 15.6274 129.271 16.9154 128.53 14.2678C127.789 11.6202 123.638 9.40199 119.413 10.4753ZM116.226 9.18731C117.486 8.75797 117.634 6.11038 116.967 4.32146C116.3 2.53254 114.743 1.45919 113.483 1.88853C112.223 2.31787 111.778 4.10679 112.445 5.89571C113.112 7.68462 114.965 9.68821 116.226 9.18731ZM121.34 7.82774C122.674 7.68462 123.564 5.18014 123.341 3.31967C123.193 1.45919 121.933 0.0280595 120.599 0.0996162C119.265 0.24273 118.301 1.81698 118.523 3.74901C118.672 5.60948 120.006 7.97085 121.34 7.82774ZM127.27 2.31787C125.936 2.31787 124.824 3.82056 124.824 5.75259C124.824 7.68462 125.936 10.046 127.27 10.046C128.604 10.046 129.716 7.61307 129.716 5.75259C129.716 3.82056 128.604 2.31787 127.27 2.31787ZM108.443 7.18373C107.257 7.82774 107.108 9.68821 108.146 11.334C109.11 12.9798 111.333 14.5541 112.519 13.9101C113.705 13.266 113.335 10.6184 112.371 8.97265C111.408 7.32684 109.629 6.53972 108.443 7.18373ZM140.019 26.2894C135.868 25.216 131.569 27.3627 130.902 30.0103C130.235 32.6579 134.163 31.3699 138.314 32.4432C142.465 33.5166 145.282 36.5935 146.023 33.8744C146.765 31.1552 144.17 27.3627 140.019 26.2894ZM143.207 25.0729C144.467 25.5022 146.32 23.5702 146.987 21.7813C147.654 19.9924 147.209 18.2035 145.949 17.7741C144.689 17.3448 143.132 18.4181 142.465 20.207C141.798 21.996 141.946 24.6436 143.207 25.0729ZM138.092 23.7133C139.426 23.8564 140.761 21.4951 140.909 19.6346C141.057 17.7741 140.168 16.1283 138.833 15.9852C137.499 15.8421 136.239 17.3448 136.091 19.2052C135.868 21.0657 136.758 23.5702 138.092 23.7133ZM132.162 25.9316C133.496 25.9316 134.608 23.4986 134.608 21.6382C134.608 19.7777 133.496 18.2035 132.162 18.2035C130.828 18.2035 129.716 19.7061 129.716 21.6382C129.716 23.4986 130.828 25.9316 132.162 25.9316ZM150.99 22.9978C149.804 22.3537 148.099 23.1409 147.135 24.7867C146.172 26.4325 145.801 29.0801 146.987 29.7241C148.173 30.3681 150.322 28.7938 151.36 27.148C152.398 25.5022 152.101 23.6418 150.99 22.9978Z" fill="#096832"/>
<path d="M13.8179 14.1122C12.9726 14.1122 12.1272 14.0009 11.2819 13.7785C10.481 13.556 9.8136 13.2446 9.27969 12.8441V12.7774C7.85594 11.5761 6.43218 10.3748 5.00843 9.17352C3.62916 7.92773 2.22765 6.70419 0.803896 5.5029C0.536942 5.28043 0.31448 5.01348 0.136511 4.70204C-0.0414587 4.3461 0.00303367 3.96791 0.269988 3.56748C0.581435 2.98908 1.13759 2.54415 1.93845 2.23271C2.78381 1.87677 3.71815 1.6988 4.74147 1.6988C5.7648 1.65431 6.72138 1.74329 7.61123 1.96575C8.54557 2.14372 9.25745 2.47742 9.74686 2.96683H9.88034C10.3253 3.32277 10.7479 3.70096 11.1484 4.10139C11.5488 4.45733 11.9492 4.81327 12.3497 5.1692C12.7056 4.5908 13.0615 4.03465 13.4175 3.50074C13.7734 2.96683 14.1294 2.41068 14.4853 1.83228C15.0192 1.07591 15.8868 0.564245 17.0881 0.297291C18.3339 -0.0141565 19.6019 -0.0808955 20.8922 0.0970743C22.227 0.275044 23.2503 0.65323 23.9622 1.23163C24.2291 1.4096 24.4516 1.67655 24.6296 2.03249C24.8075 2.38843 24.763 2.76662 24.4961 3.16705L21.6263 7.70527C20.7365 9.21801 19.8021 10.7308 18.8233 12.2435C18.4229 12.9109 17.7332 13.378 16.7544 13.645C15.7756 13.912 14.7967 14.0677 13.8179 14.1122ZM21.3594 26.3921C19.8466 26.3921 18.6898 26.2141 17.889 25.8582C17.0881 25.5022 16.5097 25.0795 16.1538 24.5901C15.8423 24.1007 15.6643 23.6558 15.6199 23.2554C15.5754 22.8549 15.5531 22.6102 15.5531 22.5212C15.5531 22.3433 15.4641 22.0096 15.2862 21.5202C15.1527 20.9862 14.7078 20.7193 13.9514 20.7193C12.7056 20.7193 11.5933 21.0975 10.6145 21.8538C9.68013 22.5657 9.16846 23.6335 9.07948 25.0573C8.99049 26.4366 9.36868 27.6601 10.214 28.7279C11.0594 29.7512 12.7279 30.2629 15.2194 30.2629C16.4652 30.3074 17.7777 30.5076 19.157 30.8635C20.5363 31.175 21.8265 31.7089 23.0278 32.4653C24.2736 33.1772 25.2525 34.1782 25.9643 35.4685C26.7207 36.7143 27.0989 38.2715 27.0989 40.1402C27.0544 43.9221 26.0088 46.8363 23.9622 48.883C21.9155 50.9296 18.5119 51.9529 13.7512 51.9529C10.5922 51.9529 8.05615 51.5747 6.14298 50.8184C4.22981 50.062 2.8283 49.1722 1.93845 48.1488C1.0931 47.1255 0.648173 46.2134 0.603681 45.4126C0.559188 44.6117 0.603681 43.8331 0.737158 43.0767C0.915127 42.2758 1.3823 41.6085 2.13867 41.0745C2.93953 40.4961 4.20756 40.1402 5.94277 40.0067C7.72246 39.8733 8.99049 40.029 9.74686 40.4739C10.5032 40.8743 10.9704 41.3415 11.1484 41.8754C11.3708 42.3648 11.4821 42.6763 11.4821 42.8098C11.4821 42.9432 11.5266 43.2547 11.6155 43.7441C11.749 44.2335 11.9715 44.7007 12.2829 45.1456C12.6389 45.5905 13.1283 45.813 13.7512 45.813C14.6855 45.813 15.4864 45.4571 16.1538 44.7452C16.8212 43.9888 17.2438 42.8097 17.4218 41.208C17.7332 38.0046 16.0648 36.4029 12.4164 36.4029C11.5266 36.4029 10.3698 36.2694 8.946 36.0024C7.56674 35.691 6.18747 35.1793 4.80821 34.4674C3.42895 33.7111 2.27214 32.6432 1.3378 31.264C0.403465 29.8847 -0.0414588 28.0828 0.00303357 25.8582C0.0475259 23.678 0.470204 21.8761 1.27107 20.4523C2.07193 18.9841 3.1175 17.8495 4.40778 17.0487C5.74255 16.2478 7.18855 15.6917 8.74578 15.3802C10.3475 15.0243 11.927 14.824 13.4842 14.7796C15.5754 14.7351 17.5775 14.9798 19.4907 15.5137C21.4484 16.0031 23.0723 16.7817 24.3626 17.8495C25.6974 18.9173 26.4538 20.2744 26.6317 21.9206C26.7652 23.1219 26.565 24.0562 26.0311 24.7236C25.5417 25.3465 24.9188 25.7692 24.1624 25.9916C23.4505 26.2141 22.8054 26.3476 22.227 26.3921C21.6486 26.3921 21.3594 26.3921 21.3594 26.3921Z" fill="#096832"/>
<path d="M43.1354 24.2564C45.3601 24.2119 47.251 24.4122 48.8082 24.8571C50.3654 25.2575 51.6557 25.7469 52.6791 26.3253C53.7024 26.9037 54.5032 27.4154 55.0816 27.8603C55.66 28.3052 56.0827 28.5277 56.3497 28.5277C56.8391 28.5722 57.195 28.8169 57.4175 29.2618C57.6399 29.6623 57.7512 29.8625 57.7512 29.8625C57.7512 29.8625 57.8179 30.3074 57.9514 31.1972C58.0849 32.0871 58.2406 33.2216 58.4186 34.6009C58.641 35.9802 58.8412 37.4262 59.0192 38.9389C59.1972 40.4517 59.3529 41.8754 59.4864 43.2102C59.6199 44.545 59.6866 45.5905 59.6866 46.3469C59.6866 47.5927 59.5976 48.5938 59.4196 49.3501C59.2862 50.1065 58.8412 50.6849 58.0849 51.0853C57.3285 51.4413 56.0827 51.686 54.3475 51.8195C53.0572 51.9084 52.1229 51.8862 51.5445 51.7527C50.9661 51.6192 50.6102 51.4635 50.4767 51.2855C50.3432 51.1076 50.2765 51.0186 50.2765 51.0186C49.876 51.33 49.2086 51.5525 48.2743 51.686C47.3845 51.775 46.5391 51.8195 45.7382 51.8195C44.9374 51.8195 44.5369 51.8195 44.5369 51.8195C44.5369 51.8195 44.0253 51.7527 43.002 51.6192C41.9786 51.4413 40.7106 51.1076 39.1979 50.6182C37.7296 50.0843 36.2391 49.3056 34.7264 48.2823C33.2581 47.2145 32.0346 45.813 31.0558 44.0778C30.0769 42.2981 29.6098 40.0957 29.6542 37.4707C29.6987 34.8456 30.1882 32.71 31.1225 31.0638C32.0568 29.3731 33.1914 28.0605 34.5262 27.1262C35.8609 26.1918 37.1735 25.5245 38.4637 25.124C39.7985 24.7236 40.9108 24.4789 41.8007 24.3899C42.6905 24.3009 43.1354 24.2564 43.1354 24.2564ZM48.1408 31.1305C47.9184 30.8191 47.429 30.4854 46.6726 30.1294C45.9607 29.729 45.2711 29.3953 44.6037 29.1283C43.9808 28.8614 43.6693 28.7724 43.6693 28.8614C43.6693 28.9059 43.4246 29.2841 42.9352 29.9959C42.4903 30.6633 42.0231 31.6644 41.5337 32.9992C41.0888 34.2895 40.8441 35.8467 40.7996 37.6709C40.7551 39.4951 40.9998 41.0745 41.5337 42.4093C42.0676 43.7441 42.7128 44.7674 43.4691 45.4793C44.27 46.1912 45.0041 46.5471 45.6715 46.5471C46.1609 46.5471 46.6281 46.3246 47.073 45.8797C47.5179 45.3903 47.8961 44.8564 48.2076 44.278C48.519 43.6551 48.7637 43.1212 48.9417 42.6763C49.1197 42.2313 49.2086 42.0089 49.2086 42.0089L48.1408 31.1305Z" fill="#096832"/>
<path d="M65.5007 61.3631L63.2983 34.2672C63.2983 34.2672 63.1871 34.0892 62.9646 33.7333C62.7866 33.3774 62.6087 32.9324 62.4307 32.3985C62.2527 31.8201 62.2082 31.264 62.2972 30.7301C62.3862 30.1962 62.7199 29.7512 63.2983 29.3953C63.7877 29.1283 64.6776 28.6167 65.9678 27.8603C67.3026 27.0595 68.9266 26.2808 70.8398 25.5245C72.7529 24.7681 74.7996 24.2342 76.9797 23.9227C79.2043 23.6113 81.4289 23.7448 83.6536 24.3232C85.9227 24.8571 88.0583 26.0806 90.0605 27.9938C92.0181 29.8625 93.2417 31.9314 93.7311 34.2005C94.2205 36.4696 94.176 38.6942 93.5976 40.8743C93.0637 43.0545 92.1516 44.9676 90.8613 46.6138C89.6155 48.2601 88.1918 49.4169 86.5901 50.0843C84.4099 50.9741 82.5413 51.5303 80.984 51.7527C79.4268 51.9307 78.2255 51.9752 77.3801 51.8862C76.5348 51.8417 76.1121 51.8195 76.1121 51.8195L76.7795 61.897C76.7795 61.897 76.7795 62.1194 76.7795 62.5644C76.7795 63.0093 76.646 63.521 76.3791 64.0993C76.1566 64.6777 75.6672 65.1672 74.9108 65.5676C74.1544 66.0125 73.0421 66.235 71.5739 66.235C69.6162 66.1905 68.1925 65.879 67.3026 65.3006C66.4573 64.7222 65.9456 64.0549 65.7676 63.2985C65.5897 62.5421 65.5007 61.897 65.5007 61.3631ZM74.0432 31.264L75.5115 45.7463C75.5115 45.7463 75.8896 45.7463 76.646 45.7463C77.4024 45.7463 78.2477 45.6128 79.1821 45.3458C80.1609 45.0789 81.0063 44.5672 81.7181 43.8108C82.43 43.0545 82.7415 41.9199 82.6525 40.4072C82.5635 38.405 82.341 36.6253 81.9851 35.0681C81.6292 33.4664 81.0953 32.2428 80.3834 31.3975C79.6715 30.5521 78.6927 30.2407 77.4469 30.4631C76.2011 30.6856 75.3335 30.8635 74.8441 30.997C74.3991 31.086 74.1544 31.1528 74.1099 31.1972C74.0655 31.2417 74.0432 31.264 74.0432 31.264Z" fill="#096832"/>
<path d="M110.33 24.2564C112.555 24.2119 114.446 24.4122 116.003 24.8571C117.56 25.2575 118.851 25.7469 119.874 26.3253C120.897 26.9037 121.698 27.4154 122.276 27.8603C122.855 28.3052 123.277 28.5277 123.544 28.5277C124.034 28.5722 124.39 28.8169 124.612 29.2618C124.835 29.6623 124.946 29.8625 124.946 29.8625C124.946 29.8625 125.013 30.3074 125.146 31.1972C125.28 32.0871 125.435 33.2216 125.613 34.6009C125.836 35.9802 126.036 37.4262 126.214 38.9389C126.392 40.4517 126.548 41.8754 126.681 43.2102C126.815 44.545 126.881 45.5905 126.881 46.3469C126.881 47.5927 126.792 48.5938 126.614 49.3501C126.481 50.1065 126.036 50.6849 125.28 51.0853C124.523 51.4413 123.277 51.686 121.542 51.8195C120.252 51.9084 119.318 51.8862 118.739 51.7527C118.161 51.6192 117.805 51.4635 117.671 51.2855C117.538 51.1076 117.471 51.0186 117.471 51.0186C117.071 51.33 116.403 51.5525 115.469 51.686C114.579 51.775 113.734 51.8195 112.933 51.8195C112.132 51.8195 111.732 51.8195 111.732 51.8195C111.732 51.8195 111.22 51.7527 110.197 51.6192C109.173 51.4413 107.905 51.1076 106.393 50.6182C104.924 50.0843 103.434 49.3056 101.921 48.2823C100.453 47.2145 99.2294 45.813 98.2505 44.0778C97.2717 42.2981 96.8045 40.0957 96.849 37.4707C96.8935 34.8456 97.3829 32.71 98.3173 31.0638C99.2516 29.3731 100.386 28.0605 101.721 27.1262C103.056 26.1918 104.368 25.5245 105.659 25.124C106.993 24.7236 108.106 24.4789 108.995 24.3899C109.885 24.3009 110.33 24.2564 110.33 24.2564ZM115.336 31.1305C115.113 30.8191 114.624 30.4854 113.867 30.1294C113.155 29.729 112.466 29.3953 111.798 29.1283C111.176 28.8614 110.864 28.7724 110.864 28.8614C110.864 28.9059 110.619 29.2841 110.13 29.9959C109.685 30.6633 109.218 31.6644 108.728 32.9992C108.284 34.2895 108.039 35.8467 107.994 37.6709C107.95 39.4951 108.195 41.0745 108.728 42.4093C109.262 43.7441 109.908 44.7674 110.664 45.4793C111.465 46.1912 112.199 46.5471 112.866 46.5471C113.356 46.5471 113.823 46.3246 114.268 45.8797C114.713 45.3903 115.091 44.8564 115.402 44.278C115.714 43.6551 115.958 43.1212 116.136 42.6763C116.314 42.2313 116.403 42.0089 116.403 42.0089L115.336 31.1305Z" fill="#096832"/>
</svg>
