<svg width="1436" height="867" viewBox="0 0 1436 867" fill="none" xmlns="http://www.w3.org/2000/svg">
<path d="M39.5293 807.615C35.1608 803.169 28.4104 802.712 25.5258 805.621C22.6413 808.531 28.5624 809.841 32.9309 814.286C37.2994 818.732 38.5872 824.707 41.3816 821.85C44.1761 818.992 43.9516 812.154 39.5293 807.615ZM38.8341 802.666C40.2906 803.94 43.7316 802.203 45.4988 800.062C47.2661 797.922 47.486 795.182 46.0296 793.908C44.5731 792.634 41.9977 793.374 40.2304 795.514C38.4631 797.654 37.2876 801.444 38.8341 802.666ZM44.2634 808.117C45.4133 809.693 49.2129 808.992 51.3936 807.36C53.6281 805.821 54.5139 803.194 53.454 801.566C52.304 799.991 49.6217 799.922 47.351 801.606C45.1165 803.145 43.1134 806.541 44.2634 808.117ZM55.5103 811.577C54.5405 809.898 51.8405 809.59 49.4081 810.994C46.9758 812.399 44.8111 815.515 45.7809 817.195C46.7507 818.874 50.6218 818.506 52.9641 817.154C55.3964 815.749 56.4801 813.257 55.5103 811.577ZM35.6994 791.411C34.0266 790.386 31.5765 791.552 30.2588 794.055C28.8872 796.464 28.5216 800.408 30.1945 801.433C31.8673 802.458 34.9311 800.067 36.3027 797.657C37.6743 795.248 37.3722 792.436 35.6994 791.411ZM34.598 845.052C32.9322 839.046 27.1046 835.194 23.2865 836.279C19.4684 837.363 23.9455 841.373 25.6113 847.379C27.2772 853.385 25.4507 859.168 29.4128 858.124C33.3749 857.081 36.2639 851.058 34.598 845.052ZM38.4462 848.181C38.8216 850.079 42.6009 851.008 45.338 850.548C48.0751 850.087 50.004 848.227 49.6286 846.328C49.2532 844.43 46.7705 843.25 44.0334 843.711C41.2963 844.171 38.0708 846.282 38.4462 848.181ZM36.4403 840.754C37.23 842.537 41.1726 842.501 43.6227 841.335C46.0727 840.169 47.4982 837.853 46.7086 836.069C45.9189 834.286 43.1112 833.792 40.6611 834.957C38.1572 836.03 35.6507 838.97 36.4403 840.754ZM29.3374 834.9C30.3072 836.58 34.1783 836.212 36.5206 834.859C38.8629 833.507 40.0366 830.963 39.0668 829.283C38.097 827.603 35.397 827.296 32.9647 828.7C30.6224 830.052 28.3676 833.221 29.3374 834.9ZM46.7159 856.471C46.6647 854.51 44.4345 852.936 41.6621 852.919C38.8897 852.902 35.2871 854.36 35.3383 856.321C35.3896 858.282 38.934 859.844 41.7603 859.954C44.5866 860.064 46.7133 858.339 46.7159 856.471Z" fill="#ECE3B6"/>
<path d="M209.49 709.488C205.122 705.043 198.371 704.585 195.487 707.495C192.602 710.405 198.523 711.714 202.892 716.16C207.26 720.606 208.548 726.581 211.343 723.723C214.137 720.866 213.913 714.028 209.49 709.488ZM208.795 704.54C210.252 705.814 213.693 704.076 215.46 701.936C217.227 699.796 217.447 697.056 215.991 695.782C214.534 694.507 211.959 695.248 210.191 697.388C208.424 699.528 207.249 703.317 208.795 704.54ZM214.224 709.99C215.374 711.566 219.174 710.865 221.354 709.233C223.589 707.694 224.475 705.068 223.415 703.44C222.265 701.864 219.583 701.795 217.312 703.48C215.077 705.018 213.074 708.415 214.224 709.99ZM225.471 713.451C224.501 711.771 221.801 711.464 219.369 712.868C216.937 714.272 214.772 717.389 215.742 719.068C216.712 720.748 220.583 720.379 222.925 719.027C225.357 717.623 226.441 715.131 225.471 713.451ZM205.66 693.285C203.988 692.26 201.537 693.425 200.22 695.928C198.848 698.338 198.483 702.281 200.155 703.306C201.828 704.331 204.892 701.94 206.264 699.531C207.635 697.122 207.333 694.31 205.66 693.285ZM204.559 746.926C202.893 740.92 197.066 737.068 193.247 738.152C189.429 739.237 193.906 743.246 195.572 749.253C197.238 755.259 195.412 761.041 199.374 759.998C203.336 758.955 206.225 752.932 204.559 746.926ZM208.407 750.054C208.783 751.953 212.562 752.882 215.299 752.421C218.036 751.961 219.965 750.1 219.59 748.202C219.214 746.303 216.731 745.124 213.994 745.584C211.257 746.045 208.032 748.156 208.407 750.054ZM206.401 742.627C207.191 744.411 211.134 744.374 213.584 743.209C216.034 742.043 217.459 739.727 216.669 737.943C215.88 736.159 213.072 735.665 210.622 736.831C208.118 737.903 205.612 740.843 206.401 742.627ZM199.298 736.774C200.268 738.454 204.139 738.085 206.482 736.733C208.824 735.38 209.998 732.836 209.028 731.157C208.058 729.477 205.358 729.169 202.926 730.574C200.583 731.926 198.329 735.094 199.298 736.774ZM216.677 758.345C216.626 756.383 214.395 754.809 211.623 754.792C208.851 754.775 205.248 756.233 205.299 758.194C205.351 760.156 208.895 761.718 211.721 761.828C214.547 761.938 216.674 760.212 216.677 758.345Z" fill="#ECE3B6"/>
<path d="M379.45 611.362C375.082 606.916 368.331 606.458 365.447 609.368C362.562 612.278 368.483 613.587 372.852 618.033C377.22 622.479 378.508 628.454 381.303 625.596C384.097 622.739 383.873 615.901 379.45 611.362ZM378.755 606.413C380.211 607.687 383.652 605.949 385.42 603.809C387.187 601.669 387.407 598.929 385.95 597.655C384.494 596.38 381.919 597.121 380.151 599.261C378.384 601.401 377.208 605.19 378.755 606.413ZM384.184 611.863C385.334 613.439 389.134 612.739 391.314 611.106C393.549 609.567 394.435 606.941 393.375 605.313C392.225 603.737 389.543 603.668 387.272 605.353C385.037 606.892 383.034 610.288 384.184 611.863ZM395.431 615.324C394.461 613.644 391.761 613.337 389.329 614.741C386.897 616.145 384.732 619.262 385.702 620.941C386.672 622.621 390.543 622.252 392.885 620.9C395.317 619.496 396.401 617.004 395.431 615.324ZM375.62 595.158C373.947 594.133 371.497 595.298 370.18 597.801C368.808 600.211 368.443 604.154 370.115 605.179C371.788 606.204 374.852 603.813 376.224 601.404C377.595 598.995 377.293 596.183 375.62 595.158ZM374.519 648.799C372.853 642.793 367.026 638.941 363.207 640.025C359.389 641.11 363.866 645.12 365.532 651.126C367.198 657.132 365.372 662.914 369.334 661.871C373.296 660.828 376.185 654.805 374.519 648.799ZM378.367 651.927C378.743 653.826 382.522 654.755 385.259 654.294C387.996 653.834 389.925 651.973 389.55 650.075C389.174 648.176 386.691 646.997 383.954 647.457C381.217 647.918 377.992 650.029 378.367 651.927ZM376.361 644.5C377.151 646.284 381.094 646.247 383.544 645.082C385.994 643.916 387.419 641.6 386.629 639.816C385.84 638.032 383.032 637.538 380.582 638.704C378.078 639.776 375.572 642.716 376.361 644.5ZM369.258 638.647C370.228 640.327 374.099 639.958 376.442 638.606C378.784 637.254 379.958 634.709 378.988 633.03C378.018 631.35 375.318 631.042 372.886 632.447C370.543 633.799 368.289 636.967 369.258 638.647ZM386.637 660.218C386.586 658.256 384.355 656.682 381.583 656.665C378.811 656.648 375.208 658.106 375.259 660.067C375.31 662.029 378.855 663.591 381.681 663.701C384.507 663.811 386.634 662.085 386.637 660.218Z" fill="#ECE3B6"/>
<path d="M549.411 513.235C545.043 508.789 538.292 508.332 535.408 511.242C532.523 514.151 538.444 515.461 542.813 519.906C547.181 524.352 548.469 530.328 551.263 527.47C554.058 524.612 553.833 517.774 549.411 513.235ZM548.716 508.286C550.172 509.56 553.613 507.823 555.381 505.683C557.148 503.542 557.368 500.802 555.911 499.528C554.455 498.254 551.88 498.994 550.112 501.134C548.345 503.274 547.169 507.064 548.716 508.286ZM554.145 513.737C555.295 515.313 559.095 514.612 561.275 512.98C563.51 511.441 564.396 508.814 563.336 507.186C562.186 505.611 559.504 505.542 557.233 507.226C554.998 508.765 552.995 512.161 554.145 513.737ZM565.392 517.198C564.422 515.518 561.722 515.21 559.29 516.615C556.858 518.019 554.693 521.135 555.663 522.815C556.633 524.495 560.504 524.126 562.846 522.774C565.278 521.369 566.362 518.877 565.392 517.198ZM545.581 497.031C543.908 496.006 541.458 497.172 540.141 499.675C538.769 502.084 538.403 506.028 540.076 507.053C541.749 508.078 544.813 505.687 546.185 503.278C547.556 500.868 547.254 498.056 545.581 497.031ZM544.48 550.672C542.814 544.666 536.986 540.814 533.168 541.899C529.35 542.983 533.827 546.993 535.493 552.999C537.159 559.005 535.333 564.788 539.295 563.745C543.257 562.701 546.146 556.678 544.48 550.672ZM548.328 553.801C548.703 555.699 552.483 556.628 555.22 556.168C557.957 555.707 559.886 553.847 559.51 551.949C559.135 550.05 556.652 548.871 553.915 549.331C551.178 549.791 547.953 551.902 548.328 553.801ZM546.322 546.374C547.112 548.157 551.054 548.121 553.505 546.955C555.955 545.789 557.38 543.473 556.59 541.69C555.801 539.906 552.993 539.412 550.543 540.577C548.039 541.65 545.533 544.59 546.322 546.374ZM539.219 540.521C540.189 542.2 544.06 541.832 546.402 540.479C548.745 539.127 549.918 536.583 548.949 534.903C547.979 533.224 545.279 532.916 542.847 534.32C540.504 535.673 538.249 538.841 539.219 540.521ZM556.598 562.091C556.547 560.13 554.316 558.556 551.544 558.539C548.772 558.522 545.169 559.98 545.22 561.941C545.271 563.902 548.816 565.464 551.642 565.574C554.468 565.685 556.595 563.959 556.598 562.091Z" fill="#ECE3B6"/>
<path d="M719.37 415.108C715.002 410.663 708.251 410.205 705.367 413.115C702.482 416.024 708.403 417.334 712.772 421.78C717.14 426.225 718.428 432.201 721.222 429.343C724.017 426.486 723.792 419.647 719.37 415.108ZM718.675 410.159C720.131 411.434 723.572 409.696 725.34 407.556C727.107 405.416 727.327 402.676 725.87 401.401C724.414 400.127 721.838 400.867 720.071 403.008C718.304 405.148 717.128 408.937 718.675 410.159ZM724.104 415.61C725.254 417.186 729.054 416.485 731.234 414.853C733.469 413.314 734.355 410.687 733.295 409.06C732.145 407.484 729.463 407.415 727.192 409.099C724.957 410.638 722.954 414.035 724.104 415.61ZM735.351 419.071C734.381 417.391 731.681 417.084 729.249 418.488C726.817 419.892 724.652 423.008 725.622 424.688C726.591 426.368 730.463 425.999 732.805 424.647C735.237 423.243 736.321 420.751 735.351 419.071ZM715.54 398.905C713.867 397.88 711.417 399.045 710.1 401.548C708.728 403.957 708.362 407.901 710.035 408.926C711.708 409.951 714.772 407.56 716.144 405.151C717.515 402.741 717.213 399.93 715.54 398.905ZM714.439 452.546C712.773 446.54 706.945 442.688 703.127 443.772C699.309 444.857 703.786 448.866 705.452 454.872C707.118 460.878 705.292 466.661 709.254 465.618C713.216 464.575 716.105 458.552 714.439 452.546ZM718.287 455.674C718.662 457.573 722.442 458.501 725.179 458.041C727.916 457.581 729.845 455.72 729.469 453.822C729.094 451.923 726.611 450.744 723.874 451.204C721.137 451.665 717.912 453.776 718.287 455.674ZM716.281 448.247C717.071 450.031 721.013 449.994 723.463 448.828C725.914 447.663 727.339 445.347 726.549 443.563C725.76 441.779 722.952 441.285 720.502 442.451C717.998 443.523 715.492 446.463 716.281 448.247ZM709.178 442.394C710.148 444.074 714.019 443.705 716.361 442.353C718.704 441 719.877 438.456 718.908 436.777C717.938 435.097 715.238 434.789 712.805 436.194C710.463 437.546 708.208 440.714 709.178 442.394ZM726.557 463.964C726.506 462.003 724.275 460.429 721.503 460.412C718.731 460.395 715.128 461.853 715.179 463.814C715.23 465.775 718.775 467.337 721.601 467.448C724.427 467.558 726.554 465.832 726.557 463.964Z" fill="#ECE3B6"/>
<path d="M889.331 316.982C884.963 312.536 878.212 312.078 875.328 314.988C872.443 317.898 878.364 319.207 882.733 323.653C887.101 328.099 888.389 334.074 891.183 331.217C893.978 328.359 893.753 321.521 889.331 316.982ZM888.636 312.033C890.092 313.307 893.533 311.569 895.301 309.429C897.068 307.289 897.288 304.549 895.831 303.275C894.375 302 891.799 302.741 890.032 304.881C888.265 307.021 887.089 310.81 888.636 312.033ZM894.065 317.484C895.215 319.059 899.015 318.359 901.195 316.726C903.43 315.187 904.316 312.561 903.256 310.933C902.106 309.357 899.423 309.288 897.153 310.973C894.918 312.512 892.915 315.908 894.065 317.484ZM905.312 320.944C904.342 319.264 901.642 318.957 899.21 320.361C896.778 321.765 894.613 324.882 895.583 326.561C896.552 328.241 900.424 327.873 902.766 326.52C905.198 325.116 906.282 322.624 905.312 320.944ZM885.501 300.778C883.828 299.753 881.378 300.919 880.061 303.421C878.689 305.831 878.323 309.775 879.996 310.8C881.669 311.825 884.733 309.434 886.105 307.024C887.476 304.615 887.174 301.803 885.501 300.778ZM884.4 354.419C882.734 348.413 876.906 344.561 873.088 345.645C869.27 346.73 873.747 350.74 875.413 356.746C877.079 362.752 875.253 368.534 879.215 367.491C883.177 366.448 886.066 360.425 884.4 354.419ZM888.248 357.548C888.623 359.446 892.403 360.375 895.14 359.914C897.877 359.454 899.806 357.594 899.43 355.695C899.055 353.797 896.572 352.617 893.835 353.078C891.098 353.538 887.873 355.649 888.248 357.548ZM886.242 350.12C887.032 351.904 890.974 351.867 893.424 350.702C895.874 349.536 897.3 347.22 896.51 345.436C895.721 343.652 892.913 343.158 890.463 344.324C887.959 345.396 885.452 348.337 886.242 350.12ZM879.139 344.267C880.109 345.947 883.98 345.578 886.322 344.226C888.665 342.874 889.838 340.33 888.869 338.65C887.899 336.97 885.199 336.663 882.766 338.067C880.424 339.419 878.169 342.587 879.139 344.267ZM896.518 365.838C896.466 363.876 894.236 362.302 891.464 362.285C888.691 362.269 885.089 363.726 885.14 365.688C885.191 367.649 888.736 369.211 891.562 369.321C894.388 369.431 896.515 367.706 896.518 365.838Z" fill="#ECE3B6"/>
<path d="M1059.29 218.855C1054.92 214.409 1048.17 213.952 1045.29 216.861C1042.4 219.771 1048.33 221.081 1052.69 225.526C1057.06 229.972 1058.35 235.947 1061.14 233.09C1063.94 230.232 1063.71 223.394 1059.29 218.855ZM1058.6 213.906C1060.05 215.18 1063.49 213.443 1065.26 211.302C1067.03 209.162 1067.25 206.422 1065.79 205.148C1064.34 203.874 1061.76 204.614 1059.99 206.754C1058.23 208.894 1057.05 212.684 1058.6 213.906ZM1064.03 219.357C1065.18 220.933 1068.98 220.232 1071.16 218.6C1073.39 217.061 1074.28 214.434 1073.22 212.806C1072.07 211.231 1069.38 211.162 1067.11 212.846C1064.88 214.385 1062.88 217.781 1064.03 219.357ZM1075.27 222.817C1074.3 221.138 1071.6 220.83 1069.17 222.234C1066.74 223.639 1064.57 226.755 1065.54 228.435C1066.51 230.114 1070.38 229.746 1072.73 228.394C1075.16 226.989 1076.24 224.497 1075.27 222.817ZM1055.46 202.651C1053.79 201.626 1051.34 202.792 1050.02 205.295C1048.65 207.704 1048.28 211.648 1049.96 212.673C1051.63 213.698 1054.69 211.307 1056.07 208.897C1057.44 206.488 1057.13 203.676 1055.46 202.651ZM1054.36 256.292C1052.69 250.286 1046.87 246.434 1043.05 247.519C1039.23 248.603 1043.71 252.613 1045.37 258.619C1047.04 264.625 1045.21 270.408 1049.18 269.364C1053.14 268.321 1056.03 262.298 1054.36 256.292ZM1058.21 259.421C1058.58 261.319 1062.36 262.248 1065.1 261.788C1067.84 261.327 1069.77 259.467 1069.39 257.568C1069.02 255.67 1066.53 254.49 1063.8 254.951C1061.06 255.411 1057.83 257.522 1058.21 259.421ZM1056.2 251.994C1056.99 253.777 1060.94 253.741 1063.39 252.575C1065.84 251.409 1067.26 249.093 1066.47 247.309C1065.68 245.526 1062.87 245.032 1060.42 246.197C1057.92 247.27 1055.41 250.21 1056.2 251.994ZM1049.1 246.14C1050.07 247.82 1053.94 247.452 1056.28 246.099C1058.63 244.747 1059.8 242.203 1058.83 240.523C1057.86 238.843 1055.16 238.536 1052.73 239.94C1050.39 241.292 1048.13 244.461 1049.1 246.14ZM1066.48 267.711C1066.43 265.75 1064.2 264.176 1061.42 264.159C1058.65 264.142 1055.05 265.6 1055.1 267.561C1055.15 269.522 1058.7 271.084 1061.52 271.194C1064.35 271.304 1066.48 269.579 1066.48 267.711Z" fill="#ECE3B6"/>
<path d="M1229.25 120.728C1224.88 116.283 1218.13 115.825 1215.25 118.735C1212.36 121.645 1218.28 122.954 1222.65 127.4C1227.02 131.846 1228.31 137.821 1231.1 134.963C1233.9 132.106 1233.67 125.267 1229.25 120.728ZM1228.56 115.78C1230.01 117.054 1233.45 115.316 1235.22 113.176C1236.99 111.036 1237.21 108.296 1235.75 107.022C1234.29 105.747 1231.72 106.488 1229.95 108.628C1228.18 110.768 1227.01 114.557 1228.56 115.78ZM1233.99 121.23C1235.14 122.806 1238.93 122.105 1241.12 120.473C1243.35 118.934 1244.24 116.308 1243.18 114.68C1242.03 113.104 1239.34 113.035 1237.07 114.72C1234.84 116.258 1232.84 119.655 1233.99 121.23ZM1245.23 124.691C1244.26 123.011 1241.56 122.704 1239.13 124.108C1236.7 125.512 1234.53 128.628 1235.5 130.308C1236.47 131.988 1240.34 131.619 1242.69 130.267C1245.12 128.863 1246.2 126.371 1245.23 124.691ZM1225.42 104.525C1223.75 103.5 1221.3 104.665 1219.98 107.168C1218.61 109.578 1218.24 113.521 1219.92 114.546C1221.59 115.571 1224.65 113.18 1226.02 110.771C1227.4 108.362 1227.09 105.55 1225.42 104.525ZM1224.32 158.166C1222.65 152.16 1216.83 148.308 1213.01 149.392C1209.19 150.477 1213.67 154.486 1215.33 160.493C1217 166.499 1215.17 172.281 1219.13 171.238C1223.1 170.195 1225.99 164.172 1224.32 158.166ZM1228.17 161.294C1228.54 163.193 1232.32 164.121 1235.06 163.661C1237.8 163.201 1239.73 161.34 1239.35 159.442C1238.97 157.543 1236.49 156.364 1233.76 156.824C1231.02 157.285 1227.79 159.396 1228.17 161.294ZM1226.16 153.867C1226.95 155.651 1230.89 155.614 1233.34 154.449C1235.79 153.283 1237.22 150.967 1236.43 149.183C1235.64 147.399 1232.83 146.905 1230.38 148.071C1227.88 149.143 1225.37 152.083 1226.16 153.867ZM1219.06 148.014C1220.03 149.694 1223.9 149.325 1226.24 147.973C1228.58 146.62 1229.76 144.076 1228.79 142.397C1227.82 140.717 1225.12 140.409 1222.69 141.814C1220.34 143.166 1218.09 146.334 1219.06 148.014ZM1236.44 169.585C1236.39 167.623 1234.16 166.049 1231.38 166.032C1228.61 166.015 1225.01 167.473 1225.06 169.434C1225.11 171.396 1228.66 172.958 1231.48 173.068C1234.31 173.178 1236.44 171.452 1236.44 169.585Z" fill="#ECE3B6"/>
<path d="M1399.21 22.6018C1394.84 18.1561 1388.09 17.6986 1385.21 20.6082C1382.32 23.5179 1388.25 24.8275 1392.61 29.2732C1396.98 33.7188 1398.27 39.6943 1401.06 36.8367C1403.86 33.979 1403.63 27.1408 1399.21 22.6018ZM1398.52 17.6528C1399.97 18.9272 1403.41 17.1894 1405.18 15.0492C1406.95 12.9091 1407.17 10.1692 1405.71 8.89482C1404.26 7.62047 1401.68 8.36085 1399.91 10.501C1398.15 12.6412 1396.97 16.4305 1398.52 17.6528ZM1403.95 23.1036C1405.1 24.6794 1408.9 23.9788 1411.08 22.3465C1413.31 20.8075 1414.2 18.1809 1413.14 16.5531C1411.99 14.9774 1409.3 14.9085 1407.03 16.5928C1404.8 18.1318 1402.8 21.5279 1403.95 23.1036ZM1415.19 26.5642C1414.22 24.8845 1411.52 24.577 1409.09 25.9813C1406.66 27.3856 1404.49 30.5018 1405.46 32.1815C1406.43 33.8613 1410.3 33.4926 1412.65 32.1403C1415.08 30.736 1416.16 28.244 1415.19 26.5642ZM1395.38 6.39801C1393.71 5.37301 1391.26 6.53868 1389.94 9.04142C1388.57 11.4508 1388.2 15.3947 1389.88 16.4197C1391.55 17.4447 1394.61 15.0536 1395.99 12.6442C1397.36 10.2348 1397.05 7.423 1395.38 6.39801ZM1394.28 60.0391C1392.61 54.0331 1386.79 50.1809 1382.97 51.2655C1379.15 52.3501 1383.63 56.3598 1385.29 62.3658C1386.96 68.3719 1385.13 74.1545 1389.1 73.1112C1393.06 72.068 1395.95 66.0452 1394.28 60.0391ZM1398.13 63.1676C1398.5 65.0661 1402.28 65.9948 1405.02 65.5344C1407.76 65.0739 1409.69 63.2137 1409.31 61.3152C1408.94 59.4167 1406.45 58.2372 1403.72 58.6976C1400.98 59.1581 1397.75 61.2691 1398.13 63.1676ZM1396.12 55.7404C1396.91 57.5242 1400.86 57.4875 1403.31 56.3218C1405.76 55.1562 1407.18 52.8401 1406.39 51.0563C1405.6 49.2725 1402.79 48.7784 1400.34 49.944C1397.84 51.0164 1395.33 53.9566 1396.12 55.7404ZM1389.02 49.8872C1389.99 51.567 1393.86 51.1984 1396.2 49.8461C1398.55 48.4937 1399.72 45.9497 1398.75 44.27C1397.78 42.5902 1395.08 42.2827 1392.65 43.687C1390.31 45.0393 1388.05 48.2075 1389.02 49.8872ZM1406.4 71.4578C1406.35 69.4966 1404.12 67.9224 1401.34 67.9055C1398.57 67.8886 1394.97 69.3465 1395.02 71.3077C1395.07 73.2689 1398.62 74.8309 1401.44 74.9411C1404.27 75.0513 1406.4 73.3257 1406.4 71.4578Z" fill="#ECE3B6"/>
</svg>
